<svg id="Layer_1" data-name="Layer 1" xmlns="http://www.w3.org/2000/svg" viewBox="0 0 470 470"><defs><style>.cls-1{fill:#fff;}.cls-2{fill:#f05454;}.cls-3{fill:#e6e6e6;}.cls-4{isolation:isolate;}.cls-5{fill:#19c3da;}</style></defs><path class="cls-1" d="M235,450C116.26,450,20,353.69,20.06,234.94A215,215,0,0,1,83,83C168.56.66,304.66,3.27,387,88.83A215,215,0,0,1,387,387,213.57,213.57,0,0,1,235,450Z"/><path class="cls-2" d="M235,30c112.83.16,204.17,91.76,204,204.6s-91.76,204.16-204.59,204S30.24,346.84,30.4,234A204.31,204.31,0,0,1,235,30m0-20C110.74,10,10,110.74,10,235S110.74,460,235,460,460,359.26,460,235,359.26,10,235,10Z"/><path class="cls-3" d="M235,15c121.54.1,220,98.71,219.89,220.25A220.09,220.09,0,0,1,320.63,437.72C208.67,485,79.57,432.59,32.28,320.63S37.41,79.57,149.37,32.28A218.63,218.63,0,0,1,235,15m0-15C105.21,0,0,105.21,0,235S105.21,470,235,470,470,364.79,470,235,364.79,0,235,0Z"/><g class="cls-4"><path class="cls-5" d="M188,277.56c1.6,1.24,3,3.6,4.11,7.1a17.33,17.33,0,0,1,.38,8.84,20,20,0,0,1-4,8.7,16.11,16.11,0,0,1-7.84,5.47,16.77,16.77,0,0,1-10.46-.33,27.38,27.38,0,0,1-10.62-6.43,25.07,25.07,0,0,1-6.7-10.4,97.35,97.35,0,0,1-12.58,24.24,36.36,36.36,0,0,1-18.2,13.53q-9.89,3.24-22.18.14a54.21,54.21,0,0,1-22.42-11.86,47.24,47.24,0,0,1-14.25-21.39,80.93,80.93,0,0,1-3.17-35.9,76.65,76.65,0,0,1,12.09-33.38Q81.9,211.37,97,206.42a38.13,38.13,0,0,1,23.53,0A52.6,52.6,0,0,1,142,219.08a49.22,49.22,0,0,1,13,20.21,67.31,67.31,0,0,1,2.4,9.77c.57,3.34.94,5.41,1.12,6.23q.87,5.93,1.8,10.36a90.3,90.3,0,0,0,2.57,9.45q2.29,7,5.38,9.39a7.45,7.45,0,0,0,7.25,1,3.94,3.94,0,0,0,1.93-1.56,25.61,25.61,0,0,0,1.9-3.26c.11-.21.43-.77,1-1.7a7.41,7.41,0,0,1,1.64-2Q185.65,275.7,188,277.56Zm-50.56,11.79a42.69,42.69,0,0,0,4.64-21.1,227,227,0,0,0-3.3-27.62c-.8-2.46-3.2-4.8-7.17-7a45.26,45.26,0,0,0-13.24-4.78q-7.27-1.44-12.15.16a38.82,38.82,0,0,0-19.69,14,48.84,48.84,0,0,0-9.2,22.47A51.15,51.15,0,0,0,79.2,289,21.68,21.68,0,0,0,88,300.6a31.9,31.9,0,0,0,14.68,5.16,37.8,37.8,0,0,0,15.77-1.6Q132.4,299.6,137.48,289.35Z"/><path class="cls-5" d="M161.39,131a15.43,15.43,0,0,1-.5-6.57,12.51,12.51,0,0,1,2.05-5.42,7.17,7.17,0,0,1,3.49-2.85,6.11,6.11,0,0,1,3.94.36,11.94,11.94,0,0,1,4.62,3.23,16,16,0,0,1,3.44,6.07q6.24,19.06,14.82,52.14,4.65,17.86,8.18,30.43T209.2,234l.54,1.67,26.55-75.7a20.4,20.4,0,0,1,2.51-5.84,7.18,7.18,0,0,1,3.64-3.17q5-1.63,7.75.3t4.62,7.66l.39,1.19q1.51,4.65-2,12.68t-10.94,21l-4.33,7.75q2.93,3.27,6.29,7.51c2.24,2.82,3.74,4.73,4.5,5.71q7.41,9.72,12.92,15.69a119.16,119.16,0,0,0,9.9,10.09,96.55,96.55,0,0,1,8.79,8.73l2.07,2.49q1.63,2,3.33,4.32a14.6,14.6,0,0,1,2.1,14.48q-1.93,5-6.22,6.39a6,6,0,0,1-5.33-.76,19,19,0,0,1-5.34-6q.15.48-8.41-9.78t-32.71-40.48l-13.75,35q2.41,7.38,3.86,11.39l4.3,12.72a17.69,17.69,0,0,1,.28,9.93c-.85,3.44-2.63,5.61-5.33,6.49a7.12,7.12,0,0,1-5.83-.46,13.91,13.91,0,0,1-4.63-4.09,18,18,0,0,1-2.69-5l-3.16-10.05a138.52,138.52,0,0,1-3.49-14.69,63,63,0,0,0-1.78-7.86Z"/><path class="cls-5" d="M285.16,169.39a35.37,35.37,0,0,1,5.76-16.46,44.4,44.4,0,0,1,11.45-11.79,50.64,50.64,0,0,1,13.16-6.75q17.52-5.73,32.09-3.51a47.32,47.32,0,0,1,24.66,11.06,50,50,0,0,1,14.57,22.54q6.7,20.51,5,38.15T380.25,232.8q-9.83,12.51-26.62,18a79.22,79.22,0,0,1-10.71,2.78q-4.86.87-13,1.81l3.2,9.77q2.83,8.7,8.33,21.42,5.39,12.48,8.09,20.7a9.51,9.51,0,0,1-.74,8.22,10.35,10.35,0,0,1-5.68,4.83c-3.25,1.07-5.87,1-7.83-.34a14.6,14.6,0,0,1-5-6.49q-2-4.56-5.33-14.68Q319.24,281.19,285.16,169.39Zm32.8,50q4,10.77,5.47,14.51.18,1,5.61-.39t10.07-2.9a59.29,59.29,0,0,0,21.43-12.09A40.2,40.2,0,0,0,372.68,199q3.22-11.55-1.34-25.48-4.72-14.43-17.55-18.54t-31.17,1.89a41.59,41.59,0,0,0-8.87,4.35,31.9,31.9,0,0,0-7.82,6.72c-2,2.46-2.67,4.77-2,6.91l9.15,30.38Q314,208.65,318,219.41Z"/></g></svg>