<svg id="Layer_1" data-name="Layer 1" xmlns="http://www.w3.org/2000/svg" viewBox="0 0 470 470"><defs><style>.cls-1{fill:#fff;}.cls-2{fill:#f05454;}.cls-3{fill:#e6e6e6;}.cls-4{isolation:isolate;}.cls-5{fill:#19c3da;}</style></defs><path class="cls-1" d="M235,450C116.26,450,20,353.69,20.06,234.94A215,215,0,0,1,83,83C168.56.66,304.66,3.27,387,88.83A215,215,0,0,1,387,387,213.57,213.57,0,0,1,235,450Z"/><path class="cls-2" d="M235,30c112.83.16,204.17,91.76,204,204.6s-91.76,204.16-204.59,204S30.24,346.84,30.4,234A204.31,204.31,0,0,1,235,30m0-20C110.74,10,10,110.74,10,235S110.74,460,235,460,460,359.26,460,235,359.26,10,235,10Z"/><path class="cls-3" d="M235,15c121.54.1,220,98.71,219.89,220.25A220.09,220.09,0,0,1,320.63,437.72C208.67,485,79.57,432.59,32.28,320.63S37.41,79.57,149.37,32.28A218.63,218.63,0,0,1,235,15m0-15C105.21,0,0,105.21,0,235S105.21,470,235,470,470,364.79,470,235,364.79,0,235,0Z"/><g class="cls-4"><path class="cls-5" d="M159.92,255.87a225.12,225.12,0,0,1,10.37,57.84q.89,15.74-6.75,18.23-7.81,2.56-10.72-6.32a17.8,17.8,0,0,1-.79-3.05,44.54,44.54,0,0,1-18.63,12q-18.63,6.1-32.54-1t-20.11-26q-6.28-19.21,1.33-34.15t26.34-21.07q16.31-5.34,31.08,1.9-14.31-37.52-40.76-28.87A28.59,28.59,0,0,0,87.29,233q-5.55,5.72-7.58,6.38a8.4,8.4,0,0,1-6.77-.78,9.11,9.11,0,0,1-4.63-5.32q-1.89-5.79,4.89-13.47,7.24-8.24,19.69-12.32Q139.14,192.36,159.92,255.87ZM147.74,285q-8-24.51-31.09-17-25.29,8.26-17.33,32.6,8,24.51,33.12,16.3,10.91-3.57,15-12T147.74,285Z"/><path class="cls-5" d="M188.77,159.54q-.06-.19-.1,6.88A116,116,0,0,0,190.15,184a184.75,184.75,0,0,0,7.19,29.17q2.88,8.79,9.9,26.15t10,26.44q4.2,12.84,3.65,19a9.48,9.48,0,0,1-7,8.82q-5.31,1.74-8.25-1.68c-1.15-1.33-2.39-4.06-3.74-8.18q-1.59-4.83-3.85-12.1t-3.07-9.68q-3.25-9.94-9.46-26t-8.32-22.5q-8.4-25.68-8.54-41.77,0-15.37,7.61-17.88a10.17,10.17,0,0,1,7.6.51A8.61,8.61,0,0,1,188.77,159.54Zm74-2.63q1.95,6-8.45,16.62l-31,29.37q30.33,15.75,48.88,29.69,16.6,12.53,19,19.86a10.7,10.7,0,0,1-.41,8,8.84,8.84,0,0,1-5.35,5.06q-3.87,1.27-8.25-2.32-10.77-9.08-31-25.13-14.07-10.35-34.61-19.56-7.23-3.18-7.49-3.32a13.6,13.6,0,0,1-5.65-7.45q-1.44-4.44,3.59-9.61,7.26-6.56,14.49-13.19,6.92-6.65,21.59-22.88,8.85-9.84,12.42-11Q259.82,148.05,262.72,156.91Z"/><path class="cls-5" d="M396.05,174.43q8.08,24.7-1.82,44.25T359.62,246.3A66.77,66.77,0,0,1,330.7,249q5.22,23.29,5.52,29,.36,9.28-6.05,11.39a10.49,10.49,0,0,1-7.71-.26,8.38,8.38,0,0,1-4.83-5.25q.18.57-2.47-12.77-3-15.69-7.66-33.51-6.66-25.6-16.2-54.75-1.91-5.81-4.54-13.21t-3.15-9q-4.2-12.82,4.78-15.77,9.36-3.06,12.56,5.72l2.12,5.82q7.92-15,26.36-21,21.9-7.17,39.93,3.18Q387.78,149.14,396.05,174.43Zm-19.21,6.28q-5.77-17.65-17.18-24.73t-26-2.29q-22.79,7.45-23.38,23.58l3.13,9.55q7.32,22.4,13.24,44.4a60.91,60.91,0,0,0,27.25-2.29q16.69-5.48,22.7-18T376.84,180.71Z"/></g></svg>