<?xml version="1.0" encoding="UTF-8"?><svg id="a" xmlns="http://www.w3.org/2000/svg" xmlns:xlink="http://www.w3.org/1999/xlink" viewBox="0 0 296.73 167.57"><defs><style>.c{fill:url(#b);}</style><linearGradient id="b" x1="0" y1="83.78" x2="238.43" y2="83.78" gradientTransform="matrix(1, 0, 0, 1, 0, 0)" gradientUnits="userSpaceOnUse"><stop offset="0" stop-color="#333"/><stop offset=".5" stop-color="#f15a24" stop-opacity=".85"/><stop offset="1" stop-color="#333"/></linearGradient></defs><path d="M86.32,1.27h2.54v7.62h.63c1.06-2.96,1.9-4.44,2.54-4.44,.85,.11,1.27,.53,1.27,1.27l-1.27,1.9c.85,.11,1.27,.53,1.27,1.27l-.63,3.17,1.27,.64h.64l2.54-1.9c.85,2.54,1.69,3.81,2.54,3.81h.63c2.01-2.96,3.28-4.44,3.81-4.44h.63l.64,3.18-.64,1.27h.64c.84-.42,1.48-.64,1.9-.64l.63,1.27v.63l-.63,1.27h1.9c0-1.27,.42-1.9,1.27-1.9h1.9v3.81l1.27-.64,2.54,1.9c.1-2.54,1.37-3.81,3.81-3.81l1.27,.64,1.27-.64h3.17c.1-2.12,.74-3.17,1.9-3.17h1.9c.84,.11,1.27,.53,1.27,1.27l1.27-.64c.64,0,1.27,.64,1.9,1.9v.64l-.63,1.27c.42,0,1.06,.21,1.9,.64,.1-.84,.53-1.27,1.27-1.27,2.11,1.06,3.17,1.9,3.17,2.54l1.27-.63h.63l1.27,.63,.64-1.27h-1.91v-1.27c0-.64,.64-1.27,1.91-1.9h3.81l3.17,1.9c0-.42,.21-.64,.64-.64,1.27,1.8,1.9,3.49,1.9,5.08-.95,0-2.22,1.27-3.81,3.81-1.48-2.22-3.17-3.7-5.08-4.44-.85,.74-4.23,1.37-10.16,1.9-.85,0-2.33-.42-4.44-1.27,0,.64-.63,1.27-1.9,1.9,0-.84-.42-1.27-1.27-1.27h-.63l-1.9,1.27c-.42,0-.64-.21-.64-.63-.85,.42-1.48,.63-1.9,.63l.64,1.27v.63c0,.85-.42,1.27-1.27,1.27s-1.48-1.27-1.9-3.81h-.63v1.27h-1.9c0-1.27-.43-1.9-1.27-1.9h-.63c-1.91,1.27-3.81,1.9-5.71,1.9v-1.27h-.63v1.27h-1.9v-1.27h-2.54v1.27h-1.27l-1.27-.64c-1.48,1.17-2.96,3.07-4.44,5.71l-3.17,.64c0-.84-.42-1.27-1.27-1.27h-.63c0,.63-.42,1.48-1.27,2.54l1.9,1.27c0-1.27,2.33-2.12,6.98-2.54l.64,1.27v.64l-.64,1.27c1.69,0,2.54,.64,2.54,1.9h.63c0-1.48,.63-3.17,1.9-5.08l1.27,.64h1.9l3.81-.64c2.96,.53,4.44,1.8,4.44,3.81l1.27-.64c.74,.43,1.59,.64,2.54,.64,0-.84,.64-1.27,1.9-1.27,.85,.42,1.48,.63,1.9,.63v-.63c-.42-.74-.63-1.59-.63-2.54v-3.81c.1-.84,.53-1.27,1.27-1.27l4.44,3.81c0,.85-.63,1.27-1.9,1.27,.53,2.12,1.16,3.17,1.9,3.17s1.37-1.9,1.9-5.71c1.37,0,2.43-.21,3.17-.63l.63,1.27-.63,3.81c5.92,1.27,9.1,1.9,9.52,1.9l4.44-.64c-.43-1.69-1.06-3.17-1.9-4.44,0-.85,1.48-1.48,4.44-1.9,2.11,1.8,3.17,3.91,3.17,6.35l3.17-.63c0,.85,.64,1.27,1.91,1.27l4.44-2.54h1.9c1.69,2.12,2.75,3.18,3.17,3.18l-.64,1.27v.64c1.27,0,1.9,.42,1.9,1.27-.63,0-1.27,.85-1.9,2.54l3.17,2.54,3.81-3.18h1.9l2.54,6.98h-.64l-1.27-.64-1.9,2.54v.63c2.11,.32,3.17,.95,3.17,1.9l-.63,1.27c2.54,.21,3.81,.85,3.81,1.9v.64c0,.85-.42,1.27-1.27,1.27h-1.27l-1.9-1.27c0,.85-.43,1.27-1.27,1.27l-1.9-1.27h-3.17l.63,1.27c0,.74-1.06,1.38-3.17,1.9-.74-.42-1.59-.63-2.54-.63l-.63,1.27v.64l1.27,1.9,1.27-.64h1.9c.42,0,.64,.21,.64,.64l1.27-.64,1.27,.64c.74-.42,1.59-.64,2.54-.64,.84,.42,1.48,.64,1.9,.64,.1-.84,.53-1.27,1.27-1.27l1.27,.64,3.81-1.9c2.54,1.69,3.81,2.75,3.81,3.17v.64h.64c0-1.48,1.06-2.54,3.17-3.17l.64,1.27v.64c0,.53-1.48,1.59-4.44,3.17v.64c.42,.74,.64,1.59,.64,2.54-.43,0-.64,.21-.64,.63h.64c2.01,0,4.12-.21,6.35-.63h3.81l-1.27-2.54,1.27-.64c.63,0,1.48,.85,2.54,2.54-.42,.85-.63,1.48-.63,1.9,.85,.11,1.27,.53,1.27,1.27l-.64,1.27-3.17-.64h-.64v.64l.64,1.27c-.85,.42-1.48,.64-1.9,.64l2.54,2.54v.64c0,.42-.21,.64-.63,.64,.42,.74,.84,2.65,1.27,5.71,1.69-1.27,2.96-1.9,3.81-1.9,1.48,2.54,2.96,3.81,4.44,3.81,.84-.42,1.48-.64,1.9-.64l.63,1.27c0,.85-.63,1.27-1.9,1.27v.63c2.11,.11,3.17,.74,3.17,1.9,0,.85-.42,1.27-1.27,1.27-.85-.42-1.48-.64-1.9-.64l-.63,1.27,.63,1.27c-.74,.42-1.8,.63-3.17,.63l5.08,3.18v.64h1.27c.85,0,1.27-.42,1.27-1.27-.85,0-1.27-.42-1.27-1.27l1.27-.64,3.17,4.44v.64l-.63,1.27c1.9,0,3.17,1.9,3.81,5.71-.85,.42-1.48,.64-1.9,.64-.85-.42-1.48-.64-1.9-.64l-.63,1.27c1.9,1.69,2.96,2.54,3.17,2.54l3.17-.64,6.35,10.16,1.27-.64h.64c.42,0,.63,.21,.63,.64l1.27-.64h.63c.42,0,.63,.21,.63,.64l1.27-.64h.64c.42,0,.63,.21,.63,.64l1.27-.64h.63c.42,0,.63,.21,.63,.64,.85-.42,1.48-.64,1.9-.64,1.37,.85,2.43,1.27,3.17,1.27,.1-.84,.53-1.27,1.27-1.27h.63c.42,0,.63,.21,.63,.64l1.27-.64h.63c.42,0,.64,.21,.64,.64l1.27-.64h.63c.84,.11,1.27,.53,1.27,1.27v.63c-.95,0-1.8,.21-2.54,.64l-1.27-.64-1.27,.64-1.27-.64-1.27,.64-1.27-.64c-.85,.43-1.48,.64-1.9,.64v-.64c-1.38,.85-2.65,1.27-3.81,1.27-.85,0-1.27-.42-1.27-1.27l-1.27,.64h-1.9l-3.17-.64c-1.69,1.48-2.54,2.54-2.54,3.18h-1.9v-1.27h-.63v1.27h-1.9c0-1.27-.85-1.9-2.54-1.9,0,1.27-2.33,1.9-6.98,1.9h-.63v-1.27h-2.54v.64c1.27,0,1.9,.42,1.9,1.27v.63c-2.22,2.96-4.13,4.44-5.71,4.44-.85-.42-1.48-.64-1.91-.64,0,.42-.21,.64-.63,.64,0-.84-.42-1.27-1.27-1.27l-.63,3.17c1.8,0,3.7,.64,5.71,1.9,0-1.06,.85-1.69,2.54-1.9,1.69,.64,2.54,1.27,2.54,1.9-.42,.85-.63,1.48-.63,1.9,2.11,.32,3.17,1.38,3.17,3.17,.64,0,1.27-.84,1.9-2.54-1.9-.85-2.96-1.69-3.17-2.54l1.9-2.54c3.81,1.59,5.71,2.65,5.71,3.18l-.63,1.27c5.5,1.17,8.25,2.22,8.25,3.17v1.27c-.42,1.27-1.69,1.9-3.81,1.9v-.64c-1.69,0-2.54,1.48-2.54,4.44,1.27,0,1.9,.42,1.9,1.27s-.43,1.27-1.27,1.27l-1.27-.63c0,.85-.42,1.27-1.27,1.27h-1.91v-1.27h-.63v1.27l3.17,1.27-.63,3.18c.42,.85,.63,1.48,.63,1.9-2.75,3.39-4.66,5.08-5.71,5.08,2.54,1.9,3.81,3.81,3.81,5.71l-1.27,.64h-1.27c-.85,0-1.27-.84-1.27-2.54h-2.54l-2.54,2.54c-.85,0-1.27-.64-1.27-1.9l-3.81,2.54-2.54-.64-3.17,.64-1.27-.64c-.85,.42-1.48,.64-1.9,.64l-3.17-.64c-.85,.42-1.48,.64-1.9,.64v-.64c-.85,.42-1.48,.64-1.9,.64l-5.71-.64c-.85,0-2.33,.42-4.44,1.27-4.34-.42-7.72-.63-10.16-.63h-2.54c-5.5-3.18-8.25-8.04-8.25-14.6,.42,0,.64-.21,.64-.64l1.27,.64h1.27c0-2.43-1.48-4.97-4.44-7.62v-.64c0-1.05,.84-1.69,2.54-1.9v-1.27l-3.17,.64c-1.06,0-1.69-.85-1.9-2.54l-4.44,3.81c-.85,0-1.27-.42-1.27-1.27l-1.27,.63h-1.27l-1.27-.63c0,.85-.42,1.27-1.27,1.27l-2.54-1.9h-3.17v-1.27l-1.9,1.27h-1.27v-1.27l-1.9,1.27h-1.27v-1.27c.1-.85,.53-1.27,1.27-1.27l-.64-1.27v-.64h3.17l-.63-3.17,1.9-1.27h.63c.63,0,1.27,.85,1.9,2.54,1.37-.84,2.64-1.27,3.81-1.27h5.71l4.44-.64c0,.74,1.06,1.38,3.17,1.9,0-1.69,1.27-2.75,3.81-3.17h1.9l1.27-1.9-1.9-1.27c0,.85-.42,1.27-1.27,1.27h-1.27c-1.59-2.12-2.86-3.17-3.81-3.17l-1.27-.64c-2.96,1.37-4.44,3.28-4.44,5.71h-1.27v-1.9c0-.42,.21-.64,.63-.64,0-1.59-1.27-2.64-3.81-3.17-.42,0-.63,.21-.63,.64-7.2,0-10.79-1.06-10.79-3.18-.85,0-1.27-.21-1.27-.64-.74,0-2.22,1.27-4.44,3.81h-1.27c-.63,0-1.27-.64-1.9-1.9l.63-1.27-4.44-.64-3.17,.64-3.17-.64-4.44,.64v.64c4.23,0,6.35,.64,6.35,1.9-2.33,0-4.23,1.27-5.71,3.81-1.48-.84-2.54-2.12-3.17-3.81l1.27-2.54c-1.27,0-1.9-.21-1.9-.64l-1.27,.64h-2.54c-.95,0-1.8-.21-2.54-.64-.74,.43-1.59,.64-2.54,.64h-2.54c-.42,0-.63-.21-.63-.64-.85,.43-1.48,.64-1.9,.64l.63,3.18-1.27,.63h-1.27l-1.27-.63v.63c.84,.85,1.27,2.75,1.27,5.71l1.9-1.27,5.08,4.44c0-1.48,2.33-2.54,6.98-3.18l1.27,1.9v1.27l-.63,1.27c.84,.11,1.27,.53,1.27,1.27l-1.27,.64h-.64c-.63,0-1.27-.64-1.9-1.9l.64-1.27c-.95,0-1.8-.21-2.54-.64-.74,.42-1.59,.64-2.54,.64v.63h2.54l-.63,3.18c.84,.11,1.27,.53,1.27,1.27,0,.85-.64,1.27-1.9,1.27-.85-.42-1.48-.63-1.91-.63,0,.53-1.06,1.59-3.17,3.17-.85,0-1.27-.42-1.27-1.27,.85,0,1.27-.42,1.27-1.27l-1.27-1.9c.85,0,1.27-.42,1.27-1.27v-.64h-1.27l-3.17,.64,.64,1.27c0,.95-.21,1.8-.64,2.54,.42,.74,.64,1.59,.64,2.54-.43,0-.64,.21-.64,.63h.64l1.27-.63,1.27,1.9-4.44,7.62c-.21,0-1.48,1.27-3.81,3.81l.63,1.27v.64h-1.27v-1.27l-1.27,.63,2.54,3.18c0,.32-1.9,1.8-5.71,4.44h-.64c-.85,0-1.27-.63-1.27-1.9h-1.27c0,1.69-.63,2.54-1.9,2.54-2.65-.84-4.34-1.27-5.08-1.27-1.69,.85-2.96,1.27-3.81,1.27-4.66,0-6.98-.84-6.98-2.54h-.63c0,1.69-.42,2.54-1.27,2.54h-1.27c-.43,0-.64-.21-.64-.64l-1.27,.64h-1.9c-2.22,0-4.12-.64-5.71-1.9,0,.85-.42,1.27-1.27,1.27h-.64c-.32,0-1.38-1.06-3.17-3.17v.64l.63,1.27-2.54,1.9v-.64l-1.27,.64h-.64c-.85,0-1.27-.84-1.27-2.54-1.38,0-2.86,.64-4.44,1.9-.21,0-1.27-.84-3.17-2.54v1.27h-1.27c-.85,0-1.27-.64-1.27-1.9l-1.9,1.27h-1.27v-1.27h-.63v1.9h1.27v.64c0,.85-.42,1.27-1.27,1.27h-1.27c-.85,0-1.27-.42-1.27-1.27v-.64h1.27v-.64h-1.27c-.85,.42-1.48,.64-1.9,.64,0-.84-.42-1.27-1.27-1.27h-.63v1.27h-.64l-2.54-1.9v1.27c-.95,0-1.8-.21-2.54-.63-.85,.42-1.48,.63-1.91,.63,0-.84-.42-1.27-1.27-1.27,0,.85-.42,1.27-1.27,1.27h-.63v-.63c0-1.06,.84-1.69,2.54-1.9,.85,.42,1.48,.63,1.9,.63l.64-1.27v-.64h-.64v1.27h-1.27c0-1.27-.42-1.9-1.27-1.9-.42,.85-.64,1.48-.64,1.9h-1.27c0-1.27-.42-1.9-1.27-1.9-.42,.85-.63,1.48-.63,1.9-.85,0-1.27-.42-1.27-1.27,0-.63,.63-1.27,1.9-1.9h1.27v1.27h1.27v-1.27h1.9v1.27c.64,0,1.27-.64,1.91-1.9v-.64h-.64v1.27h-1.27v-1.27h-1.9v1.27h-1.27c0-.63-.42-1.48-1.27-2.54v-.64h1.27v1.27c1.06-.84,2.11-1.27,3.17-1.27,0-.84-.42-1.27-1.27-1.27h-.64v1.27h-1.27v-.64c.42-.95,1.9-3.07,4.44-6.35-.42-.74-.63-1.59-.63-2.54l3.81-3.81c-.42-.85-.63-1.48-.63-1.9,2.54-3.81,4.23-5.71,5.08-5.71l-.63-3.18c.63,0,1.9-1.27,3.81-3.81-.42-.84-.63-1.48-.63-1.9l1.27,.64h.64l-1.27-1.9c2.54-2.12,3.81-3.81,3.81-5.08-.42-.84-.63-1.48-.63-1.9,.63,0,2.96-2.54,6.98-7.62l-.64-1.27h2.54v-.64h-1.9v-.63l2.54-3.18c-.42-.84-.63-1.48-.63-1.9,.42,0,.63-.21,.63-.63l1.27,.63h1.27v-1.27l-1.27,.64h-.64v-.64c2.54-3.07,4.02-6.03,4.44-8.89,2.33-2.54,3.81-3.81,4.44-3.81l-1.27-1.9,5.71-6.98c-.85,0-1.27-.42-1.27-1.27,2.54-2.54,3.81-4.23,3.81-5.08-.42-.84-.63-1.48-.63-1.9,2.96-1.9,4.44-4.02,4.44-6.35-.42,0-.63-.21-.63-.64,3.38-2.64,5.08-4.97,5.08-6.98-.43,0-.64-.21-.64-.63,1.8-.95,3.07-2.64,3.81-5.08l-.63-1.27c2.96-3.81,4.86-5.71,5.71-5.71v-.63l-1.27-1.9c.64,0,2.33-1.9,5.08-5.71l-.63-1.27c3.59-4.34,5.71-7.93,6.35-10.79h-3.17l-1.9,1.27-1.91-1.27c-2.33,.42-4.02,.63-5.08,.63-.42,0-.64-.21-.64-.63l-3.17,.63c-.64,0-4.02-.21-10.16-.63l-1.27,.63c-2.54-.32-3.81-.95-3.81-1.9l-1.9,1.27h-3.17v-1.27h-.64v1.27h-1.27l-2.54-1.9-4.44,.63c0-.84-.43-1.27-1.27-1.27h-5.08v-.64c.1-.84,.53-1.27,1.27-1.27l1.27,.64,1.27-.64c.42,0,.64,.21,.64,.64,3.59-.85,5.71-1.27,6.35-1.27v.64l1.27-.64,3.17,.64,3.17-.64c0,.42,.21,.64,.64,.64,.1-.84,.53-1.27,1.27-1.27h.64c.42,0,.63,.21,.63,.63l1.27-.63h5.08c1.37,0,2.43-.21,3.17-.64l3.81,.64h7.62l1.9-1.27c.42,0,.64,.21,.64,.64l1.27-.64c.95,0,1.8,.21,2.54,.64,5.08-.32,7.62-.95,7.62-1.9h-.63c-.85,.42-1.48,.64-1.9,.64v-1.9c1.69,0,2.54-.64,2.54-1.9h.63c.32,3.38,.95,5.08,1.9,5.08h1.27c2.96-2.96,4.86-4.44,5.71-4.44-.85-1.06-1.27-1.9-1.27-2.54,.42-.85,.63-1.48,.63-1.91h-.63c-1.69,0-2.54,.64-2.54,1.91h-.63v-1.91l1.27-1.9c-.43-.74-.64-1.59-.64-2.54,1.27,0,1.9-1.27,1.9-3.81ZM1.9,162.49h1.27v1.27c-.64,0-1.48,.42-2.54,1.27H0v-.63c0-.64,.63-1.27,1.9-1.9Zm5.71-7.62v1.27h.64v-1.27h-.64Zm1.9-1.9v1.27h.64v-1.27h-.64ZM13.96,20.31c.74,.42,1.59,.64,2.54,.64v1.27l-3.17,.64-1.27-.64c-.85,.42-1.48,.64-1.9,.64v-1.9l3.81-.64Zm-3.81,128.21v.63h1.27v-.63h-1.27Zm.63,6.35v1.27h.63v-1.27h-.63Zm0,3.17v1.27h.63v-1.27h-.63Zm0,3.17v1.27h.63v-1.27h-.63Zm.63-19.68v.64c.64,0,1.27-.64,1.9-1.9v-.64c-.63,0-1.27,.64-1.9,1.9Zm1.9,6.98l-.63,1.27v.64h.63c0-.84,.42-1.27,1.27-1.27v-.63h-1.27Zm-.63,10.79v1.27h.63v-1.27h-.63Zm1.27-1.27v1.27h.63v-1.27h-.63Zm0,2.54v1.9h.63v-1.9h-.63Zm.63-19.04v.64c.85,0,1.27-.42,1.27-1.27v-.64c-.85,.11-1.27,.53-1.27,1.27Zm1.27-8.88v.64h1.27v-.64h-1.27Zm1.27-111.71h1.9v1.27h-1.9v-1.27Zm0,137.1v1.27h.64v-1.27h-.64Zm0,2.54v1.27h.64v-1.27h-.64Zm1.9-31.1v.63h1.27v-.63h-1.27Zm1.27-1.9c.1,.85,.53,1.27,1.27,1.27v-1.27h-1.27Zm0,33.01v1.9h.63v-1.9h-.63Zm9.52,.63v1.27h.64v-1.27h-.64Zm5.08-59.03v.63h1.27v-.63h-1.27Zm7.62,58.39v1.27h.64v-1.27h-.64Zm2.06-34.59h1.27v1.27h-1.27v-1.27Zm1.27-3.81v1.27h1.27v-1.27h-1.27Zm1.75-29.51v1.27h.63v-1.27h-.63Zm1.43,32.69v1.27h.63c.84,0,1.27-.42,1.27-1.27v-.64c-.85,.42-1.48,.64-1.9,.64Zm3.17,0v1.27h.64c.84,0,1.27-.42,1.27-1.27v-.64c-.85,.42-1.48,.64-1.9,.64Zm3.65-61.25v.64h1.27v-.64h-1.27Zm.63,95.21v.64h1.27v-.64h-1.27Zm1.27,1.27v1.27h.63v-1.27h-.63Zm3.81-102.83c.1,.85,.53,1.27,1.27,1.27v-1.27h-1.27Zm.79,66.96v1.27c1.37,0,2.43,.21,3.17,.64v-1.27l-3.17-.64Zm1.75,39.04v.64h1.27v-.64h-1.27Zm3.81-106v1.27h.64v-1.27h-.64Zm.16,68.23v.64h.63c.85,0,1.27-.42,1.27-1.27v-.64h-.63c-.85,.11-1.27,.53-1.27,1.27Zm12.06-.63v.63h3.17v.64c0,.85-.42,1.27-1.27,1.27h-4.44l-3.81,.64c-1.69-.84-3.17-1.27-4.44-1.27l-.64,1.27,1.27,.64h3.81v3.17h2.54v-.64l-.64-1.27,1.27-.64h4.44c1.69,2.12,2.75,3.18,3.17,3.18h.63v-1.27c-1.27,0-1.9-.42-1.9-1.27l2.54-1.9c-.42-.84-.64-1.48-.64-1.9,.42-.84,.64-1.48,.64-1.9-.85,0-1.27-.64-1.27-1.9-2.12,1.69-3.6,2.54-4.44,2.54Zm-6.35,0c.1,.85,.53,1.27,1.27,1.27l.63-1.27v-.64c-.85,.42-1.48,.64-1.9,.64Zm.63-3.18v1.27c.85,0,1.27-.42,1.27-1.27h-1.27Zm1.75-96.16v1.27c.84,0,1.27-.42,1.27-1.27h-1.27Zm1.9-1.27v.63h1.27v-.63h-1.27Zm3.81,5.08v.64h1.27v-.64h-1.27Zm.63-5.08v.63h4.44v-.63h-4.44Zm0,53.31v1.27h.64v-1.27h-.64Zm2.54,72.36v1.27h1.27c0-.84-.42-1.27-1.27-1.27Zm2.06-28.25v1.27h.64v-1.27h-.64Zm4.92-65.06c0,1.48-1.06,3.39-3.17,5.71,2.11,0,3.17,.64,3.17,1.9h.64v-.64l-.64-1.27c.42-.84,.64-1.48,.64-1.9l-.64-1.27c.42-.84,.64-1.48,.64-1.9v-.63h-.64Zm-3.17,19.68v1.27h.63v-1.27h-.63Zm0,4.44v.64c.84,0,1.27-.42,1.27-1.27v-.64c-.85,.11-1.27,.53-1.27,1.27Zm0,40.62v1.27h.63v-1.27h-.63Zm.63-107.9c.42,.74,.63,1.8,.63,3.18h1.9c-.85-1.37-1.27-2.64-1.27-3.81l-1.27,.63Zm1.27,12.06v.64l3.17,.63,1.27-.63,1.27,.63h.63v-.63c-.85,0-1.27-.21-1.27-.64,.42-.84,.64-1.48,.64-1.9l-5.71,1.9ZM107.9,0c2.11,.53,3.17,1.17,3.17,1.9l-5.08,4.44-2.54-3.17h-.64l-3.17,3.17-2.54-2.54c-1.48,.43-2.33,.64-2.54,.64-1.69-.64-2.54-1.27-2.54-1.9,0-1.37,5.29-2.22,15.87-2.54Zm-13.96,123.77h2.54c.84,.11,1.27,.53,1.27,1.27-2.12,.85-3.81,1.27-5.08,1.27l-.64-1.27,1.9-1.27Zm-.63-43.16v.63h2.54c-.42-.84-.63-1.48-.63-1.9h-.63c-.85,.11-1.27,.53-1.27,1.27Zm.63-48.24v.63l2.54,.64h1.27v-.64c-1.38,0-2.44-.21-3.17-.63h-.64Zm0,106v.64h1.27v-.64h-1.27Zm.64,4.44c.84,.11,1.27,.53,1.27,1.27h-1.27v-1.27ZM97.11,7.62c.85,.11,1.27,.53,1.27,1.27,0,.85-.42,1.27-1.27,1.27s-1.27-.42-1.27-1.27c.1-.84,.53-1.27,1.27-1.27Zm-1.27,50.78l1.27,1.9c2.22-.84,3.91-1.27,5.08-1.27v-1.27l-1.27,.64-2.54-.64c-.74,.43-1.59,.64-2.54,.64Zm.64-3.17v.63h1.27v-.63h-1.27Zm1.27,19.68l-.64,2.54,1.27,.64c.84-.42,1.48-.64,1.9-.64,0-.63-.85-1.48-2.54-2.54Zm2.54,67.91c.84,.11,1.27,.53,1.27,1.27v.64c0,.63-.64,1.27-1.9,1.9l-1.27-.64c.53-2.12,1.16-3.17,1.9-3.17Zm6.35-116.15l.64,1.27c0,.85-.42,1.27-1.27,1.27h-1.27c-.85,0-1.27-.42-1.27-1.27l3.17-1.27Zm.64,116.15h.63c.85,.11,1.27,.53,1.27,1.27l-1.9,1.27c-.85,0-1.27-.42-1.27-1.27,.1-.84,.53-1.27,1.27-1.27Zm0-88.23v1.27l1.27-.63,.64,1.27c0,1.27-.85,1.9-2.54,1.9v.64h.64c.84-.42,1.48-.64,1.9-.64,0,.64,.63,1.27,1.9,1.9,.1-.84,.53-1.27,1.27-1.27,.53,0,2.64,.63,6.35,1.9l1.27-2.54-3.17-.64h-4.44l-3.17-3.17h-1.9Zm13.96,77.43h1.27c.63,0,1.27,.64,1.9,1.9-4.44,5.08-7.2,7.62-8.25,7.62h-.64c-.42,0-.63-.21-.63-.63-1.27,.42-1.9,.85-1.9,1.27,.42,.85,.63,1.48,.63,1.9l-1.27,.64h-1.27c-.85,0-1.27-.42-1.27-1.27,.63,0,1.27-.63,1.9-1.9v-.63c-1.27,0-1.9-.42-1.9-1.27,.85,0,1.27-.42,1.27-1.27-2.54,0-3.81-.64-3.81-1.9v-.64c.1-.84,.53-1.27,1.27-1.27h1.9v1.27h.64v-.63c-.42-.74-.64-1.59-.64-2.54h1.9l3.81,3.17,5.08-3.81Zm-13.33-99.65c0,.63,1.27,1.9,3.81,3.81-.85-1.37-1.27-2.64-1.27-3.81h-2.54Zm6.35,43.16c0,1.8-.85,3.49-2.54,5.08l2.54,.63,2.54-1.27,1.27,1.9v.64c0,2.22-1.69,5.82-5.08,10.79l.63,1.27c-3.81,8.46-5.71,13.75-5.71,15.87,4.44,1.69,8.46,2.54,12.06,2.54,8.04,0,12.06-1.9,12.06-5.71-1.27-2.01-2.75-5.18-4.44-9.52,.42-.84,.63-1.48,.63-1.9l-8.25-17.14c.84,0,1.27-.42,1.27-1.27-1.59,0-3.28-.63-5.08-1.9h-1.9Zm-6.35,64.11h.63v1.27h-.63v-1.27ZM112.98,1.27c.84,.11,1.27,.53,1.27,1.27l-1.27,.64c-.85,0-1.27-.42-1.27-1.27l1.27-.63Zm-.64,50.77v.64h1.91l.63-1.27h-.63c-.85,.43-1.48,.64-1.91,.64Zm5.08,71.09h1.27v.64c0,.85-.42,1.27-1.27,1.27s-1.27-.42-1.27-1.27l1.27-.64Zm0,19.68h.64v1.27h-.64v-1.27Zm3.81-3.81h1.9c.85,.11,1.27,.53,1.27,1.27,0,.85-.42,1.27-1.27,1.27h-1.27c-.64,0-1.27-.63-1.9-1.9l1.27-.63Zm.64-131.39h.63c.85,.11,1.27,.53,1.27,1.27l-1.27,.63h-.63c-.85,0-1.27-.42-1.27-1.27l1.27-.64Zm1.27-7.62h1.27c.63,0,1.27,.64,1.9,1.9,0,.64-.63,1.27-1.9,1.9h-.63c-.64,0-1.27-.63-1.9-1.9v-.63c.1-.85,.53-1.27,1.27-1.27Zm-1.27,74.26v.64h1.27v-.64h-1.27Zm1.27-16.5v1.27c1.06,0,2.12,.42,3.17,1.27l.63-1.27v-.64c-.32,0-1.59-.21-3.81-.64Zm1.27,22.22l-1.27,1.9h3.17c.85,0,1.27-.42,1.27-1.27l-3.17-.64Zm4.44,53.95l.63,1.27c0,.53-1.06,1.59-3.17,3.17h-1.9c-.85,0-1.27-.42-1.27-1.27v-1.27c2.12,0,4.02-.63,5.71-1.9Zm-5.08-11.42v.64h2.54v-.64h-2.54ZM130.75,0h4.44c.63,0,1.27,.64,1.9,1.9,0,.74-1.06,1.38-3.17,1.9-2.96-.42-4.44-1.05-4.44-1.9v-.63c.1-.85,.53-1.27,1.27-1.27Zm8.88,57.76c-.42-.84-.63-1.48-.63-1.9-.85,.43-1.48,.64-1.9,.64-.85-.42-1.48-.64-1.9-.64-.21,.85-1.27,1.69-3.17,2.54-.74-.42-1.59-.64-2.54-.64v1.27c.42,0,.63-.21,.63-.64,4.44,1.27,7.19,1.9,8.25,1.9h1.27l6.35-.64v-.63l-1.27-1.9v-1.27l2.54-.63,1.9,2.54c-.43,.85-.64,1.48-.64,1.9h1.9l1.9-1.27h1.9l2.54,1.9h3.17c0-1.27-2.75-2.54-8.25-3.81v-.64l.63-1.27c-1.48-.32-2.59-.69-3.33-1.11-.74-.42-1.11-.9-1.11-1.43l-.63,.64c-.21,.32-.48,.64-.79,.95-2.22,2.75-4.5,4.12-6.82,4.12Zm-5.08,84.42h3.17v1.27c0,.85-.42,1.27-1.27,1.27h-1.9c-.85,0-1.27-.42-1.27-1.27,.1-.84,.53-1.27,1.27-1.27Zm-.64-68.55v.64l3.17,.64v-1.27h-3.17Zm0,6.35v.64h1.27v-.64h-1.27Zm.64,46.33h1.27c.85,.11,1.27,.53,1.27,1.27,0,.85-.42,1.27-1.27,1.27s-1.27-.42-1.27-1.27v-1.27Zm3.81-99.65h.63c.85,.11,1.27,.53,1.27,1.27,0,.85-.42,1.27-1.27,1.27h-.63c-.85,0-1.27-.42-1.27-1.27,.1-.84,.53-1.27,1.27-1.27Zm1.27-26.66h1.27c1.06,0,2.96,.42,5.71,1.27,1.37-.85,2.64-1.27,3.81-1.27h1.27c2.54,.21,3.81,.85,3.81,1.9,0,1.27-2.12,1.9-6.35,1.9l-1.27-.63-1.27,.63c-.85-.42-1.48-.63-1.9-.63l-3.17,.63c-2.12-.42-3.17-1.48-3.17-3.17l1.27-.64Zm1.9,76.8v.63c.42,0,1.06,.21,1.91,.64v-1.27h-1.91Zm7.62,3.81v.63h.63c.74-.42,1.59-.63,2.54-.63v-.64h-1.27c-.85,.42-1.48,.64-1.9,.64Zm6.98-61.57h.64c.84,.11,1.27,.53,1.27,1.27v.64l-3.17,.63v-1.27c.1-.84,.53-1.27,1.27-1.27Zm.64,106.63v.63h1.27v-.63h-1.27Zm4.44-109.17c.85,0,1.27,.64,1.27,1.9-.63,1.69-1.27,2.54-1.9,2.54h-1.27l-.63-2.54,2.54-1.9Zm1.9-15.87h.64c.84,.11,1.27,.53,1.27,1.27,0,.85-.42,1.27-1.27,1.27h-.64c-.85,0-1.27-.42-1.27-1.27,.1-.84,.53-1.27,1.27-1.27Zm-.63,19.04h1.9c.95,0,1.8,.21,2.54,.64l1.27-.64,1.27,.64c.84-.42,1.48-.64,1.9-.64v1.9h-.64l-1.27-.63-1.27,.63c-.85-.42-1.48-.63-1.9-.63,0,.85-.63,1.27-1.9,1.27-.85-.42-1.48-.64-1.9-.64v-1.9Zm1.9,109.17v.64c.42,.85,.63,1.48,.63,1.9h.64v-1.9l-1.27-.64Zm3.81-54.59l-.63,3.17,1.27,.64c.42-.84,.64-1.48,.64-1.9-.42-.84-.64-1.48-.64-1.9h-.63Zm0,55.85v1.27h.63v-1.27h-.63Zm4.44-97.11h.63c.84,.11,1.27,.53,1.27,1.27,0,.85-.43,1.27-1.27,1.27h-.63c-.85,0-1.27-.42-1.27-1.27,.1-.84,.53-1.27,1.27-1.27Zm-.64,107.9v.63h1.27v-.63h-1.27Zm1.27-12.06c.84,1.06,1.27,2.12,1.27,3.17h.63v-1.27c-.42-.84-.63-1.48-.63-1.9h-1.27Zm.63-87.59v.64h1.27v-.64h-1.27Zm4.44-2.54c.63,0,1.27,.64,1.9,1.91l-.64,1.27c-.74-.42-1.59-.64-2.54-.64v-1.27c.1-.84,.53-1.27,1.27-1.27Zm3.81-5.71c1.59,0,2.64,2.54,3.17,7.62l-1.27,.63h-.64c-.53,0-1.59-1.48-3.17-4.44,.42-2.54,1.06-3.81,1.9-3.81Zm-.64,15.87h1.9c.42,0,1.48,1.48,3.17,4.44-2.54,.53-3.81,1.17-3.81,1.9h1.9v1.27h-1.9c-.95,0-1.8-2.33-2.54-6.98l1.27-.64Zm-.63,28.56v1.27h1.27v-1.27h-1.27Zm3.81-6.98c0,.74-.63,1.8-1.9,3.17,2.11,0,3.81,2.33,5.08,6.98,.84-.42,1.48-.64,1.9-.64s.63,.21,.63,.64c1.69-.42,3.38-.64,5.08-.64,0-.42-.85-1.69-2.54-3.81l.63-3.17h-.63c-.95,0-1.8,.21-2.54,.63l-5.71-3.17Zm3.81,89.5v.64h1.27v-.64h-1.27Zm3.81-107.9l1.27,1.9v1.27c0,.85-.42,1.27-1.27,1.27h-.63c-.85,0-1.27-.42-1.27-1.27,.53-2.12,1.16-3.18,1.9-3.18Zm-1.9,88.23v1.27h.64v-1.27h-.64Zm1.27-8.25v.64h1.27v-.64h-1.27Zm3.17-3.17v1.27h.63v-1.27h-.63Zm4.44,12.06c0,.63,.63,1.27,1.9,1.9,.85-.42,1.48-.64,1.9-.64v-1.27h-3.81Zm0,6.35v.64h1.27v-.64h-1.27Zm4.44,12.7v.64l2.54,.63c.84-.42,1.48-.63,1.9-.63,0,.42,.21,.63,.63,.63v-.63c0-.85-.63-1.27-1.9-1.27l-3.17,.64Zm1.9-15.87v.64h1.27v-.64h-1.27Zm2.54-1.27v1.9h2.54c-.85-1.37-1.27-2.43-1.27-3.18-.85,.11-1.27,.53-1.27,1.27Zm.63-31.74v1.27h1.27c0-.84-.42-1.27-1.27-1.27Zm.64,35.54c0,.42-.21,1.06-.64,1.9,.42,.74,.64,1.59,.64,2.54h3.17c-.74-2.96-1.59-4.44-2.54-4.44h-.63Zm1.27-8.89v.64h1.27v-.64h-1.27Zm1.27,22.85v1.27h.63v-1.27h-.63Zm.63-20.31l1.27,1.9v.64c0,.85-.42,1.27-1.27,1.27,.42,.85,.64,1.48,.64,1.9,.84,0,1.48-1.69,1.9-5.08l-1.27-.64h-1.27Zm1.9-28.56v3.17c.64,0,1.48-.84,2.54-2.54-.95,0-1.8-.21-2.54-.63Zm3.17,3.17v.64h1.27v-.64h-1.27Zm7.62,43.8c0,.21,1.06,1.48,3.17,3.81v.63c0,.85-.42,1.27-1.27,1.27h-1.9c-4.66-.64-6.98-1.48-6.98-2.54,.1-.84,.53-1.27,1.27-1.27l2.54,.63,3.17-2.54Zm-5.71-39.99v.64h1.27v-.64h-1.27Zm10.79,30.47h.63v1.9l.64,3.18c-4.02,1.69-6.35,2.54-6.98,2.54-.74-.42-1.59-.64-2.54-.64,0,.42-.21,.64-.64,.64l-.63-1.27c.1-.84,.53-1.27,1.27-1.27l-.64-1.27v-1.27h1.27v1.9l1.9-1.27h.63c.42,0,.64,.21,.64,.64,.53,0,2.01-1.27,4.44-3.81Zm-6.98-3.17h1.27v1.27h-1.27v-1.27Zm3.81-3.17c.85,.11,1.27,.53,1.27,1.27l-1.27,.64c-.85,0-1.27-.42-1.27-1.27l1.27-.63Zm.64-4.44h1.27v1.27h-1.27v-1.27Zm1.9,5.08h1.27c0,1.38,.21,2.44,.64,3.18l-1.27,.63h-.63c-.85,0-1.27-.42-1.27-1.27v-1.27c.1-.85,.53-1.27,1.27-1.27Zm.63-9.52h.63c.85,.11,1.27,.53,1.27,1.27l-1.27,.63-.63-1.27v-.64Zm2.54,6.35h1.27v1.9c0,.85-.42,1.27-1.27,1.27h-1.91v-1.27c0-.64,.64-1.27,1.91-1.9Zm-.64,17.14l.64,1.27c0,.85-.43,1.27-1.27,1.27l-.64-1.27c.1-.85,.53-1.27,1.27-1.27Zm11.42-47.92h2.54v2.06h-.79c-1.17,0-1.75-.48-1.75-1.43v-.64Zm6.82-.79c1.16,.53,2.01,.79,2.54,.79l1.75-.79c1.16,.53,2.01,.79,2.54,.79l1.75-.79c.95,.53,2.38,.79,4.28,.79v.64c0,.95-.58,1.43-1.75,1.43l-1.75-.63c-1.06,.42-1.9,.63-2.54,.63l-1.75-.63c-.95,.42-2.06,.63-3.33,.63-.64,0-.95-.21-.95-.63-1.8,.95-3.49,1.43-5.08,1.43,0-.63,1.43-1.85,4.28-3.65Zm4.6,9.36h.63c.85,.11,1.27,.53,1.27,1.27v.63c0,.85-.42,1.27-1.27,1.27h-.63l-1.9-1.27c-.85,.43-1.48,.64-1.9,.64v-1.9h.63c.84,.42,1.48,.64,1.9,.64,.1-.84,.53-1.27,1.27-1.27Zm5.08,0h.64c.84,.11,1.27,.53,1.27,1.27v.63l-3.17,.64v-1.27c.1-.84,.53-1.27,1.27-1.27Zm7.46-9.36l.79,1.43c0,.95-.58,1.43-1.75,1.43h-.79c-1.17,0-1.75-.48-1.75-1.43v-.64c.32,0,1.48-.26,3.49-.79Zm-1.11,10h.63l1.27,.64,1.27-.64,1.27,.64,1.27-.64,1.27,.64c.85-.42,1.48-.64,1.9-.64v1.9h-.63l-1.27-.64-1.27,.64-1.27-.64-1.27,.64-1.27-.64c-.85,.43-1.48,.64-1.9,.64v-1.9Zm4.44-9.2v1.43h-1.59c.1-.95,.63-1.43,1.59-1.43Zm4.28,0h.95v.64c0,.95-.58,1.43-1.74,1.43l-.79-1.43,1.59-.64Zm8.57,0v1.43h-1.74c.21-.95,.79-1.43,1.74-1.43Zm8.57,0v1.43h-1.74c.21-.95,.79-1.43,1.74-1.43Zm2.54,.64h1.74v.79h-1.74v-.79Z"/><path class="c" d="M86.32,1.27h2.54v7.62h.63c1.06-2.96,1.9-4.44,2.54-4.44,.85,.11,1.27,.53,1.27,1.27l-1.27,1.9c.85,.11,1.27,.53,1.27,1.27l-.63,3.17,1.27,.64h.64l2.54-1.9c.85,2.54,1.69,3.81,2.54,3.81h.63c2.01-2.96,3.28-4.44,3.81-4.44h.63l.64,3.18-.64,1.27h.64c.84-.42,1.48-.64,1.9-.64l.63,1.27v.63l-.63,1.27h1.9c0-1.27,.42-1.9,1.27-1.9h1.9v3.81l1.27-.64,2.54,1.9c.1-2.54,1.37-3.81,3.81-3.81l1.27,.64,1.27-.64h3.17c.1-2.12,.74-3.17,1.9-3.17h1.9c.84,.11,1.27,.53,1.27,1.27l1.27-.64c.64,0,1.27,.64,1.9,1.9v.64l-.63,1.27c.42,0,1.06,.21,1.9,.64,.1-.84,.53-1.27,1.27-1.27,2.11,1.06,3.17,1.9,3.17,2.54l1.27-.63h.63l1.27,.63,.64-1.27h-1.91v-1.27c0-.64,.64-1.27,1.91-1.9h3.81l3.17,1.9c0-.42,.21-.64,.64-.64,1.27,1.8,1.9,3.49,1.9,5.08-.95,0-2.22,1.27-3.81,3.81-1.48-2.22-3.17-3.7-5.08-4.44-.85,.74-4.23,1.37-10.16,1.9-.85,0-2.33-.42-4.44-1.27,0,.64-.63,1.27-1.9,1.9,0-.84-.42-1.27-1.27-1.27h-.63l-1.9,1.27c-.42,0-.64-.21-.64-.63-.85,.42-1.48,.63-1.9,.63l.64,1.27v.63c0,.85-.42,1.27-1.27,1.27s-1.48-1.27-1.9-3.81h-.63v1.27h-1.9c0-1.27-.43-1.9-1.27-1.9h-.63c-1.91,1.27-3.81,1.9-5.71,1.9v-1.27h-.63v1.27h-1.9v-1.27h-2.54v1.27h-1.27l-1.27-.64c-1.48,1.17-2.96,3.07-4.44,5.71l-3.17,.64c0-.84-.42-1.27-1.27-1.27h-.63c0,.63-.42,1.48-1.27,2.54l1.9,1.27c0-1.27,2.33-2.12,6.98-2.54l.64,1.27v.64l-.64,1.27c1.69,0,2.54,.64,2.54,1.9h.63c0-1.48,.63-3.17,1.9-5.08l1.27,.64h1.9l3.81-.64c2.96,.53,4.44,1.8,4.44,3.81l1.27-.64c.74,.43,1.59,.64,2.54,.64,0-.84,.64-1.27,1.9-1.27,.85,.42,1.48,.63,1.9,.63v-.63c-.42-.74-.63-1.59-.63-2.54v-3.81c.1-.84,.53-1.27,1.27-1.27l4.44,3.81c0,.85-.63,1.27-1.9,1.27,.53,2.12,1.16,3.17,1.9,3.17s1.37-1.9,1.9-5.71c1.37,0,2.43-.21,3.17-.63l.63,1.27-.63,3.81c5.92,1.27,9.1,1.9,9.52,1.9l4.44-.64c-.43-1.69-1.06-3.17-1.9-4.44,0-.85,1.48-1.48,4.44-1.9,2.11,1.8,3.17,3.91,3.17,6.35l3.17-.63c0,.85,.64,1.27,1.91,1.27l4.44-2.54h1.9c1.69,2.12,2.75,3.18,3.17,3.18l-.64,1.27v.64c1.27,0,1.9,.42,1.9,1.27-.63,0-1.27,.85-1.9,2.54l3.17,2.54,3.81-3.18h1.9l2.54,6.98h-.64l-1.27-.64-1.9,2.54v.63c2.11,.32,3.17,.95,3.17,1.9l-.63,1.27c2.54,.21,3.81,.85,3.81,1.9v.64c0,.85-.42,1.27-1.27,1.27h-1.27l-1.9-1.27c0,.85-.43,1.27-1.27,1.27l-1.9-1.27h-3.17l.63,1.27c0,.74-1.06,1.38-3.17,1.9-.74-.42-1.59-.63-2.54-.63l-.63,1.27v.64l1.27,1.9,1.27-.64h1.9c.42,0,.64,.21,.64,.64l1.27-.64,1.27,.64c.74-.42,1.59-.64,2.54-.64,.84,.42,1.48,.64,1.9,.64,.1-.84,.53-1.27,1.27-1.27l1.27,.64,3.81-1.9c2.54,1.69,3.81,2.75,3.81,3.17v.64h.64c0-1.48,1.06-2.54,3.17-3.17l.64,1.27v.64c0,.53-1.48,1.59-4.44,3.17v.64c.42,.74,.64,1.59,.64,2.54-.43,0-.64,.21-.64,.63h.64c2.01,0,4.12-.21,6.35-.63h3.81l-1.27-2.54,1.27-.64c.63,0,1.48,.85,2.54,2.54-.42,.85-.63,1.48-.63,1.9,.85,.11,1.27,.53,1.27,1.27l-.64,1.27-3.17-.64h-.64v.64l.64,1.27c-.85,.42-1.48,.64-1.9,.64l2.54,2.54v.64c0,.42-.21,.64-.63,.64,.42,.74,.84,2.65,1.27,5.71,1.69-1.27,2.96-1.9,3.81-1.9,1.48,2.54,2.96,3.81,4.44,3.81,.84-.42,1.48-.64,1.9-.64l.63,1.27c0,.85-.63,1.27-1.9,1.27v.63c2.11,.11,3.17,.74,3.17,1.9,0,.85-.42,1.27-1.27,1.27-.85-.42-1.48-.64-1.9-.64l-.63,1.27,.63,1.27c-.74,.42-1.8,.63-3.17,.63l5.08,3.18v.64h1.27c.85,0,1.27-.42,1.27-1.27-.85,0-1.27-.42-1.27-1.27l1.27-.64,3.17,4.44v.64l-.63,1.27c1.9,0,3.17,1.9,3.81,5.71-.85,.42-1.48,.64-1.9,.64-.85-.42-1.48-.64-1.9-.64l-.63,1.27c1.9,1.69,2.96,2.54,3.17,2.54l3.17-.64,6.35,10.16,1.27-.64h.64c.42,0,.63,.21,.63,.64l1.27-.64h.63c.42,0,.63,.21,.63,.64l1.27-.64h.64c.42,0,.63,.21,.63,.64l1.27-.64h.63c.42,0,.63,.21,.63,.64,.85-.42,1.48-.64,1.9-.64,1.37,.85,2.43,1.27,3.17,1.27,.1-.84,.53-1.27,1.27-1.27h.63c.42,0,.63,.21,.63,.64l1.27-.64h.63c.42,0,.64,.21,.64,.64l1.27-.64h.63c.84,.11,1.27,.53,1.27,1.27v.63c-.95,0-1.8,.21-2.54,.64l-1.27-.64-1.27,.64-1.27-.64-1.27,.64-1.27-.64c-.85,.43-1.48,.64-1.9,.64v-.64c-1.38,.85-2.65,1.27-3.81,1.27-.85,0-1.27-.42-1.27-1.27l-1.27,.64h-1.9l-3.17-.64c-1.69,1.48-2.54,2.54-2.54,3.18h-1.9v-1.27h-.63v1.27h-1.9c0-1.27-.85-1.9-2.54-1.9,0,1.27-2.33,1.9-6.98,1.9h-.63v-1.27h-2.54v.64c1.27,0,1.9,.42,1.9,1.27v.63c-2.22,2.96-4.13,4.44-5.71,4.44-.85-.42-1.48-.64-1.91-.64,0,.42-.21,.64-.63,.64,0-.84-.42-1.27-1.27-1.27l-.63,3.17c1.8,0,3.7,.64,5.71,1.9,0-1.06,.85-1.69,2.54-1.9,1.69,.64,2.54,1.27,2.54,1.9-.42,.85-.63,1.48-.63,1.9,2.11,.32,3.17,1.38,3.17,3.17,.64,0,1.27-.84,1.9-2.54-1.9-.85-2.96-1.69-3.17-2.54l1.9-2.54c3.81,1.59,5.71,2.65,5.71,3.18l-.63,1.27c5.5,1.17,8.25,2.22,8.25,3.17v1.27c-.42,1.27-1.69,1.9-3.81,1.9v-.64c-1.69,0-2.54,1.48-2.54,4.44,1.27,0,1.9,.42,1.9,1.27s-.43,1.27-1.27,1.27l-1.27-.63c0,.85-.42,1.27-1.27,1.27h-1.91v-1.27h-.63v1.27l3.17,1.27-.63,3.18c.42,.85,.63,1.48,.63,1.9-2.75,3.39-4.66,5.08-5.71,5.08,2.54,1.9,3.81,3.81,3.81,5.71l-1.27,.64h-1.27c-.85,0-1.27-.84-1.27-2.54h-2.54l-2.54,2.54c-.85,0-1.27-.64-1.27-1.9l-3.81,2.54-2.54-.64-3.17,.64-1.27-.64c-.85,.42-1.48,.64-1.9,.64l-3.17-.64c-.85,.42-1.48,.64-1.9,.64v-.64c-.85,.42-1.48,.64-1.9,.64l-5.71-.64c-.85,0-2.33,.42-4.44,1.27-4.34-.42-7.72-.63-10.16-.63h-2.54c-5.5-3.18-8.25-8.04-8.25-14.6,.42,0,.64-.21,.64-.64l1.27,.64h1.27c0-2.43-1.48-4.97-4.44-7.62v-.64c0-1.05,.84-1.69,2.54-1.9v-1.27l-3.17,.64c-1.06,0-1.69-.85-1.9-2.54l-4.44,3.81c-.85,0-1.27-.42-1.27-1.27l-1.27,.63h-1.27l-1.27-.63c0,.85-.42,1.27-1.27,1.27l-2.54-1.9h-3.17v-1.27l-1.9,1.27h-1.27v-1.27l-1.9,1.27h-1.27v-1.27c.1-.85,.53-1.27,1.27-1.27l-.64-1.27v-.64h3.17l-.63-3.17,1.9-1.27h.63c.63,0,1.27,.85,1.9,2.54,1.37-.84,2.64-1.27,3.81-1.27h5.71l4.44-.64c0,.74,1.06,1.38,3.17,1.9,0-1.69,1.27-2.75,3.81-3.17h1.9l1.27-1.9-1.9-1.27c0,.85-.42,1.27-1.27,1.27h-1.27c-1.59-2.12-2.86-3.17-3.81-3.17l-1.27-.64c-2.96,1.37-4.44,3.28-4.44,5.71h-1.27v-1.9c0-.42,.21-.64,.63-.64,0-1.59-1.27-2.64-3.81-3.17-.42,0-.63,.21-.63,.64-7.2,0-10.79-1.06-10.79-3.18-.85,0-1.27-.21-1.27-.64-.74,0-2.22,1.27-4.44,3.81h-1.27c-.63,0-1.27-.64-1.9-1.9l.63-1.27-4.44-.64-3.17,.64-3.17-.64-4.44,.64v.64c4.23,0,6.35,.64,6.35,1.9-2.33,0-4.23,1.27-5.71,3.81-1.48-.84-2.54-2.12-3.17-3.81l1.27-2.54c-1.27,0-1.9-.21-1.9-.64l-1.27,.64h-2.54c-.95,0-1.8-.21-2.54-.64-.74,.43-1.59,.64-2.54,.64h-2.54c-.42,0-.63-.21-.63-.64-.85,.43-1.48,.64-1.9,.64l.63,3.18-1.27,.63h-1.27l-1.27-.63v.63c.84,.85,1.27,2.75,1.27,5.71l1.9-1.27,5.08,4.44c0-1.48,2.33-2.54,6.98-3.18l1.27,1.9v1.27l-.63,1.27c.84,.11,1.27,.53,1.27,1.27l-1.27,.64h-.64c-.63,0-1.27-.64-1.9-1.9l.64-1.27c-.95,0-1.8-.21-2.54-.64-.74,.42-1.59,.64-2.54,.64v.63h2.54l-.63,3.18c.84,.11,1.27,.53,1.27,1.27,0,.85-.64,1.27-1.9,1.27-.85-.42-1.48-.63-1.91-.63,0,.53-1.06,1.59-3.17,3.17-.85,0-1.27-.42-1.27-1.27,.85,0,1.27-.42,1.27-1.27l-1.27-1.9c.85,0,1.27-.42,1.27-1.27v-.64h-1.27l-3.17,.64,.64,1.27c0,.95-.21,1.8-.64,2.54,.42,.74,.64,1.59,.64,2.54-.43,0-.64,.21-.64,.63h.64l1.27-.63,1.27,1.9-4.44,7.62c-.21,0-1.48,1.27-3.81,3.81l.63,1.27v.64h-1.27v-1.27l-1.27,.63,2.54,3.18c0,.32-1.9,1.8-5.71,4.44h-.64c-.85,0-1.27-.63-1.27-1.9h-1.27c0,1.69-.63,2.54-1.9,2.54-2.65-.84-4.34-1.27-5.08-1.27-1.69,.85-2.96,1.27-3.81,1.27-4.66,0-6.98-.84-6.98-2.54h-.63c0,1.69-.42,2.54-1.27,2.54h-1.27c-.43,0-.64-.21-.64-.64l-1.27,.64h-1.9c-2.22,0-4.12-.64-5.71-1.9,0,.85-.42,1.27-1.27,1.27h-.64c-.32,0-1.38-1.06-3.17-3.17v.64l.63,1.27-2.54,1.9v-.64l-1.27,.64h-.64c-.85,0-1.27-.84-1.27-2.54-1.38,0-2.86,.64-4.44,1.9-.21,0-1.27-.84-3.17-2.54v1.27h-1.27c-.85,0-1.27-.64-1.27-1.9l-1.9,1.27h-1.27v-1.27h-.63v1.9h1.27v.64c0,.85-.42,1.27-1.27,1.27h-1.27c-.85,0-1.27-.42-1.27-1.27v-.64h1.27v-.64h-1.27c-.85,.42-1.48,.64-1.9,.64,0-.84-.42-1.27-1.27-1.27h-.63v1.27h-.64l-2.54-1.9v1.27c-.95,0-1.8-.21-2.54-.63-.85,.42-1.48,.63-1.91,.63,0-.84-.42-1.27-1.27-1.27,0,.85-.42,1.27-1.27,1.27h-.63v-.63c0-1.06,.84-1.69,2.54-1.9,.85,.42,1.48,.63,1.9,.63l.64-1.27v-.64h-.64v1.27h-1.27c0-1.27-.42-1.9-1.27-1.9-.42,.85-.64,1.48-.64,1.9h-1.27c0-1.27-.42-1.9-1.27-1.9-.42,.85-.63,1.48-.63,1.9-.85,0-1.27-.42-1.27-1.27,0-.63,.63-1.27,1.9-1.9h1.27v1.27h1.27v-1.27h1.9v1.27c.64,0,1.27-.64,1.91-1.9v-.64h-.64v1.27h-1.27v-1.27h-1.9v1.27h-1.27c0-.63-.42-1.48-1.27-2.54v-.64h1.27v1.27c1.06-.84,2.11-1.27,3.17-1.27,0-.84-.42-1.27-1.27-1.27h-.64v1.27h-1.27v-.64c.42-.95,1.9-3.07,4.44-6.35-.42-.74-.63-1.59-.63-2.54l3.81-3.81c-.42-.85-.63-1.48-.63-1.9,2.54-3.81,4.23-5.71,5.08-5.71l-.63-3.18c.63,0,1.9-1.27,3.81-3.81-.42-.84-.63-1.48-.63-1.9l1.27,.64h.64l-1.27-1.9c2.54-2.12,3.81-3.81,3.81-5.08-.42-.84-.63-1.48-.63-1.9,.63,0,2.96-2.54,6.98-7.62l-.64-1.27h2.54v-.64h-1.9v-.63l2.54-3.18c-.42-.84-.63-1.48-.63-1.9,.42,0,.63-.21,.63-.63l1.27,.63h1.27v-1.27l-1.27,.64h-.64v-.64c2.54-3.07,4.02-6.03,4.44-8.89,2.33-2.54,3.81-3.81,4.44-3.81l-1.27-1.9,5.71-6.98c-.85,0-1.27-.42-1.27-1.27,2.54-2.54,3.81-4.23,3.81-5.08-.42-.84-.63-1.48-.63-1.9,2.96-1.9,4.44-4.02,4.44-6.35-.42,0-.63-.21-.63-.64,3.38-2.64,5.08-4.97,5.08-6.98-.43,0-.64-.21-.64-.63,1.8-.95,3.07-2.64,3.81-5.08l-.63-1.27c2.96-3.81,4.86-5.71,5.71-5.71v-.63l-1.27-1.9c.64,0,2.33-1.9,5.08-5.71l-.63-1.27c3.59-4.34,5.71-7.93,6.35-10.79h-3.17l-1.9,1.27-1.91-1.27c-2.33,.42-4.02,.63-5.08,.63-.42,0-.64-.21-.64-.63l-3.17,.63c-.64,0-4.02-.21-10.16-.63l-1.27,.63c-2.54-.32-3.81-.95-3.81-1.9l-1.9,1.27h-3.17v-1.27h-.64v1.27h-1.27l-2.54-1.9-4.44,.63c0-.84-.43-1.27-1.27-1.27h-5.08v-.64c.1-.84,.53-1.27,1.27-1.27l1.27,.64,1.27-.64c.42,0,.64,.21,.64,.64,3.59-.85,5.71-1.27,6.35-1.27v.64l1.27-.64,3.17,.64,3.17-.64c0,.42,.21,.64,.64,.64,.1-.84,.53-1.27,1.27-1.27h.64c.42,0,.63,.21,.63,.63l1.27-.63h5.08c1.37,0,2.43-.21,3.17-.64l3.81,.64h7.62l1.9-1.27c.42,0,.64,.21,.64,.64l1.27-.64c.95,0,1.8,.21,2.54,.64,5.08-.32,7.62-.95,7.62-1.9h-.63c-.85,.42-1.48,.64-1.9,.64v-1.9c1.69,0,2.54-.64,2.54-1.9h.63c.32,3.38,.95,5.08,1.9,5.08h1.27c2.96-2.96,4.86-4.44,5.71-4.44-.85-1.06-1.27-1.9-1.27-2.54,.42-.85,.63-1.48,.63-1.91h-.63c-1.69,0-2.54,.64-2.54,1.91h-.63v-1.91l1.27-1.9c-.43-.74-.64-1.59-.64-2.54,1.27,0,1.9-1.27,1.9-3.81ZM1.9,162.49h1.27v1.27c-.64,0-1.48,.42-2.54,1.27H0v-.63c0-.64,.63-1.27,1.9-1.9Zm5.71-7.62v1.27h.64v-1.27h-.64Zm1.9-1.9v1.27h.64v-1.27h-.64ZM13.96,20.31c.74,.42,1.59,.64,2.54,.64v1.27l-3.17,.64-1.27-.64c-.85,.42-1.48,.64-1.9,.64v-1.9l3.81-.64Zm-3.81,128.21v.63h1.27v-.63h-1.27Zm.63,6.35v1.27h.63v-1.27h-.63Zm0,3.17v1.27h.63v-1.27h-.63Zm0,3.17v1.27h.63v-1.27h-.63Zm.63-19.68v.64c.64,0,1.27-.64,1.9-1.9v-.64c-.63,0-1.27,.64-1.9,1.9Zm1.9,6.98l-.63,1.27v.64h.63c0-.84,.42-1.27,1.27-1.27v-.63h-1.27Zm-.63,10.79v1.27h.63v-1.27h-.63Zm1.27-1.27v1.27h.63v-1.27h-.63Zm0,2.54v1.9h.63v-1.9h-.63Zm.63-19.04v.64c.85,0,1.27-.42,1.27-1.27v-.64c-.85,.11-1.27,.53-1.27,1.27Zm1.27-8.88v.64h1.27v-.64h-1.27Zm1.27-111.71h1.9v1.27h-1.9v-1.27Zm0,137.1v1.27h.64v-1.27h-.64Zm0,2.54v1.27h.64v-1.27h-.64Zm1.9-31.1v.63h1.27v-.63h-1.27Zm1.27-1.9c.1,.85,.53,1.27,1.27,1.27v-1.27h-1.27Zm0,33.01v1.9h.63v-1.9h-.63Zm9.52,.63v1.27h.64v-1.27h-.64Zm5.08-59.03v.63h1.27v-.63h-1.27Zm7.62,58.39v1.27h.64v-1.27h-.64Zm2.06-34.59h1.27v1.27h-1.27v-1.27Zm1.27-3.81v1.27h1.27v-1.27h-1.27Zm1.75-29.51v1.27h.63v-1.27h-.63Zm1.43,32.69v1.27h.63c.84,0,1.27-.42,1.27-1.27v-.64c-.85,.42-1.48,.64-1.9,.64Zm3.17,0v1.27h.64c.84,0,1.27-.42,1.27-1.27v-.64c-.85,.42-1.48,.64-1.9,.64Zm3.65-61.25v.64h1.27v-.64h-1.27Zm.63,95.21v.64h1.27v-.64h-1.27Zm1.27,1.27v1.27h.63v-1.27h-.63Zm3.81-102.83c.1,.85,.53,1.27,1.27,1.27v-1.27h-1.27Zm.79,66.96v1.27c1.37,0,2.43,.21,3.17,.64v-1.27l-3.17-.64Zm1.75,39.04v.64h1.27v-.64h-1.27Zm3.81-106v1.27h.64v-1.27h-.64Zm.16,68.23v.64h.63c.85,0,1.27-.42,1.27-1.27v-.64h-.63c-.85,.11-1.27,.53-1.27,1.27Zm12.06-.63v.63h3.17v.64c0,.85-.42,1.27-1.27,1.27h-4.44l-3.81,.64c-1.69-.84-3.17-1.27-4.44-1.27l-.64,1.27,1.27,.64h3.81v3.17h2.54v-.64l-.64-1.27,1.27-.64h4.44c1.69,2.12,2.75,3.18,3.17,3.18h.63v-1.27c-1.27,0-1.9-.42-1.9-1.27l2.54-1.9c-.42-.84-.64-1.48-.64-1.9,.42-.84,.64-1.48,.64-1.9-.85,0-1.27-.64-1.27-1.9-2.12,1.69-3.6,2.54-4.44,2.54Zm-6.35,0c.1,.85,.53,1.27,1.27,1.27l.63-1.27v-.64c-.85,.42-1.48,.64-1.9,.64Zm.63-3.18v1.27c.85,0,1.27-.42,1.27-1.27h-1.27Zm1.75-96.16v1.27c.84,0,1.27-.42,1.27-1.27h-1.27Zm1.9-1.27v.63h1.27v-.63h-1.27Zm3.81,5.08v.64h1.27v-.64h-1.27Zm.63-5.08v.63h4.44v-.63h-4.44Zm0,53.31v1.27h.64v-1.27h-.64Zm2.54,72.36v1.27h1.27c0-.84-.42-1.27-1.27-1.27Zm2.06-28.25v1.27h.64v-1.27h-.64Zm4.92-65.06c0,1.48-1.06,3.39-3.17,5.71,2.11,0,3.17,.64,3.17,1.9h.64v-.64l-.64-1.27c.42-.84,.64-1.48,.64-1.9l-.64-1.27c.42-.84,.64-1.48,.64-1.9v-.63h-.64Zm-3.17,19.68v1.27h.63v-1.27h-.63Zm0,4.44v.64c.84,0,1.27-.42,1.27-1.27v-.64c-.85,.11-1.27,.53-1.27,1.27Zm0,40.62v1.27h.63v-1.27h-.63Zm.63-107.9c.42,.74,.63,1.8,.63,3.18h1.9c-.85-1.37-1.27-2.64-1.27-3.81l-1.27,.63Zm1.27,12.06v.64l3.17,.63,1.27-.63,1.27,.63h.63v-.63c-.85,0-1.27-.21-1.27-.64,.42-.84,.64-1.48,.64-1.9l-5.71,1.9ZM107.9,0c2.11,.53,3.17,1.17,3.17,1.9l-5.08,4.44-2.54-3.17h-.64l-3.17,3.17-2.54-2.54c-1.48,.43-2.33,.64-2.54,.64-1.69-.64-2.54-1.27-2.54-1.9,0-1.37,5.29-2.22,15.87-2.54Zm-13.96,123.77h2.54c.84,.11,1.27,.53,1.27,1.27-2.12,.85-3.81,1.27-5.08,1.27l-.64-1.27,1.9-1.27Zm-.63-43.16v.63h2.54c-.42-.84-.63-1.48-.63-1.9h-.63c-.85,.11-1.27,.53-1.27,1.27Zm.63-48.24v.63l2.54,.64h1.27v-.64c-1.38,0-2.44-.21-3.17-.63h-.64Zm0,106v.64h1.27v-.64h-1.27Zm.64,4.44c.84,.11,1.27,.53,1.27,1.27h-1.27v-1.27ZM97.11,7.62c.85,.11,1.27,.53,1.27,1.27,0,.85-.42,1.27-1.27,1.27s-1.27-.42-1.27-1.27c.1-.84,.53-1.27,1.27-1.27Zm-1.27,50.78l1.27,1.9c2.22-.84,3.91-1.27,5.08-1.27v-1.27l-1.27,.64-2.54-.64c-.74,.43-1.59,.64-2.54,.64Zm.64-3.17v.63h1.27v-.63h-1.27Zm1.27,19.68l-.64,2.54,1.27,.64c.84-.42,1.48-.64,1.9-.64,0-.63-.85-1.48-2.54-2.54Zm2.54,67.91c.84,.11,1.27,.53,1.27,1.27v.64c0,.63-.64,1.27-1.9,1.9l-1.27-.64c.53-2.12,1.16-3.17,1.9-3.17Zm6.35-116.15l.64,1.27c0,.85-.42,1.27-1.27,1.27h-1.27c-.85,0-1.27-.42-1.27-1.27l3.17-1.27Zm.64,116.15h.63c.85,.11,1.27,.53,1.27,1.27l-1.9,1.27c-.85,0-1.27-.42-1.27-1.27,.1-.84,.53-1.27,1.27-1.27Zm0-88.23v1.27l1.27-.63,.64,1.27c0,1.27-.85,1.9-2.54,1.9v.64h.64c.84-.42,1.48-.64,1.9-.64,0,.64,.63,1.27,1.9,1.9,.1-.84,.53-1.27,1.27-1.27,.53,0,2.64,.63,6.35,1.9l1.27-2.54-3.17-.64h-4.44l-3.17-3.17h-1.9Zm13.96,77.43h1.27c.63,0,1.27,.64,1.9,1.9-4.44,5.08-7.2,7.62-8.25,7.62h-.64c-.42,0-.63-.21-.63-.63-1.27,.42-1.9,.85-1.9,1.27,.42,.85,.63,1.48,.63,1.9l-1.27,.64h-1.27c-.85,0-1.27-.42-1.27-1.27,.63,0,1.27-.63,1.9-1.9v-.63c-1.27,0-1.9-.42-1.9-1.27,.85,0,1.27-.42,1.27-1.27-2.54,0-3.81-.64-3.81-1.9v-.64c.1-.84,.53-1.27,1.27-1.27h1.9v1.27h.64v-.63c-.42-.74-.64-1.59-.64-2.54h1.9l3.81,3.17,5.08-3.81Zm-13.33-99.65c0,.63,1.27,1.9,3.81,3.81-.85-1.37-1.27-2.64-1.27-3.81h-2.54Zm6.35,43.16c0,1.8-.85,3.49-2.54,5.08l2.54,.63,2.54-1.27,1.27,1.9v.64c0,2.22-1.69,5.82-5.08,10.79l.63,1.27c-3.81,8.46-5.71,13.75-5.71,15.87,4.44,1.69,8.46,2.54,12.06,2.54,8.04,0,12.06-1.9,12.06-5.71-1.27-2.01-2.75-5.18-4.44-9.52,.42-.84,.63-1.48,.63-1.9l-8.25-17.14c.84,0,1.27-.42,1.27-1.27-1.59,0-3.28-.63-5.08-1.9h-1.9Zm-6.35,64.11h.63v1.27h-.63v-1.27ZM112.98,1.27c.84,.11,1.27,.53,1.27,1.27l-1.27,.64c-.85,0-1.27-.42-1.27-1.27l1.27-.63Zm-.64,50.77v.64h1.91l.63-1.27h-.63c-.85,.43-1.48,.64-1.91,.64Zm5.08,71.09h1.27v.64c0,.85-.42,1.27-1.27,1.27s-1.27-.42-1.27-1.27l1.27-.64Zm0,19.68h.64v1.27h-.64v-1.27Zm3.81-3.81h1.9c.85,.11,1.27,.53,1.27,1.27,0,.85-.42,1.27-1.27,1.27h-1.27c-.64,0-1.27-.63-1.9-1.9l1.27-.63Zm.64-131.39h.63c.85,.11,1.27,.53,1.27,1.27l-1.27,.63h-.63c-.85,0-1.27-.42-1.27-1.27l1.27-.64Zm1.27-7.62h1.27c.63,0,1.27,.64,1.9,1.9,0,.64-.63,1.27-1.9,1.9h-.63c-.64,0-1.27-.63-1.9-1.9v-.63c.1-.85,.53-1.27,1.27-1.27Zm-1.27,74.26v.64h1.27v-.64h-1.27Zm1.27-16.5v1.27c1.06,0,2.12,.42,3.17,1.27l.63-1.27v-.64c-.32,0-1.59-.21-3.81-.64Zm1.27,22.22l-1.27,1.9h3.17c.85,0,1.27-.42,1.27-1.27l-3.17-.64Zm4.44,53.95l.63,1.27c0,.53-1.06,1.59-3.17,3.17h-1.9c-.85,0-1.27-.42-1.27-1.27v-1.27c2.12,0,4.02-.63,5.71-1.9Zm-5.08-11.42v.64h2.54v-.64h-2.54ZM130.75,0h4.44c.63,0,1.27,.64,1.9,1.9,0,.74-1.06,1.38-3.17,1.9-2.96-.42-4.44-1.05-4.44-1.9v-.63c.1-.85,.53-1.27,1.27-1.27Zm8.88,57.76c-.42-.84-.63-1.48-.63-1.9-.85,.43-1.48,.64-1.9,.64-.85-.42-1.48-.64-1.9-.64-.21,.85-1.27,1.69-3.17,2.54-.74-.42-1.59-.64-2.54-.64v1.27c.42,0,.63-.21,.63-.64,4.44,1.27,7.19,1.9,8.25,1.9h1.27l6.35-.64v-.63l-1.27-1.9v-1.27l2.54-.63,1.9,2.54c-.43,.85-.64,1.48-.64,1.9h1.9l1.9-1.27h1.9l2.54,1.9h3.17c0-1.27-2.75-2.54-8.25-3.81v-.64l.63-1.27c-1.48-.32-2.59-.69-3.33-1.11-.74-.42-1.11-.9-1.11-1.43l-.63,.64c-.21,.32-.48,.64-.79,.95-2.22,2.75-4.5,4.12-6.82,4.12Zm-5.08,84.42h3.17v1.27c0,.85-.42,1.27-1.27,1.27h-1.9c-.85,0-1.27-.42-1.27-1.27,.1-.84,.53-1.27,1.27-1.27Zm-.64-68.55v.64l3.17,.64v-1.27h-3.17Zm0,6.35v.64h1.27v-.64h-1.27Zm.64,46.33h1.27c.85,.11,1.27,.53,1.27,1.27,0,.85-.42,1.27-1.27,1.27s-1.27-.42-1.27-1.27v-1.27Zm3.81-99.65h.63c.85,.11,1.27,.53,1.27,1.27,0,.85-.42,1.27-1.27,1.27h-.63c-.85,0-1.27-.42-1.27-1.27,.1-.84,.53-1.27,1.27-1.27Zm1.27-26.66h1.27c1.06,0,2.96,.42,5.71,1.27,1.37-.85,2.64-1.27,3.81-1.27h1.27c2.54,.21,3.81,.85,3.81,1.9,0,1.27-2.12,1.9-6.35,1.9l-1.27-.63-1.27,.63c-.85-.42-1.48-.63-1.9-.63l-3.17,.63c-2.12-.42-3.17-1.48-3.17-3.17l1.27-.64Zm1.9,76.8v.63c.42,0,1.06,.21,1.91,.64v-1.27h-1.91Zm7.62,3.81v.63h.63c.74-.42,1.59-.63,2.54-.63v-.64h-1.27c-.85,.42-1.48,.64-1.9,.64Zm6.98-61.57h.64c.84,.11,1.27,.53,1.27,1.27v.64l-3.17,.63v-1.27c.1-.84,.53-1.27,1.27-1.27Zm.64,106.63v.63h1.27v-.63h-1.27Zm4.44-109.17c.85,0,1.27,.64,1.27,1.9-.63,1.69-1.27,2.54-1.9,2.54h-1.27l-.63-2.54,2.54-1.9Zm1.9-15.87h.64c.84,.11,1.27,.53,1.27,1.27,0,.85-.42,1.27-1.27,1.27h-.64c-.85,0-1.27-.42-1.27-1.27,.1-.84,.53-1.27,1.27-1.27Zm-.63,19.04h1.9c.95,0,1.8,.21,2.54,.64l1.27-.64,1.27,.64c.84-.42,1.48-.64,1.9-.64v1.9h-.64l-1.27-.63-1.27,.63c-.85-.42-1.48-.63-1.9-.63,0,.85-.63,1.27-1.9,1.27-.85-.42-1.48-.64-1.9-.64v-1.9Zm1.9,109.17v.64c.42,.85,.63,1.48,.63,1.9h.64v-1.9l-1.27-.64Zm3.81-54.59l-.63,3.17,1.27,.64c.42-.84,.64-1.48,.64-1.9-.42-.84-.64-1.48-.64-1.9h-.63Zm0,55.85v1.27h.63v-1.27h-.63Zm4.44-97.11h.63c.84,.11,1.27,.53,1.27,1.27,0,.85-.43,1.27-1.27,1.27h-.63c-.85,0-1.27-.42-1.27-1.27,.1-.84,.53-1.27,1.27-1.27Zm-.64,107.9v.63h1.27v-.63h-1.27Zm1.27-12.06c.84,1.06,1.27,2.12,1.27,3.17h.63v-1.27c-.42-.84-.63-1.48-.63-1.9h-1.27Zm.63-87.59v.64h1.27v-.64h-1.27Zm4.44-2.54c.63,0,1.27,.64,1.9,1.91l-.64,1.27c-.74-.42-1.59-.64-2.54-.64v-1.27c.1-.84,.53-1.27,1.27-1.27Zm3.81-5.71c1.59,0,2.64,2.54,3.17,7.62l-1.27,.63h-.64c-.53,0-1.59-1.48-3.17-4.44,.42-2.54,1.06-3.81,1.9-3.81Zm-.64,15.87h1.9c.42,0,1.48,1.48,3.17,4.44-2.54,.53-3.81,1.17-3.81,1.9h1.9v1.27h-1.9c-.95,0-1.8-2.33-2.54-6.98l1.27-.64Zm-.63,28.56v1.27h1.27v-1.27h-1.27Zm3.81-6.98c0,.74-.63,1.8-1.9,3.17,2.11,0,3.81,2.33,5.08,6.98,.84-.42,1.48-.64,1.9-.64s.63,.21,.63,.64c1.69-.42,3.38-.64,5.08-.64,0-.42-.85-1.69-2.54-3.81l.63-3.17h-.63c-.95,0-1.8,.21-2.54,.63l-5.71-3.17Zm3.81,89.5v.64h1.27v-.64h-1.27Zm3.81-107.9l1.27,1.9v1.27c0,.85-.42,1.27-1.27,1.27h-.63c-.85,0-1.27-.42-1.27-1.27,.53-2.12,1.16-3.18,1.9-3.18Zm-1.9,88.23v1.27h.64v-1.27h-.64Zm1.27-8.25v.64h1.27v-.64h-1.27Zm3.17-3.17v1.27h.63v-1.27h-.63Zm4.44,12.06c0,.63,.63,1.27,1.9,1.9,.85-.42,1.48-.64,1.9-.64v-1.27h-3.81Zm0,6.35v.64h1.27v-.64h-1.27Zm4.44,12.7v.64l2.54,.63c.84-.42,1.48-.63,1.9-.63,0,.42,.21,.63,.63,.63v-.63c0-.85-.63-1.27-1.9-1.27l-3.17,.64Zm1.9-15.87v.64h1.27v-.64h-1.27Zm2.54-1.27v1.9h2.54c-.85-1.37-1.27-2.43-1.27-3.18-.85,.11-1.27,.53-1.27,1.27Zm.63-31.74v1.27h1.27c0-.84-.42-1.27-1.27-1.27Zm.64,35.54c0,.42-.21,1.06-.64,1.9,.42,.74,.64,1.59,.64,2.54h3.17c-.74-2.96-1.59-4.44-2.54-4.44h-.63Zm1.27-8.89v.64h1.27v-.64h-1.27Zm1.27,22.85v1.27h.63v-1.27h-.63Zm.63-20.31l1.27,1.9v.64c0,.85-.42,1.27-1.27,1.27,.42,.85,.64,1.48,.64,1.9,.84,0,1.48-1.69,1.9-5.08l-1.27-.64h-1.27Zm1.9-28.56v3.17c.64,0,1.48-.84,2.54-2.54-.95,0-1.8-.21-2.54-.63Zm3.17,3.17v.64h1.27v-.64h-1.27Zm7.62,43.8c0,.21,1.06,1.48,3.17,3.81v.63c0,.85-.42,1.27-1.27,1.27h-1.9c-4.66-.64-6.98-1.48-6.98-2.54,.1-.84,.53-1.27,1.27-1.27l2.54,.63,3.17-2.54Zm-5.71-39.99v.64h1.27v-.64h-1.27Zm10.79,30.47h.63v1.9l.64,3.18c-4.02,1.69-6.35,2.54-6.98,2.54-.74-.42-1.59-.64-2.54-.64,0,.42-.21,.64-.64,.64l-.63-1.27c.1-.84,.53-1.27,1.27-1.27l-.64-1.27v-1.27h1.27v1.9l1.9-1.27h.63c.42,0,.64,.21,.64,.64,.53,0,2.01-1.27,4.44-3.81Zm-6.98-3.17h1.27v1.27h-1.27v-1.27Zm3.81-3.17c.85,.11,1.27,.53,1.27,1.27l-1.27,.64c-.85,0-1.27-.42-1.27-1.27l1.27-.63Zm.64-4.44h1.27v1.27h-1.27v-1.27Zm1.9,5.08h1.27c0,1.38,.21,2.44,.64,3.18l-1.27,.63h-.63c-.85,0-1.27-.42-1.27-1.27v-1.27c.1-.85,.53-1.27,1.27-1.27Zm.63-9.52h.63c.85,.11,1.27,.53,1.27,1.27l-1.27,.63-.63-1.27v-.64Zm2.54,6.35h1.27v1.9c0,.85-.42,1.27-1.27,1.27h-1.91v-1.27c0-.64,.64-1.27,1.91-1.9Zm-.64,17.14l.64,1.27c0,.85-.43,1.27-1.27,1.27l-.64-1.27c.1-.85,.53-1.27,1.27-1.27Zm11.42-47.92h2.54v2.06h-.79c-1.17,0-1.75-.48-1.75-1.43v-.64Zm6.82-.79c1.16,.53,2.01,.79,2.54,.79l1.75-.79c1.16,.53,2.01,.79,2.54,.79l1.75-.79c.95,.53,2.38,.79,4.28,.79v.64c0,.95-.58,1.43-1.75,1.43l-1.75-.63c-1.06,.42-1.9,.63-2.54,.63l-1.75-.63c-.95,.42-2.06,.63-3.33,.63-.64,0-.95-.21-.95-.63-1.8,.95-3.49,1.43-5.08,1.43,0-.63,1.43-1.85,4.28-3.65Zm4.6,9.36h.63c.85,.11,1.27,.53,1.27,1.27v.63c0,.85-.42,1.27-1.27,1.27h-.63l-1.9-1.27c-.85,.43-1.48,.64-1.9,.64v-1.9h.63c.84,.42,1.48,.64,1.9,.64,.1-.84,.53-1.27,1.27-1.27Zm5.08,0h.64c.84,.11,1.27,.53,1.27,1.27v.63l-3.17,.64v-1.27c.1-.84,.53-1.27,1.27-1.27Zm7.46-9.36l.79,1.43c0,.95-.58,1.43-1.75,1.43h-.79c-1.17,0-1.75-.48-1.75-1.43v-.64c.32,0,1.48-.26,3.49-.79Zm-1.11,10h.63l1.27,.64,1.27-.64,1.27,.64,1.27-.64,1.27,.64c.85-.42,1.48-.64,1.9-.64v1.9h-.63l-1.27-.64-1.27,.64-1.27-.64-1.27,.64-1.27-.64c-.85,.43-1.48,.64-1.9,.64v-1.9Zm4.44-9.2v1.43h-1.59c.1-.95,.63-1.43,1.59-1.43Zm4.28,0h.95v.64c0,.95-.58,1.43-1.74,1.43l-.79-1.43,1.59-.64Zm8.57,0v1.43h-1.74c.21-.95,.79-1.43,1.74-1.43Zm8.57,0v1.43h-1.74c.21-.95,.79-1.43,1.74-1.43Zm2.54,.64h1.74v.79h-1.74v-.79Z"/></svg>