<?xml version="1.0" encoding="UTF-8"?><svg id="a" xmlns="http://www.w3.org/2000/svg" xmlns:xlink="http://www.w3.org/1999/xlink" viewBox="0 0 198.87 63.89"><defs><style>.c{fill:url(#b);}</style><linearGradient id="b" x1="0" y1="31.95" x2="159.8" y2="31.95" gradientTransform="matrix(1, 0, 0, 1, 0, 0)" gradientUnits="userSpaceOnUse"><stop offset="0" stop-color="#333"/><stop offset=".5" stop-color="#f15a24" stop-opacity=".85"/><stop offset="1" stop-color="#333"/></linearGradient></defs><g><path d="M31.03,4.11h.91v2.74h.23c.38-1.06,.68-1.6,.91-1.6,.3,.04,.46,.19,.46,.46l-.46,.68c.3,.04,.46,.19,.46,.46l-.23,1.14,.46,.23h.23l.91-.68c.3,.91,.61,1.37,.91,1.37h.23c.72-1.06,1.18-1.6,1.37-1.6h.23l.23,1.14-.23,.46h.23c.3-.15,.53-.23,.68-.23l.23,.46v.23l-.23,.46h.68c0-.46,.15-.68,.46-.68h.68v1.37l.46-.23,.91,.68c.04-.91,.49-1.37,1.37-1.37l.46,.23,.46-.23h1.14c.04-.76,.27-1.14,.68-1.14h.68c.3,.04,.46,.19,.46,.46l.46-.23c.23,0,.46,.23,.68,.68v.23l-.23,.46c.15,0,.38,.08,.68,.23,.04-.3,.19-.46,.46-.46,.76,.38,1.14,.68,1.14,.91l.46-.23h.23l.46,.23,.23-.46h-.69v-.46c0-.23,.23-.46,.69-.68h1.37l1.14,.68c0-.15,.08-.23,.23-.23,.46,.65,.68,1.25,.68,1.83-.34,0-.8,.46-1.37,1.37-.53-.8-1.14-1.33-1.83-1.6-.3,.27-1.52,.49-3.65,.68-.3,0-.84-.15-1.6-.46,0,.23-.23,.46-.68,.68,0-.3-.15-.46-.46-.46h-.23l-.68,.46c-.15,0-.23-.08-.23-.23-.3,.15-.53,.23-.68,.23l.23,.46v.23c0,.31-.15,.46-.46,.46s-.53-.46-.68-1.37h-.23v.46h-.68c0-.46-.15-.68-.46-.68h-.23c-.69,.46-1.37,.68-2.05,.68v-.46h-.23v.46h-.68v-.46h-.91v.46h-.46l-.46-.23c-.53,.42-1.06,1.1-1.6,2.05l-1.14,.23c0-.3-.15-.46-.46-.46h-.23c0,.23-.15,.53-.46,.91l.68,.46c0-.46,.84-.76,2.51-.91l.23,.46v.23l-.23,.46c.61,0,.91,.23,.91,.68h.23c0-.53,.23-1.14,.68-1.83l.46,.23h.68l1.37-.23c1.06,.19,1.6,.65,1.6,1.37l.46-.23c.27,.15,.57,.23,.91,.23,0-.3,.23-.46,.68-.46,.3,.15,.53,.23,.68,.23v-.23c-.15-.27-.23-.57-.23-.91v-1.37c.04-.3,.19-.46,.46-.46l1.6,1.37c0,.3-.23,.46-.68,.46,.19,.76,.42,1.14,.68,1.14s.49-.68,.68-2.05c.49,0,.87-.08,1.14-.23l.23,.46-.23,1.37c2.13,.46,3.27,.68,3.42,.68l1.6-.23c-.15-.61-.38-1.14-.68-1.6,0-.3,.53-.53,1.6-.68,.76,.65,1.14,1.41,1.14,2.28l1.14-.23c0,.3,.23,.46,.69,.46l1.6-.91h.68c.61,.76,.99,1.14,1.14,1.14l-.23,.46v.23c.46,0,.68,.15,.68,.46-.23,0-.46,.3-.68,.91l1.14,.91,1.37-1.14h.68l.91,2.51h-.23l-.46-.23-.68,.91v.23c.76,.11,1.14,.34,1.14,.68l-.23,.46c.91,.08,1.37,.3,1.37,.68v.23c0,.3-.15,.46-.46,.46h-.46l-.68-.46c0,.3-.15,.46-.46,.46l-.68-.46h-1.14l.23,.46c0,.27-.38,.5-1.14,.68-.27-.15-.57-.23-.91-.23l-.23,.46v.23l.46,.68,.46-.23h.68c.15,0,.23,.08,.23,.23l.46-.23,.46,.23c.27-.15,.57-.23,.91-.23,.3,.15,.53,.23,.68,.23,.04-.3,.19-.46,.46-.46l.46,.23,1.37-.68c.91,.61,1.37,.99,1.37,1.14v.23h.23c0-.53,.38-.91,1.14-1.14l.23,.46v.23c0,.19-.53,.57-1.6,1.14v.23c.15,.27,.23,.57,.23,.91-.15,0-.23,.08-.23,.23h.23c.72,0,1.48-.08,2.28-.23h1.37l-.46-.91,.46-.23c.23,0,.53,.3,.91,.91-.15,.3-.23,.53-.23,.68,.3,.04,.46,.19,.46,.46l-.23,.46-1.14-.23h-.23v.23l.23,.46c-.31,.15-.53,.23-.68,.23l.91,.91v.23c0,.15-.08,.23-.23,.23,.15,.27,.3,.95,.46,2.05,.61-.46,1.06-.68,1.37-.68,.53,.91,1.06,1.37,1.6,1.37,.3-.15,.53-.23,.68-.23l.23,.46c0,.31-.23,.46-.68,.46v.23c.76,.04,1.14,.27,1.14,.68,0,.31-.15,.46-.46,.46-.3-.15-.53-.23-.68-.23l-.23,.46,.23,.46c-.27,.15-.65,.23-1.14,.23l1.83,1.14v.23h.46c.3,0,.46-.15,.46-.46-.31,0-.46-.15-.46-.46l.46-.23,1.14,1.6v.23l-.23,.46c.68,0,1.14,.68,1.37,2.05-.3,.15-.53,.23-.68,.23-.3-.15-.53-.23-.68-.23l-.23,.46c.68,.61,1.06,.91,1.14,.91l1.14-.23,2.28,3.65,.46-.23h.23c.15,0,.23,.08,.23,.23l.46-.23h.23c.15,0,.23,.08,.23,.23l.46-.23h.23c.15,0,.23,.08,.23,.23l.46-.23h.23c.15,0,.23,.08,.23,.23,.3-.15,.53-.23,.68-.23,.49,.31,.87,.46,1.14,.46,.04-.3,.19-.46,.46-.46h.23c.15,0,.23,.08,.23,.23l.46-.23h.23c.15,0,.23,.08,.23,.23l.46-.23h.23c.3,.04,.46,.19,.46,.46v.23c-.34,0-.65,.08-.91,.23l-.46-.23-.46,.23-.46-.23-.46,.23-.46-.23c-.31,.15-.53,.23-.68,.23v-.23c-.5,.31-.95,.46-1.37,.46-.31,0-.46-.15-.46-.46l-.46,.23h-.68l-1.14-.23c-.61,.53-.91,.91-.91,1.14h-.68v-.46h-.23v.46h-.68c0-.46-.31-.68-.91-.68,0,.46-.84,.68-2.51,.68h-.23v-.46h-.91v.23c.46,0,.68,.15,.68,.46v.23c-.8,1.07-1.48,1.6-2.05,1.6-.31-.15-.53-.23-.69-.23,0,.15-.08,.23-.23,.23,0-.3-.15-.46-.46-.46l-.23,1.14c.65,0,1.33,.23,2.05,.68,0-.38,.3-.61,.91-.68,.61,.23,.91,.46,.91,.68-.15,.3-.23,.53-.23,.68,.76,.11,1.14,.5,1.14,1.14,.23,0,.46-.3,.68-.91-.68-.3-1.06-.61-1.14-.91l.68-.91c1.37,.57,2.05,.95,2.05,1.14l-.23,.46c1.98,.42,2.97,.8,2.97,1.14v.46c-.15,.46-.61,.68-1.37,.68v-.23c-.61,0-.91,.53-.91,1.6,.46,0,.68,.15,.68,.46s-.15,.46-.46,.46l-.46-.23c0,.3-.15,.46-.46,.46h-.69v-.46h-.23v.46l1.14,.46-.23,1.14c.15,.3,.23,.53,.23,.68-.99,1.22-1.67,1.83-2.05,1.83,.91,.68,1.37,1.37,1.37,2.05l-.46,.23h-.46c-.3,0-.46-.3-.46-.91h-.91l-.91,.91c-.3,0-.46-.23-.46-.68l-1.37,.91-.91-.23-1.14,.23-.46-.23c-.3,.15-.53,.23-.68,.23l-1.14-.23c-.31,.15-.53,.23-.68,.23v-.23c-.31,.15-.53,.23-.68,.23l-2.05-.23c-.3,0-.84,.15-1.6,.46-1.56-.15-2.78-.23-3.65-.23h-.91c-1.98-1.14-2.97-2.89-2.97-5.25,.15,0,.23-.08,.23-.23l.46,.23h.46c0-.87-.53-1.79-1.6-2.74v-.23c0-.38,.3-.61,.91-.68v-.46l-1.14,.23c-.38,0-.61-.3-.68-.91l-1.6,1.37c-.3,0-.46-.15-.46-.46l-.46,.23h-.46l-.46-.23c0,.3-.15,.46-.46,.46l-.91-.68h-1.14v-.46l-.68,.46h-.46v-.46l-.68,.46h-.46v-.46c.04-.3,.19-.46,.46-.46l-.23-.46v-.23h1.14l-.23-1.14,.68-.46h.23c.23,0,.46,.3,.68,.91,.49-.3,.95-.46,1.37-.46h2.05l1.6-.23c0,.27,.38,.5,1.14,.68,0-.61,.46-.99,1.37-1.14h.68l.46-.68-.68-.46c0,.3-.15,.46-.46,.46h-.46c-.57-.76-1.03-1.14-1.37-1.14l-.46-.23c-1.07,.49-1.6,1.18-1.6,2.05h-.46v-.68c0-.15,.08-.23,.23-.23,0-.57-.46-.95-1.37-1.14-.15,0-.23,.08-.23,.23-2.59,0-3.88-.38-3.88-1.14-.3,0-.46-.08-.46-.23-.27,0-.8,.46-1.6,1.37h-.46c-.23,0-.46-.23-.68-.68l.23-.46-1.6-.23-1.14,.23-1.14-.23-1.6,.23v.23c1.52,0,2.28,.23,2.28,.68-.84,0-1.52,.46-2.05,1.37-.53-.3-.91-.76-1.14-1.37l.46-.91c-.46,0-.68-.08-.68-.23l-.46,.23h-.91c-.34,0-.65-.08-.91-.23-.27,.15-.57,.23-.91,.23h-.91c-.15,0-.23-.08-.23-.23-.31,.15-.53,.23-.68,.23l.23,1.14-.46,.23h-.46l-.46-.23v.23c.3,.3,.46,.99,.46,2.05l.68-.46,1.83,1.6c0-.53,.84-.91,2.51-1.14l.46,.68v.46l-.23,.46c.3,.04,.46,.19,.46,.46l-.46,.23h-.23c-.23,0-.46-.23-.68-.68l.23-.46c-.34,0-.65-.08-.91-.23-.27,.15-.57,.23-.91,.23v.23h.91l-.23,1.14c.3,.04,.46,.19,.46,.46,0,.3-.23,.46-.68,.46-.31-.15-.53-.23-.69-.23,0,.19-.38,.57-1.14,1.14-.31,0-.46-.15-.46-.46,.3,0,.46-.15,.46-.46l-.46-.68c.3,0,.46-.15,.46-.46v-.23h-.46l-1.14,.23,.23,.46c0,.34-.08,.65-.23,.91,.15,.27,.23,.57,.23,.91-.15,0-.23,.08-.23,.23h.23l.46-.23,.46,.68-1.6,2.74c-.08,0-.53,.46-1.37,1.37l.23,.46v.23h-.46v-.46l-.46,.23,.91,1.14c0,.11-.68,.65-2.05,1.6h-.23c-.3,0-.46-.23-.46-.68h-.46c0,.61-.23,.91-.68,.91-.95-.3-1.56-.46-1.83-.46-.61,.3-1.06,.46-1.37,.46-1.67,0-2.51-.3-2.51-.91h-.23c0,.61-.15,.91-.46,.91h-.46c-.15,0-.23-.08-.23-.23l-.46,.23h-.68c-.8,0-1.48-.23-2.05-.68,0,.3-.15,.46-.46,.46h-.23c-.11,0-.49-.38-1.14-1.14v.23l.23,.46-.91,.68v-.23l-.46,.23h-.23c-.3,0-.46-.3-.46-.91-.49,0-1.03,.23-1.6,.68-.08,0-.46-.3-1.14-.91v.46h-.46c-.3,0-.46-.23-.46-.68l-.68,.46h-.46v-.46h-.23v.68h.46v.23c0,.3-.15,.46-.46,.46h-.46c-.3,0-.46-.15-.46-.46v-.23h.46v-.23h-.46c-.31,.15-.53,.23-.68,.23,0-.3-.15-.46-.46-.46h-.23v.46h-.23l-.91-.68v.46c-.34,0-.65-.08-.91-.23-.31,.15-.53,.23-.69,.23,0-.3-.15-.46-.46-.46,0,.3-.15,.46-.46,.46h-.23v-.23c0-.38,.3-.61,.91-.68,.3,.15,.53,.23,.68,.23l.23-.46v-.23h-.23v.46h-.46c0-.46-.15-.68-.46-.68-.15,.3-.23,.53-.23,.68h-.46c0-.46-.15-.68-.46-.68-.15,.3-.23,.53-.23,.68-.31,0-.46-.15-.46-.46,0-.23,.23-.46,.68-.68h.46v.46h.46v-.46h.68v.46c.23,0,.46-.23,.69-.68v-.23h-.23v.46h-.46v-.46h-.68v.46h-.46c0-.23-.15-.53-.46-.91v-.23h.46v.46c.38-.3,.76-.46,1.14-.46,0-.3-.15-.46-.46-.46h-.23v.46h-.46v-.23c.15-.34,.68-1.1,1.6-2.28-.15-.27-.23-.57-.23-.91l1.37-1.37c-.15-.3-.23-.53-.23-.68,.91-1.37,1.52-2.05,1.83-2.05l-.23-1.14c.23,0,.68-.46,1.37-1.37-.15-.3-.23-.53-.23-.68l.46,.23h.23l-.46-.68c.91-.76,1.37-1.37,1.37-1.83-.15-.3-.23-.53-.23-.68,.23,0,1.06-.91,2.51-2.74l-.23-.46h.91v-.23h-.68v-.23l.91-1.14c-.15-.3-.23-.53-.23-.68,.15,0,.23-.08,.23-.23l.46,.23h.46v-.46l-.46,.23h-.23v-.23c.91-1.1,1.45-2.17,1.6-3.2,.84-.91,1.37-1.37,1.6-1.37l-.46-.68,2.05-2.51c-.31,0-.46-.15-.46-.46,.91-.91,1.37-1.52,1.37-1.83-.15-.3-.23-.53-.23-.68,1.06-.68,1.6-1.44,1.6-2.28-.15,0-.23-.08-.23-.23,1.22-.95,1.83-1.79,1.83-2.51-.15,0-.23-.08-.23-.23,.65-.34,1.1-.95,1.37-1.83l-.23-.46c1.06-1.37,1.75-2.05,2.05-2.05v-.23l-.46-.68c.23,0,.84-.68,1.83-2.05l-.23-.46c1.29-1.56,2.05-2.85,2.28-3.88h-1.14l-.68,.46-.69-.46c-.84,.15-1.45,.23-1.83,.23-.15,0-.23-.08-.23-.23l-1.14,.23c-.23,0-1.45-.08-3.65-.23l-.46,.23c-.91-.11-1.37-.34-1.37-.68l-.68,.46h-1.14v-.46h-.23v.46h-.46l-.91-.68-1.6,.23c0-.3-.15-.46-.46-.46h-1.83v-.23c.04-.3,.19-.46,.46-.46l.46,.23,.46-.23c.15,0,.23,.08,.23,.23,1.29-.3,2.05-.46,2.28-.46v.23l.46-.23,1.14,.23,1.14-.23c0,.15,.08,.23,.23,.23,.04-.3,.19-.46,.46-.46h.23c.15,0,.23,.08,.23,.23l.46-.23h1.83c.49,0,.87-.08,1.14-.23l1.37,.23h2.74l.68-.46c.15,0,.23,.08,.23,.23l.46-.23c.34,0,.65,.08,.91,.23,1.83-.11,2.74-.34,2.74-.68h-.23c-.31,.15-.53,.23-.68,.23v-.68c.61,0,.91-.23,.91-.68h.23c.11,1.22,.34,1.83,.68,1.83h.46c1.06-1.06,1.75-1.6,2.05-1.6-.3-.38-.46-.68-.46-.91,.15-.3,.23-.53,.23-.69h-.23c-.61,0-.91,.23-.91,.69h-.23v-.69l.46-.68c-.15-.27-.23-.57-.23-.91,.46,0,.68-.46,.68-1.37ZM.68,62.07h.46v.46c-.23,0-.53,.15-.91,.46h-.23v-.23c0-.23,.23-.46,.68-.68Zm2.05-2.74v.46h.23v-.46h-.23Zm.68-.68v.46h.23v-.46h-.23ZM5.02,10.95c.27,.15,.57,.23,.91,.23v.46l-1.14,.23-.46-.23c-.31,.15-.53,.23-.68,.23v-.68l1.37-.23Zm-1.37,46.1v.23h.46v-.23h-.46Zm.23,2.28v.46h.23v-.46h-.23Zm0,1.14v.46h.23v-.46h-.23Zm0,1.14v.46h.23v-.46h-.23Zm.23-7.07v.23c.23,0,.46-.23,.68-.68v-.23c-.23,0-.46,.23-.68,.68Zm.68,2.51l-.23,.46v.23h.23c0-.3,.15-.46,.46-.46v-.23h-.46Zm-.23,3.88v.46h.23v-.46h-.23Zm.46-.46v.46h.23v-.46h-.23Zm0,.91v.68h.23v-.68h-.23Zm.23-6.85v.23c.3,0,.46-.15,.46-.46v-.23c-.31,.04-.46,.19-.46,.46Zm.46-3.19v.23h.46v-.23h-.46Zm.46-40.16h.68v.46h-.68v-.46Zm0,49.29v.46h.23v-.46h-.23Zm0,.91v.46h.23v-.46h-.23Zm.68-11.18v.23h.46v-.23h-.46Zm.46-.68c.04,.3,.19,.46,.46,.46v-.46h-.46Zm0,11.87v.68h.23v-.68h-.23Zm3.42,.23v.46h.23v-.46h-.23Zm1.83-21.22v.23h.46v-.23h-.46Zm2.74,20.99v.46h.23v-.46h-.23Zm.74-12.44h.46v.46h-.46v-.46Zm.46-1.37v.46h.46v-.46h-.46Zm.63-10.61v.46h.23v-.46h-.23Zm.51,11.75v.46h.23c.3,0,.46-.15,.46-.46v-.23c-.31,.15-.53,.23-.68,.23Zm1.14,0v.46h.23c.3,0,.46-.15,.46-.46v-.23c-.3,.15-.53,.23-.68,.23Zm1.31-22.02v.23h.46v-.23h-.46Zm.23,34.23v.23h.46v-.23h-.46Zm.46,.46v.46h.23v-.46h-.23Zm1.37-36.97c.04,.31,.19,.46,.46,.46v-.46h-.46Zm.29,24.08v.46c.49,0,.87,.08,1.14,.23v-.46l-1.14-.23Zm.63,14.03v.23h.46v-.23h-.46Zm1.37-38.11v.46h.23v-.46h-.23Zm.06,24.53v.23h.23c.3,0,.46-.15,.46-.46v-.23h-.23c-.31,.04-.46,.19-.46,.46Zm4.34-.23v.23h1.14v.23c0,.3-.15,.46-.46,.46h-1.6l-1.37,.23c-.61-.3-1.14-.46-1.6-.46l-.23,.46,.46,.23h1.37v1.14h.91v-.23l-.23-.46,.46-.23h1.6c.61,.76,.99,1.14,1.14,1.14h.23v-.46c-.46,0-.68-.15-.68-.46l.91-.68c-.15-.3-.23-.53-.23-.68,.15-.3,.23-.53,.23-.68-.31,0-.46-.23-.46-.68-.76,.61-1.29,.91-1.6,.91Zm-2.28,0c.04,.3,.19,.46,.46,.46l.23-.46v-.23c-.3,.15-.53,.23-.68,.23Zm.23-1.14v.46c.3,0,.46-.15,.46-.46h-.46Zm.63-34.57v.46c.3,0,.46-.15,.46-.46h-.46Zm.68-.46v.23h.46v-.23h-.46Zm1.37,1.83v.23h.46v-.23h-.46Zm.23-1.83v.23h1.6v-.23h-1.6Zm0,19.17v.46h.23v-.46h-.23Zm.91,26.01v.46h.46c0-.3-.15-.46-.46-.46Zm.74-10.16v.46h.23v-.46h-.23Zm1.77-23.39c0,.53-.38,1.22-1.14,2.05,.76,0,1.14,.23,1.14,.68h.23v-.23l-.23-.46c.15-.3,.23-.53,.23-.68l-.23-.46c.15-.3,.23-.53,.23-.68v-.23h-.23Zm-1.14,7.07v.46h.23v-.46h-.23Zm0,1.6v.23c.3,0,.46-.15,.46-.46v-.23c-.3,.04-.46,.19-.46,.46Zm0,14.6v.46h.23v-.46h-.23Zm.23-38.79c.15,.27,.23,.65,.23,1.14h.68c-.3-.49-.46-.95-.46-1.37l-.46,.23Zm.46,4.34v.23l1.14,.23,.46-.23,.46,.23h.23v-.23c-.3,0-.46-.08-.46-.23,.15-.3,.23-.53,.23-.68l-2.05,.68Zm6.16-9.36c.76,.19,1.14,.42,1.14,.68l-1.83,1.6-.91-1.14h-.23l-1.14,1.14-.91-.91c-.53,.15-.84,.23-.91,.23-.61-.23-.91-.46-.91-.68,0-.49,1.9-.8,5.71-.91Zm-5.02,44.5h.91c.3,.04,.46,.19,.46,.46-.76,.3-1.37,.46-1.83,.46l-.23-.46,.68-.46Zm-.23-15.52v.23h.91c-.15-.3-.23-.53-.23-.68h-.23c-.31,.04-.46,.19-.46,.46Zm.23-17.34v.23l.91,.23h.46v-.23c-.5,0-.88-.08-1.14-.23h-.23Zm0,38.11v.23h.46v-.23h-.46Zm.23,1.6c.3,.04,.46,.19,.46,.46h-.46v-.46Zm.91-48.61c.3,.04,.46,.19,.46,.46,0,.3-.15,.46-.46,.46s-.46-.15-.46-.46c.04-.3,.19-.46,.46-.46Zm-.46,18.26l.46,.68c.8-.3,1.41-.46,1.83-.46v-.46l-.46,.23-.91-.23c-.27,.15-.57,.23-.91,.23Zm.23-1.14v.23h.46v-.23h-.46Zm.46,7.07l-.23,.91,.46,.23c.3-.15,.53-.23,.68-.23,0-.23-.3-.53-.91-.91Zm.91,24.42c.3,.04,.46,.19,.46,.46v.23c0,.23-.23,.46-.68,.68l-.46-.23c.19-.76,.42-1.14,.68-1.14Zm2.28-41.76l.23,.46c0,.3-.15,.46-.46,.46h-.46c-.3,0-.46-.15-.46-.46l1.14-.46Zm.23,41.76h.23c.3,.04,.46,.19,.46,.46l-.68,.46c-.31,0-.46-.15-.46-.46,.04-.3,.19-.46,.46-.46Zm0-31.72v.46l.46-.23,.23,.46c0,.46-.31,.68-.91,.68v.23h.23c.3-.15,.53-.23,.68-.23,0,.23,.23,.46,.68,.68,.04-.3,.19-.46,.46-.46,.19,0,.95,.23,2.28,.68l.46-.91-1.14-.23h-1.6l-1.14-1.14h-.68Zm5.02,27.84h.46c.23,0,.46,.23,.68,.68-1.6,1.83-2.59,2.74-2.97,2.74h-.23c-.15,0-.23-.08-.23-.23-.46,.15-.68,.3-.68,.46,.15,.3,.23,.53,.23,.68l-.46,.23h-.46c-.31,0-.46-.15-.46-.46,.23,0,.46-.23,.68-.68v-.23c-.46,0-.68-.15-.68-.46,.3,0,.46-.15,.46-.46-.91,0-1.37-.23-1.37-.68v-.23c.04-.3,.19-.46,.46-.46h.68v.46h.23v-.23c-.15-.27-.23-.57-.23-.91h.68l1.37,1.14,1.83-1.37Zm-4.79-35.83c0,.23,.46,.68,1.37,1.37-.3-.49-.46-.95-.46-1.37h-.91Zm2.28,15.52c0,.65-.31,1.26-.91,1.83l.91,.23,.91-.46,.46,.68v.23c0,.8-.61,2.09-1.83,3.88l.23,.46c-1.37,3.04-2.05,4.94-2.05,5.7,1.6,.61,3.04,.91,4.34,.91,2.89,0,4.34-.68,4.34-2.05-.46-.72-.99-1.86-1.6-3.42,.15-.3,.23-.53,.23-.68l-2.97-6.16c.3,0,.46-.15,.46-.46-.57,0-1.18-.23-1.83-.68h-.68Zm-2.28,23.05h.23v.46h-.23v-.46Zm1.83-49.75c.3,.04,.46,.19,.46,.46l-.46,.23c-.3,0-.46-.15-.46-.46l.46-.23Zm-.23,18.25v.23h.69l.23-.46h-.23c-.31,.15-.53,.23-.69,.23Zm1.83,25.56h.46v.23c0,.3-.15,.46-.46,.46s-.46-.15-.46-.46l.46-.23Zm0,7.07h.23v.46h-.23v-.46Zm1.37-1.37h.68c.3,.04,.46,.19,.46,.46,0,.3-.15,.46-.46,.46h-.46c-.23,0-.46-.23-.68-.68l.46-.23Zm.23-47.24h.23c.3,.04,.46,.19,.46,.46l-.46,.23h-.23c-.31,0-.46-.15-.46-.46l.46-.23Zm.46-2.74h.46c.23,0,.46,.23,.68,.68,0,.23-.23,.46-.68,.68h-.23c-.23,0-.46-.23-.68-.68v-.23c.04-.3,.19-.46,.46-.46Zm-.46,26.7v.23h.46v-.23h-.46Zm.46-5.93v.46c.38,0,.76,.15,1.14,.46l.23-.46v-.23c-.11,0-.57-.08-1.37-.23Zm.46,7.99l-.46,.68h1.14c.3,0,.46-.15,.46-.46l-1.14-.23Zm1.6,19.4l.23,.46c0,.19-.38,.57-1.14,1.14h-.68c-.3,0-.46-.15-.46-.46v-.46c.76,0,1.45-.23,2.05-.68Zm-1.83-4.11v.23h.91v-.23h-.91ZM47.01,3.65h1.6c.23,0,.46,.23,.68,.68,0,.27-.38,.5-1.14,.68-1.06-.15-1.6-.38-1.6-.68v-.23c.04-.3,.19-.46,.46-.46Zm3.19,20.77c-.15-.3-.23-.53-.23-.68-.3,.15-.53,.23-.68,.23-.3-.15-.53-.23-.68-.23-.08,.31-.46,.61-1.14,.91-.27-.15-.57-.23-.91-.23v.46c.15,0,.23-.08,.23-.23,1.6,.46,2.59,.68,2.97,.68h.46l2.28-.23v-.23l-.46-.68v-.46l.91-.23,.68,.91c-.15,.31-.23,.53-.23,.68h.68l.68-.46h.68l.91,.68h1.14c0-.46-.99-.91-2.97-1.37v-.23l.23-.46c-.53-.11-.93-.25-1.2-.4-.27-.15-.4-.32-.4-.51l-.23,.23c-.08,.11-.17,.23-.29,.34-.8,.99-1.62,1.48-2.45,1.48Zm-1.83,30.35h1.14v.46c0,.31-.15,.46-.46,.46h-.68c-.31,0-.46-.15-.46-.46,.04-.3,.19-.46,.46-.46Zm-.23-24.65v.23l1.14,.23v-.46h-1.14Zm0,2.28v.23h.46v-.23h-.46Zm.23,16.66h.46c.3,.04,.46,.19,.46,.46,0,.3-.15,.46-.46,.46s-.46-.15-.46-.46v-.46Zm1.37-35.83h.23c.3,.04,.46,.19,.46,.46,0,.3-.15,.46-.46,.46h-.23c-.31,0-.46-.15-.46-.46,.04-.3,.19-.46,.46-.46Zm.46-9.58h.46c.38,0,1.06,.15,2.05,.46,.49-.3,.95-.46,1.37-.46h.46c.91,.08,1.37,.31,1.37,.68,0,.46-.76,.68-2.28,.68l-.46-.23-.46,.23c-.3-.15-.53-.23-.68-.23l-1.14,.23c-.76-.15-1.14-.53-1.14-1.14l.46-.23Zm.68,27.61v.23c.15,0,.38,.08,.69,.23v-.46h-.69Zm2.74,1.37v.23h.23c.27-.15,.57-.23,.91-.23v-.23h-.46c-.31,.15-.53,.23-.68,.23Zm2.51-22.13h.23c.3,.04,.46,.19,.46,.46v.23l-1.14,.23v-.46c.04-.3,.19-.46,.46-.46Zm.23,38.34v.23h.46v-.23h-.46Zm1.6-39.25c.3,0,.46,.23,.46,.68-.23,.61-.46,.91-.68,.91h-.46l-.23-.91,.91-.68Zm.68-5.71h.23c.3,.04,.46,.19,.46,.46,0,.31-.15,.46-.46,.46h-.23c-.3,0-.46-.15-.46-.46,.04-.3,.19-.46,.46-.46Zm-.23,6.85h.68c.34,0,.65,.08,.91,.23l.46-.23,.46,.23c.3-.15,.53-.23,.68-.23v.68h-.23l-.46-.23-.46,.23c-.3-.15-.53-.23-.68-.23,0,.3-.23,.46-.68,.46-.3-.15-.53-.23-.68-.23v-.68Zm.68,39.25v.23c.15,.3,.23,.53,.23,.68h.23v-.68l-.46-.23Zm1.37-19.62l-.23,1.14,.46,.23c.15-.3,.23-.53,.23-.68-.15-.3-.23-.53-.23-.68h-.23Zm0,20.08v.46h.23v-.46h-.23Zm1.6-34.91h.23c.3,.04,.46,.19,.46,.46,0,.3-.15,.46-.46,.46h-.23c-.31,0-.46-.15-.46-.46,.04-.3,.19-.46,.46-.46Zm-.23,38.79v.23h.46v-.23h-.46Zm.46-4.34c.3,.38,.46,.76,.46,1.14h.23v-.46c-.15-.3-.23-.53-.23-.68h-.46Zm.23-31.49v.23h.46v-.23h-.46Zm1.6-.91c.23,0,.46,.23,.68,.69l-.23,.46c-.27-.15-.57-.23-.91-.23v-.46c.04-.3,.19-.46,.46-.46Zm1.37-2.05c.57,0,.95,.91,1.14,2.74l-.46,.23h-.23c-.19,0-.57-.53-1.14-1.6,.15-.91,.38-1.37,.68-1.37Zm-.23,5.71h.68c.15,0,.53,.53,1.14,1.6-.91,.19-1.37,.42-1.37,.68h.68v.46h-.68c-.34,0-.65-.84-.91-2.51l.46-.23Zm-.23,10.27v.46h.46v-.46h-.46Zm1.37-2.51c0,.27-.23,.65-.68,1.14,.76,0,1.37,.84,1.83,2.51,.3-.15,.53-.23,.68-.23s.23,.08,.23,.23c.61-.15,1.22-.23,1.83-.23,0-.15-.3-.61-.91-1.37l.23-1.14h-.23c-.34,0-.65,.08-.91,.23l-2.05-1.14Zm1.37,32.18v.23h.46v-.23h-.46Zm1.37-38.79l.46,.68v.46c0,.3-.15,.46-.46,.46h-.23c-.3,0-.46-.15-.46-.46,.19-.76,.42-1.14,.68-1.14Zm-.68,31.72v.46h.23v-.46h-.23Zm.46-2.97v.23h.46v-.23h-.46Zm1.14-1.14v.46h.23v-.46h-.23Zm1.6,4.34c0,.23,.23,.46,.68,.68,.3-.15,.53-.23,.68-.23v-.46h-1.37Zm0,2.28v.23h.46v-.23h-.46Zm1.6,4.56v.23l.91,.23c.3-.15,.53-.23,.68-.23,0,.15,.08,.23,.23,.23v-.23c0-.3-.23-.46-.68-.46l-1.14,.23Zm.68-5.71v.23h.46v-.23h-.46Zm.91-.46v.68h.91c-.3-.49-.46-.88-.46-1.14-.31,.04-.46,.19-.46,.46Zm.23-11.41v.46h.46c0-.3-.15-.46-.46-.46Zm.23,12.78c0,.15-.08,.38-.23,.68,.15,.27,.23,.57,.23,.91h1.14c-.27-1.06-.57-1.6-.91-1.6h-.23Zm.46-3.2v.23h.46v-.23h-.46Zm.46,8.22v.46h.23v-.46h-.23Zm.23-7.3l.46,.68v.23c0,.3-.15,.46-.46,.46,.15,.3,.23,.53,.23,.68,.3,0,.53-.61,.68-1.83l-.46-.23h-.46Zm.68-10.27v1.14c.23,0,.53-.3,.91-.91-.34,0-.65-.08-.91-.23Zm1.14,1.14v.23h.46v-.23h-.46Zm2.74,15.75c0,.08,.38,.53,1.14,1.37v.23c0,.3-.15,.46-.46,.46h-.68c-1.67-.23-2.51-.53-2.51-.91,.04-.3,.19-.46,.46-.46l.91,.23,1.14-.91Zm-2.05-14.38v.23h.46v-.23h-.46Zm3.88,10.95h.23v.68l.23,1.14c-1.45,.61-2.28,.91-2.51,.91-.27-.15-.57-.23-.91-.23,0,.15-.08,.23-.23,.23l-.23-.46c.04-.3,.19-.46,.46-.46l-.23-.46v-.46h.46v.68l.68-.46h.23c.15,0,.23,.08,.23,.23,.19,0,.72-.46,1.6-1.37Zm-2.51-1.14h.46v.46h-.46v-.46Zm1.37-1.14c.3,.04,.46,.19,.46,.46l-.46,.23c-.3,0-.46-.15-.46-.46l.46-.23Zm.23-1.6h.46v.46h-.46v-.46Zm.68,1.83h.46c0,.5,.08,.88,.23,1.14l-.46,.23h-.23c-.31,0-.46-.15-.46-.46v-.46c.04-.3,.19-.46,.46-.46Zm.23-3.42h.23c.3,.04,.46,.19,.46,.46l-.46,.23-.23-.46v-.23Zm.91,2.28h.46v.68c0,.3-.15,.46-.46,.46h-.69v-.46c0-.23,.23-.46,.69-.68Zm-.23,6.16l.23,.46c0,.3-.15,.46-.46,.46l-.23-.46c.04-.3,.19-.46,.46-.46Zm4.11-17.23h.91v.74h-.29c-.42,0-.63-.17-.63-.51v-.23Zm2.45-.29c.42,.19,.72,.29,.91,.29l.63-.29c.42,.19,.72,.29,.91,.29l.63-.29c.34,.19,.86,.29,1.54,.29v.23c0,.34-.21,.51-.63,.51l-.63-.23c-.38,.15-.68,.23-.91,.23l-.63-.23c-.34,.15-.74,.23-1.2,.23-.23,0-.34-.08-.34-.23-.65,.34-1.26,.51-1.83,.51,0-.23,.51-.67,1.54-1.31Zm1.65,3.37h.23c.3,.04,.46,.19,.46,.46v.23c0,.31-.15,.46-.46,.46h-.23l-.68-.46c-.31,.15-.53,.23-.68,.23v-.68h.23c.3,.15,.53,.23,.68,.23,.04-.3,.19-.46,.46-.46Zm1.83,0h.23c.3,.04,.46,.19,.46,.46v.23l-1.14,.23v-.46c.04-.3,.19-.46,.46-.46Zm2.68-3.37l.29,.51c0,.34-.21,.51-.63,.51h-.29c-.42,0-.63-.17-.63-.51v-.23c.11,0,.53-.09,1.26-.29Zm-.4,3.59h.23l.46,.23,.46-.23,.46,.23,.46-.23,.46,.23c.3-.15,.53-.23,.68-.23v.68h-.23l-.46-.23-.46,.23-.46-.23-.46,.23-.46-.23c-.3,.15-.53,.23-.68,.23v-.68Zm1.6-3.31v.51h-.57c.04-.34,.23-.51,.57-.51Zm1.54,0h.34v.23c0,.34-.21,.51-.63,.51l-.29-.51,.57-.23Zm3.08,0v.51h-.63c.08-.34,.29-.51,.63-.51Zm3.08,0v.51h-.63c.08-.34,.29-.51,.63-.51Zm.91,.23h.63v.29h-.63v-.29Z"/><path d="M86.14,44.95c.27,.15,.57,.23,.91,.23v.46l-1.14,.23-.46-.23c-.3,.15-.53,.23-.68,.23v-.68l1.37-.23Zm1.14,.23h.69v.46h-.69v-.46ZM155.74,0l1.14,.91h1.37V.23c.88,.61,1.41,.91,1.6,.91,.3-.15,.53-.23,.68-.23,.04,.3,.19,.46,.46,.46,.15,0,.23-.08,.23-.23l1.14,.23h.46c.34,0,.65-.08,.91-.23,.8,.46,2.02,.99,3.65,1.6,0-.15,.08-.23,.23-.23,0,.27,.61,.72,1.83,1.37,.3-.15,.53-.23,.68-.23l1.14,1.6v.46h-.69v.68c.61,0,.91,.15,.91,.46,0,.23-.23,.46-.68,.68,0-.3-.15-.46-.46-.46h-.46c0,.61-.46,.91-1.37,.91,0,.3,.46,.46,1.37,.46v-.23h.46l.69,.46,1.37-.23c.27,.15,.65,.23,1.14,.23,.04-.3,.19-.46,.46-.46l1.6,.91c.27-.15,.95-.3,2.05-.46v.23l.46-.23,.91,.68c.23,0,.46-.23,.69-.68,.91,.11,1.37,.27,1.37,.46l.46-.23h.23c.15,0,.23,.08,.23,.23l.46-.23h.23c.15,0,.23,.08,.23,.23l.46-.23h.23c.15,0,.23,.08,.23,.23l.46-.23h.23c.15,0,.23,.08,.23,.23,.3-.15,.53-.23,.68-.23,.49,.3,.88,.46,1.14,.46,.04-.3,.19-.46,.46-.46h.23c.15,0,.23,.08,.23,.23l.46-.23h.23c.15,0,.23,.08,.23,.23l.46-.23h.23c.3,.04,.46,.19,.46,.46v.23c-.34,0-.65,.08-.91,.23l-.46-.23-.46,.23-.46-.23-.46,.23-.46-.23c-.3,.15-.53,.23-.69,.23v-.23c-.49,.3-.95,.46-1.37,.46-.3,0-.46-.15-.46-.46l-.46,.23h-.69l-1.14-.23c-.61,.53-.91,.91-.91,1.14h-.69v-.46h-.23v.46h-.69c0-.46-.15-.68-.46-.68h-.23c-.69,.46-1.37,.68-2.05,.68v-.46h-.23v.46h-.68v-.46h-1.14v.46h-.23l-.46-.23c0,.3-.15,.46-.46,.46h-.68l-.46-.23v.46h4.34c1.37,.23,2.05,.91,2.05,2.05v.68c.15,0,.38,.3,.68,.91l-.23,.46c.15,.27,.23,.57,.23,.91,0,.15-.08,.23-.23,.23,.61,.91,.91,1.83,.91,2.74h-.23l.23,.46v.46c0,.15-.08,.23-.23,.23l.23,.46v.46c0,.15-.08,.23-.23,.23l.23,.46c-.15,1.52-.38,2.43-.69,2.74,.3,.04,.46,.19,.46,.46-.3,.15-.53,.23-.69,.23l.69,.91c-.3,.15-.53,.23-.69,.23v.23h3.2v.23c-1.26,2.13-2.17,3.19-2.74,3.19l.46,.68-3.2,2.97-.46-.23c0,.19-.68,.8-2.05,1.83l-.46-.23c-.15,0-.76,.46-1.83,1.37l-.46-.23-1.14,.91c-.3-.15-.53-.23-.68-.23l-.46,.23c-.27-.15-.57-.23-.91-.23,0,.23-.23,.46-.69,.69l-.23-.46h.46v-.23h-.46c0,.23-.31,.46-.91,.69-.27-.15-.57-.23-.91-.23-.23,.61-.46,.91-.69,.91l-.68-.46c0,.3-.15,.46-.46,.46l-.68-.46c0,.3-.15,.46-.46,.46l-.69-.46c0,.3-.15,.46-.46,.46l-.69-.46c0,.3-.23,.46-.68,.46l-.46-.23c-.3,.15-.53,.23-.68,.23,0-.3-.15-.46-.46-.46l-.69,.91-1.6-.23c-.34,0-.65,.08-.91,.23-.76-.19-1.14-.42-1.14-.68l-2.05,.46c0-.3-.15-.46-.46-.46,0,.23-.3,.46-.91,.68-.76-.15-1.14-.3-1.14-.46l-1.14,.68-.23-.46c.15,0,.23-.08,.23-.23h-.23l-.91,.68-.69-.46c-.3,.15-.53,.23-.68,.23l.23-.46h-.23l-.46,.23c-.3-.15-.53-.23-.68-.23l-.46,.23c-.3-.15-.53-.23-.69-.23l-.46,.23c-.3-.15-.53-.23-.69-.23l-.46,.23c-.3-.15-.53-.23-.69-.23l-.46,.23c-.3-.15-.53-.23-.68-.23l-.46,.23c-.3-.15-.53-.23-.68-.23l-.46,.23-.46-.23c-.27,.15-.57,.23-.91,.23v-.23l-.46,.23c-.34,0-.65-.08-.91-.23-.3,.15-.53,.23-.68,.23l-.46-.23c-.27,.15-.57,.23-.91,.23v-.23c-.31,.15-.53,.23-.69,.23l-.46-.23c-.3,.15-.53,.23-.68,.23l-.46-.23c-.3,.15-.53,.23-.68,.23l-.46-.23c-.3,.15-.53,.23-.69,.23l-.46-.23c-.27,.15-.57,.23-.91,.23v-.23c-.61,.15-1.14,.38-1.6,.68l-.46-.23c0,.23-.23,.46-.69,.68h-.23v-.68h-.23c0,.23-.38,.76-1.14,1.6,.3,.04,.46,.19,.46,.46l-.68,.46h-3.65l-1.37,.23c-.27-.15-.65-.23-1.14-.23,0,.76-.15,1.14-.46,1.14,.15,.15,.23,.76,.23,1.83l.69-.46,1.6,.91c.27-.15,.95-.3,2.05-.46v.23l.46-.23,.91,.68c.23,0,.46-.23,.69-.68,.91,.11,1.37,.27,1.37,.46l.46-.23h.23c.15,0,.23,.08,.23,.23l.46-.23h.23c.15,0,.23,.08,.23,.23l.46-.23h.23c.15,0,.23,.08,.23,.23l.46-.23h.23c.15,0,.23,.08,.23,.23,.3-.15,.53-.23,.69-.23,.49,.3,.87,.46,1.14,.46,.04-.3,.19-.46,.46-.46h.23c.15,0,.23,.08,.23,.23l.46-.23h.23c.15,0,.23,.08,.23,.23l.46-.23h.23c.3,.04,.46,.19,.46,.46v.23c-.34,0-.65,.08-.91,.23l-.46-.23-.46,.23-.46-.23-.46,.23-.46-.23c-.3,.15-.53,.23-.69,.23v-.23c-.49,.3-.95,.46-1.37,.46-.3,0-.46-.15-.46-.46l-.46,.23h-.68l-1.14-.23c-.61,.53-.91,.91-.91,1.14h-.68v-.46h-.23v.46h-.69c0-.46-.15-.68-.46-.68h-.23c-.69,.46-1.37,.68-2.05,.68v-.46h-.23v.46h-.68v-.46h-1.14v.46h-.23l-.46-.23v.68h6.39c.23,0,.46,.23,.68,.68-.15,.31-.23,.53-.23,.69l.23,.46c-.15,.3-.23,.53-.23,.68l.23,.46-.68,1.37c.3,.04,.46,.19,.46,.46l-.46,.68c.3,.04,.46,.19,.46,.46l-.46,.68c.3,.04,.46,.19,.46,.46l-.46,.68c.3,.04,.46,.19,.46,.46l-.46,.68c.15,.3,.23,.53,.23,.68-.15,.3-.23,.53-.23,.68,.3,.04,.46,.19,.46,.46-.3,.04-.46,.19-.46,.46v.23c.46,0,.68,.15,.68,.46v.23h-.46v.23l.46,.68c-.3,.04-.46,.19-.46,.46,.15,.27,.23,.57,.23,.91-.34,0-.57,.38-.68,1.14,.15,0,.23,.08,.23,.23l-.46,.23c0-.3-.15-.46-.46-.46,0,.3-.15,.46-.46,.46-.3-.15-.53-.23-.68-.23,0,.3-.15,.46-.46,.46h-1.82c-.34,0-.65,.08-.91,.23-.3-.15-.53-.23-.68-.23l-.46,.23c-.3-.15-.53-.23-.68-.23-.31,.15-.53,.23-.69,.23,0-.15-.08-.23-.23-.23,0,.3-.15,.46-.46,.46h-.46v-.46h-.46v.46h.46c0,.3-.15,.46-.46,.46,0-.23-.3-.53-.91-.91l-.69,.46c0-.3-.15-.46-.46-.46l-.69,.46c0-.3-.15-.46-.46-.46l-.68,.46c0-.3-.15-.46-.46-.46l-.68,.46c0-.3-.15-.46-.46-.46l-.68,.46c0-.3-.15-.46-.46-.46l-.46,.23-.46-.23-.46,.23-.91-.23-.46,.23c-.3-.15-.53-.23-.69-.23l-.46,.23c-.61-.08-.91-.3-.91-.68-.38,.3-.68,.46-.91,.46-.15,0-.23-.08-.23-.23l-1.14,.23h-1.14l-1.37-.23-.46,.23c-.27-.15-.57-.23-.91-.23,0,.15-.08,.23-.23,.23l-.23-.46-.46,.23h-2.51c-.3,0-.46-.15-.46-.46l.68-1.14c-.61,0-.99-1.29-1.14-3.88h-.46c0,1.07-.38,1.6-1.14,1.6-.61-.8-.91-1.48-.91-2.05v-.23c0-.42,.38-.65,1.14-.68v-.91c-.91,0-1.37-.84-1.37-2.51l-.46-1.14c.15-.61,.23-1.14,.23-1.6,0-.27-.15-1.1-.46-2.51,.15-.08,.23-.61,.23-1.6h-.23v-.23l.46-.68v-1.14l-.23-2.28h.23l-.23-.46v-.91l1.14-1.14c-.91,0-1.37-.53-1.37-1.6v-1.14l.46-.68c-.3-.49-.46-.95-.46-1.37v-1.6c0-2.4,.15-3.99,.46-4.79-.15-.3-.23-.53-.23-.68,.27-.15,.57-.23,.91-.23v-.46c-.61,0-.91-.15-.91-.46v-1.37c0-.49,.23-1.03,.68-1.6-.61,0-.91-.15-.91-.46,1.33-.8,2.02-1.33,2.05-1.6v-.23h-.46c0,.61-.38,.91-1.14,.91-.3,0-.46-.23-.46-.68,0-.68,.08-1.14,.23-1.37-.15-1.03-.23-1.86-.23-2.51v-1.6c0-.3,.3-.46,.91-.46v-.46c0-.08-.31-.46-.91-1.14l.46-.68c-.15-1.29-.23-2.28-.23-2.97l1.83-.91-.23-.46v-2.05c-.46-.49-.68-.88-.68-1.14l.46-.91c-.61,0-.91-.23-.91-.68v-.46c0-.76,2.05-1.29,6.16-1.6,.04,.3,.19,.46,.46,.46l1.14-.68c.91,.11,1.37,.27,1.37,.46,.15,0,.23-.08,.23-.23l1.14,.23h.46c.42,0,.88-.15,1.37-.46v.23l.91-.46c.8,.46,1.56,.68,2.28,.68h.23l.68-.46h.46v.68c.61-.3,.91-.53,.91-.68l.46,.23h.46l.46-.23c.04,.3,.19,.46,.46,.46h.68c.34-.34,1.18-.57,2.51-.68l.91,.46,.91-.46,.46,.23c.08,0,.38-.08,.91-.23,.3,.15,.53,.23,.69,.23,.04-.3,.19-.46,.46-.46h.23v.46h.23l.69-.46h.23v.46h.46c.15,0,.23-.08,.23-.23,.3,.15,.53,.23,.68,.23s.23-.08,.23-.23l1.14,.23h.23l1.37-.23c.61,.08,.91,.3,.91,.68h.23c0-.38,.3-.61,.91-.68,.3,.15,.53,.23,.68,.23l.46-.23c.15,0,.23,.08,.23,.23l1.14-.23h.46c.34,0,.65,.08,.91,.23l.46-.23,.46,.23c.08,0,.38-.08,.91-.23l.46,.23,.46-.23,.46,.23c1.29-.3,2.13-.46,2.51-.46l1.14,.23,.46-.23,1.37,.68c.15-.27,.23-.57,.23-.91l1.14,.23h.46c.34,0,.64-.08,.91-.23,.27,.15,.57,.23,.91,.23v-.23l.46,.23h.46V.23h.46v.46h.69l.46-.23v.23l1.14-.46c0,.3,.23,.46,.68,.46,3.73,.15,5.78,.23,6.16,.23l.46-.23c.15,0,.23,.08,.23,.23,1.63-.15,2.62-.3,2.97-.46,.27,.15,.57,.23,.91,.23l-.23-.46v-.23ZM89.8,29.67v.46h.46v-.46h-.46Zm.46,6.85v.46c.3,0,.46-.15,.46-.46h-.46Zm.23,6.85v.46h.23v-.46h-.23Zm.23-23.96v.46h.46v-.46h-.46Zm0,21.68v.23h.46v-.23h-.46Zm0,4.56v.23h.46v-.23h-.46Zm0,7.3v.23h.46v-.23h-.46Zm.23-34.91v.46h.23v-.46h-.23Zm0,29.89v.46h.23v-.46h-.23Zm.91-42.9v.23h.46v-.23h-.46Zm0,2.51h.46v-.46c-.3,.04-.46,.19-.46,.46Zm0,45.41v.23h.46v-.23h-.46Zm.46-45.18c.04,.3,.19,.46,.46,.46v-.46h-.46Zm.91,21.91v.46h.46v-.46h-.46Zm.46-23.05v.46h.23v-.46h-.23Zm0,1.14v.46h.23v-.46h-.23Zm0,44.5v.46c.3,0,.46,.15,.46,.46h.46v-.46c-.23,0-.53-.15-.91-.46Zm.23-8.9v.46h.23v-.46h-.23Zm0,17.12v.46h.23v-.46h-.23Zm0,1.14v.46h.23v-.46h-.23Zm.23-55.45v.23h.46v-.23h-.46Zm.23,23.5v.46h.46v-.46h-.46Zm0,18.03v.46h.46v-.46h-.46Zm0,2.51v.23h.46v-.23h-.46Zm.23,7.07v.46h.91v-.46h-.91Zm0,1.6v.46c.46,.72,.68,1.56,.68,2.51h.23v-.91l-.23-.46c.15-.3,.23-.53,.23-.68-.11-.46-.42-.76-.91-.91Zm2.51-51.12v.46h.23v-.46h-.23Zm.46-6.16v.23h.46v-.23h-.46Zm.91,41.76v.46h.23v-.46h-.23Zm8.21-34.91v.23h.46v-.23h-.46Zm3.42,0v.23h.46v-.23h-.46Zm2.51,34.46v.23h.46v-.23h-.46Zm1.82,.68v.23c.04,.3,.19,.46,.46,.46h.46c0-.23-.23-.46-.69-.68h-.23Zm.46-.68v.23h.46v-.23h-.46Zm1.14-.68c.15,.3,.23,.53,.23,.68,.3,0,.46-.15,.46-.46l-.46-.23h-.23ZM119.69,.23v.46h-.46c.04-.3,.19-.46,.46-.46Zm-.23,5.93c.04,.3,.19,.46,.46,.46,.3-.15,.53-.23,.69-.23v-.23h-1.14Zm.23,56.14v.46h.23v-.46h-.23Zm6.85-41.53c-.46,.38-.69,.68-.69,.91h-.23l-.68-.46c0,.3-.15,.46-.46,.46l-.68-.46c0,.3-.23,.46-.69,.46l-.46-.23c-.3,.15-.53,.23-.68,.23-.3-.15-.53-.23-.69-.23l.46,.68-.46,.69c.3,.04,.46,.19,.46,.46-.3,.04-.46,.19-.46,.46v.23l.46,.68c-.23,0-.46,.3-.69,.91h.46v.46l-.46,.68h2.97l1.14,.23-.23,.46v.23c.34,0,.65-.08,.91-.23,.27,.15,.57,.23,.91,.23v-.23l.46,.23h4.56c.34,0,.65,.08,.91,.23,.27-.15,.57-.23,.91-.23h.68l.46,.23c0-.27,.38-.49,1.14-.68l.91,.46c0-.3,.08-.46,.23-.46l.46,.23h.68c0,.15,.08,.23,.23,.23,.46,0,1.06-.15,1.83-.46,.3,.15,.53,.23,.68,.23,.3-.15,.53-.23,.69-.23v.23l.46-.23h.23c.3,.04,.46,.19,.46,.46l.46-.23h.46v.46h.23v-.46h.23c.34,0,.65,.08,.91,.23,.76,0,1.37-.91,1.83-2.74v-.68c0-.76-.46-1.45-1.37-2.05h-.68v-.23h-.23l-1.14,.68c-.3-.15-.53-.23-.68-.23-.3,.15-.53,.23-.69,.23l-.46-.68v-.23h.46v.46h.46v-.46c-.15,0-.38-.08-.68-.23-.3,.15-.53,.23-.69,.23l-.46-.23c-.3,.15-.53,.23-.68,.23l-.46-.23c-.3,.15-.53,.23-.68,.23l-.46-.23c-.3,.15-.53,.23-.68,.23,0-.3-.15-.46-.46-.46l-.69,.46-.46-.23c-.3,.15-.53,.23-.69,.23-.3-.15-.53-.23-.68-.23,0,.15-.08,.23-.23,.23,0-.3-.23-.46-.69-.46l-.46,.23c-.3-.15-.53-.23-.69-.23l-.46,.23c-.3-.15-.53-.23-.68-.23,0,.3-.15,.46-.46,.46l-.23-.46h.46v-.46h-.46v.46h-.68v-.46l-1.14,.91c-.3,0-.46-.15-.46-.46h.46v-.46l-.69,.46-.68-.46c0,.3-.15,.46-.46,.46l-.68-.46Zm-2.05-14.6v.46c.3-.15,.53-.23,.69-.23v-.23h-.69Zm.91,32.18v.23h.46v-.23h-.46Zm.46-16.43h.46v.23h-.46v-.23Zm.91-15.75v.46c.3,0,.46-.15,.46-.46h-.46Zm1.83,0v.23l.91,.23v-.46h-.91Zm1.14,15.06h.46v.23h-.46v-.23Zm.91-13.24v.46h.46v-.46h-.46Zm.68-1.6l.46,.91,.46-.23h.69l.91,.69c.19,0,.57-.46,1.14-1.37l-.46-.23h-2.74l-.46,.23Zm.46,1.6v.46h.46v-.46h-.46Zm2.28,0v.46h.46v-.46h-.46Zm1.37,36.51h.23c.3,.04,.46,.19,.46,.46v.23c0,.3-.15,.46-.46,.46h-.23l-.68-.46c-.3,.15-.53,.23-.69,.23v-.68h.23c.3,.15,.53,.23,.69,.23,.04-.3,.19-.46,.46-.46Zm.23-36.97c0,.3-.15,.46-.46,.46v.46h.46c0-.3,.15-.46,.46-.46v-.46h-.46Zm1.6,36.97h.23c.3,.04,.46,.19,.46,.46v.23l-1.14,.23v-.46c.04-.3,.19-.46,.46-.46Zm.46-37.42h.23c0-.08,.3-.46,.91-1.14h-.23c-.19,0-.49,.38-.91,1.14Zm1.82,37.65h.23l.46,.23,.46-.23,.46,.23,.46-.23,.46,.23c.3-.15,.53-.23,.69-.23v.68h-.23l-.46-.23-.46,.23-.46-.23-.46,.23-.46-.23c-.3,.15-.53,.23-.69,.23v-.68Zm3.65-22.59h.46v-.46c-.3,.04-.46,.19-.46,.46Zm4.34-13.69v.23h.46v-.23h-.46Zm7.99-1.14c.15,.3,.23,.53,.23,.68-.15,.3-.23,.53-.23,.68l1.37-1.14-.46-.91c-.61,.23-.91,.46-.91,.68Zm.68-1.6c.15,.31,.23,.53,.23,.68h.23c.38-.3,.69-.46,.91-.46v-.23h-1.37Zm2.05,0v.23l.91,.23v-.46h-.91Zm2.28,0v.23h.46v-.23h-.46Zm.69,.68l.23,.46c-.15,.3-.23,.53-.23,.68,.15,.3,.23,.53,.23,.68-.15,0-.23,.08-.23,.23h.23c.49-.3,.95-.46,1.37-.46h.91l.46,.23v-.23l-.69-1.14v-.23l.23-.46-.69-.46h-1.14c-.23,0-.46,.23-.68,.68Zm3.19,31.04v.23h.46v-.23h-.46Zm.46-31.72c0,.34-.08,.65-.23,.91l.46,.23h.23v-1.14h-.46Zm-.23,2.51v.23h.69l.23-.46h-.23c-.3,.15-.53,.23-.69,.23Zm2.05-2.51c0,.65-.3,1.1-.91,1.37,.15,1.07,.38,1.6,.68,1.6h.46l.68-.46c.3,.15,.53,.23,.69,.23v-.46c-.91,0-1.37-.38-1.37-1.14,.3,0,.46-.15,.46-.46v-.68h-.68Zm.91,0v.46h.46c.3,0,.46-.15,.46-.46h-.91Zm2.28,30.58v.23h.46v-.23h-.46Zm21.68-27.38h.23c.3,.04,.46,.19,.46,.46v.23c0,.3-.15,.46-.46,.46h-.23l-.68-.46c-.31,.15-.53,.23-.69,.23v-.68h.23c.3,.15,.53,.23,.68,.23,.04-.3,.19-.46,.46-.46Zm1.83,0h.23c.3,.04,.46,.19,.46,.46v.23l-1.14,.23v-.46c.04-.3,.19-.46,.46-.46Zm2.28,.23h.23l.46,.23,.46-.23,.46,.23,.46-.23,.46,.23c.3-.15,.53-.23,.69-.23v.68h-.23l-.46-.23-.46,.23-.46-.23-.46,.23-.46-.23c-.3,.15-.53,.23-.69,.23v-.68Z"/></g><g><path class="c" d="M31.03,4.11h.91v2.74h.23c.38-1.06,.68-1.6,.91-1.6,.3,.04,.46,.19,.46,.46l-.46,.68c.3,.04,.46,.19,.46,.46l-.23,1.14,.46,.23h.23l.91-.68c.3,.91,.61,1.37,.91,1.37h.23c.72-1.06,1.18-1.6,1.37-1.6h.23l.23,1.14-.23,.46h.23c.3-.15,.53-.23,.68-.23l.23,.46v.23l-.23,.46h.68c0-.46,.15-.68,.46-.68h.68v1.37l.46-.23,.91,.68c.04-.91,.49-1.37,1.37-1.37l.46,.23,.46-.23h1.14c.04-.76,.27-1.14,.68-1.14h.68c.3,.04,.46,.19,.46,.46l.46-.23c.23,0,.46,.23,.68,.68v.23l-.23,.46c.15,0,.38,.08,.68,.23,.04-.3,.19-.46,.46-.46,.76,.38,1.14,.68,1.14,.91l.46-.23h.23l.46,.23,.23-.46h-.69v-.46c0-.23,.23-.46,.69-.68h1.37l1.14,.68c0-.15,.08-.23,.23-.23,.46,.65,.68,1.25,.68,1.83-.34,0-.8,.46-1.37,1.37-.53-.8-1.14-1.33-1.83-1.6-.3,.27-1.52,.49-3.65,.68-.3,0-.84-.15-1.6-.46,0,.23-.23,.46-.68,.68,0-.3-.15-.46-.46-.46h-.23l-.68,.46c-.15,0-.23-.08-.23-.23-.3,.15-.53,.23-.68,.23l.23,.46v.23c0,.31-.15,.46-.46,.46s-.53-.46-.68-1.37h-.23v.46h-.68c0-.46-.15-.68-.46-.68h-.23c-.69,.46-1.37,.68-2.05,.68v-.46h-.23v.46h-.68v-.46h-.91v.46h-.46l-.46-.23c-.53,.42-1.06,1.1-1.6,2.05l-1.14,.23c0-.3-.15-.46-.46-.46h-.23c0,.23-.15,.53-.46,.91l.68,.46c0-.46,.84-.76,2.51-.91l.23,.46v.23l-.23,.46c.61,0,.91,.23,.91,.68h.23c0-.53,.23-1.14,.68-1.83l.46,.23h.68l1.37-.23c1.06,.19,1.6,.65,1.6,1.37l.46-.23c.27,.15,.57,.23,.91,.23,0-.3,.23-.46,.68-.46,.3,.15,.53,.23,.68,.23v-.23c-.15-.27-.23-.57-.23-.91v-1.37c.04-.3,.19-.46,.46-.46l1.6,1.37c0,.3-.23,.46-.68,.46,.19,.76,.42,1.14,.68,1.14s.49-.68,.68-2.05c.49,0,.87-.08,1.14-.23l.23,.46-.23,1.37c2.13,.46,3.27,.68,3.42,.68l1.6-.23c-.15-.61-.38-1.14-.68-1.6,0-.3,.53-.53,1.6-.68,.76,.65,1.14,1.41,1.14,2.28l1.14-.23c0,.3,.23,.46,.69,.46l1.6-.91h.68c.61,.76,.99,1.14,1.14,1.14l-.23,.46v.23c.46,0,.68,.15,.68,.46-.23,0-.46,.3-.68,.91l1.14,.91,1.37-1.14h.68l.91,2.51h-.23l-.46-.23-.68,.91v.23c.76,.11,1.14,.34,1.14,.68l-.23,.46c.91,.08,1.37,.3,1.37,.68v.23c0,.3-.15,.46-.46,.46h-.46l-.68-.46c0,.3-.15,.46-.46,.46l-.68-.46h-1.14l.23,.46c0,.27-.38,.5-1.14,.68-.27-.15-.57-.23-.91-.23l-.23,.46v.23l.46,.68,.46-.23h.68c.15,0,.23,.08,.23,.23l.46-.23,.46,.23c.27-.15,.57-.23,.91-.23,.3,.15,.53,.23,.68,.23,.04-.3,.19-.46,.46-.46l.46,.23,1.37-.68c.91,.61,1.37,.99,1.37,1.14v.23h.23c0-.53,.38-.91,1.14-1.14l.23,.46v.23c0,.19-.53,.57-1.6,1.14v.23c.15,.27,.23,.57,.23,.91-.15,0-.23,.08-.23,.23h.23c.72,0,1.48-.08,2.28-.23h1.37l-.46-.91,.46-.23c.23,0,.53,.3,.91,.91-.15,.3-.23,.53-.23,.68,.3,.04,.46,.19,.46,.46l-.23,.46-1.14-.23h-.23v.23l.23,.46c-.31,.15-.53,.23-.68,.23l.91,.91v.23c0,.15-.08,.23-.23,.23,.15,.27,.3,.95,.46,2.05,.61-.46,1.06-.68,1.37-.68,.53,.91,1.06,1.37,1.6,1.37,.3-.15,.53-.23,.68-.23l.23,.46c0,.31-.23,.46-.68,.46v.23c.76,.04,1.14,.27,1.14,.68,0,.31-.15,.46-.46,.46-.3-.15-.53-.23-.68-.23l-.23,.46,.23,.46c-.27,.15-.65,.23-1.14,.23l1.83,1.14v.23h.46c.3,0,.46-.15,.46-.46-.31,0-.46-.15-.46-.46l.46-.23,1.14,1.6v.23l-.23,.46c.68,0,1.14,.68,1.37,2.05-.3,.15-.53,.23-.68,.23-.3-.15-.53-.23-.68-.23l-.23,.46c.68,.61,1.06,.91,1.14,.91l1.14-.23,2.28,3.65,.46-.23h.23c.15,0,.23,.08,.23,.23l.46-.23h.23c.15,0,.23,.08,.23,.23l.46-.23h.23c.15,0,.23,.08,.23,.23l.46-.23h.23c.15,0,.23,.08,.23,.23,.3-.15,.53-.23,.68-.23,.49,.31,.87,.46,1.14,.46,.04-.3,.19-.46,.46-.46h.23c.15,0,.23,.08,.23,.23l.46-.23h.23c.15,0,.23,.08,.23,.23l.46-.23h.23c.3,.04,.46,.19,.46,.46v.23c-.34,0-.65,.08-.91,.23l-.46-.23-.46,.23-.46-.23-.46,.23-.46-.23c-.31,.15-.53,.23-.68,.23v-.23c-.5,.31-.95,.46-1.37,.46-.31,0-.46-.15-.46-.46l-.46,.23h-.68l-1.14-.23c-.61,.53-.91,.91-.91,1.14h-.68v-.46h-.23v.46h-.68c0-.46-.31-.68-.91-.68,0,.46-.84,.68-2.51,.68h-.23v-.46h-.91v.23c.46,0,.68,.15,.68,.46v.23c-.8,1.07-1.48,1.6-2.05,1.6-.31-.15-.53-.23-.69-.23,0,.15-.08,.23-.23,.23,0-.3-.15-.46-.46-.46l-.23,1.14c.65,0,1.33,.23,2.05,.68,0-.38,.3-.61,.91-.68,.61,.23,.91,.46,.91,.68-.15,.3-.23,.53-.23,.68,.76,.11,1.14,.5,1.14,1.14,.23,0,.46-.3,.68-.91-.68-.3-1.06-.61-1.14-.91l.68-.91c1.37,.57,2.05,.95,2.05,1.14l-.23,.46c1.98,.42,2.97,.8,2.97,1.14v.46c-.15,.46-.61,.68-1.37,.68v-.23c-.61,0-.91,.53-.91,1.6,.46,0,.68,.15,.68,.46s-.15,.46-.46,.46l-.46-.23c0,.3-.15,.46-.46,.46h-.69v-.46h-.23v.46l1.14,.46-.23,1.14c.15,.3,.23,.53,.23,.68-.99,1.22-1.67,1.83-2.05,1.83,.91,.68,1.37,1.37,1.37,2.05l-.46,.23h-.46c-.3,0-.46-.3-.46-.91h-.91l-.91,.91c-.3,0-.46-.23-.46-.68l-1.37,.91-.91-.23-1.14,.23-.46-.23c-.3,.15-.53,.23-.68,.23l-1.14-.23c-.31,.15-.53,.23-.68,.23v-.23c-.31,.15-.53,.23-.68,.23l-2.05-.23c-.3,0-.84,.15-1.6,.46-1.56-.15-2.78-.23-3.65-.23h-.91c-1.98-1.14-2.97-2.89-2.97-5.25,.15,0,.23-.08,.23-.23l.46,.23h.46c0-.87-.53-1.79-1.6-2.74v-.23c0-.38,.3-.61,.91-.68v-.46l-1.14,.23c-.38,0-.61-.3-.68-.91l-1.6,1.37c-.3,0-.46-.15-.46-.46l-.46,.23h-.46l-.46-.23c0,.3-.15,.46-.46,.46l-.91-.68h-1.14v-.46l-.68,.46h-.46v-.46l-.68,.46h-.46v-.46c.04-.3,.19-.46,.46-.46l-.23-.46v-.23h1.14l-.23-1.14,.68-.46h.23c.23,0,.46,.3,.68,.91,.49-.3,.95-.46,1.37-.46h2.05l1.6-.23c0,.27,.38,.5,1.14,.68,0-.61,.46-.99,1.37-1.14h.68l.46-.68-.68-.46c0,.3-.15,.46-.46,.46h-.46c-.57-.76-1.03-1.14-1.37-1.14l-.46-.23c-1.07,.49-1.6,1.18-1.6,2.05h-.46v-.68c0-.15,.08-.23,.23-.23,0-.57-.46-.95-1.37-1.14-.15,0-.23,.08-.23,.23-2.59,0-3.88-.38-3.88-1.14-.3,0-.46-.08-.46-.23-.27,0-.8,.46-1.6,1.37h-.46c-.23,0-.46-.23-.68-.68l.23-.46-1.6-.23-1.14,.23-1.14-.23-1.6,.23v.23c1.52,0,2.28,.23,2.28,.68-.84,0-1.52,.46-2.05,1.37-.53-.3-.91-.76-1.14-1.37l.46-.91c-.46,0-.68-.08-.68-.23l-.46,.23h-.91c-.34,0-.65-.08-.91-.23-.27,.15-.57,.23-.91,.23h-.91c-.15,0-.23-.08-.23-.23-.31,.15-.53,.23-.68,.23l.23,1.14-.46,.23h-.46l-.46-.23v.23c.3,.3,.46,.99,.46,2.05l.68-.46,1.83,1.6c0-.53,.84-.91,2.51-1.14l.46,.68v.46l-.23,.46c.3,.04,.46,.19,.46,.46l-.46,.23h-.23c-.23,0-.46-.23-.68-.68l.23-.46c-.34,0-.65-.08-.91-.23-.27,.15-.57,.23-.91,.23v.23h.91l-.23,1.14c.3,.04,.46,.19,.46,.46,0,.3-.23,.46-.68,.46-.31-.15-.53-.23-.69-.23,0,.19-.38,.57-1.14,1.14-.31,0-.46-.15-.46-.46,.3,0,.46-.15,.46-.46l-.46-.68c.3,0,.46-.15,.46-.46v-.23h-.46l-1.14,.23,.23,.46c0,.34-.08,.65-.23,.91,.15,.27,.23,.57,.23,.91-.15,0-.23,.08-.23,.23h.23l.46-.23,.46,.68-1.6,2.74c-.08,0-.53,.46-1.37,1.37l.23,.46v.23h-.46v-.46l-.46,.23,.91,1.14c0,.11-.68,.65-2.05,1.6h-.23c-.3,0-.46-.23-.46-.68h-.46c0,.61-.23,.91-.68,.91-.95-.3-1.56-.46-1.83-.46-.61,.3-1.06,.46-1.37,.46-1.67,0-2.51-.3-2.51-.91h-.23c0,.61-.15,.91-.46,.91h-.46c-.15,0-.23-.08-.23-.23l-.46,.23h-.68c-.8,0-1.48-.23-2.05-.68,0,.3-.15,.46-.46,.46h-.23c-.11,0-.49-.38-1.14-1.14v.23l.23,.46-.91,.68v-.23l-.46,.23h-.23c-.3,0-.46-.3-.46-.91-.49,0-1.03,.23-1.6,.68-.08,0-.46-.3-1.14-.91v.46h-.46c-.3,0-.46-.23-.46-.68l-.68,.46h-.46v-.46h-.23v.68h.46v.23c0,.3-.15,.46-.46,.46h-.46c-.3,0-.46-.15-.46-.46v-.23h.46v-.23h-.46c-.31,.15-.53,.23-.68,.23,0-.3-.15-.46-.46-.46h-.23v.46h-.23l-.91-.68v.46c-.34,0-.65-.08-.91-.23-.31,.15-.53,.23-.69,.23,0-.3-.15-.46-.46-.46,0,.3-.15,.46-.46,.46h-.23v-.23c0-.38,.3-.61,.91-.68,.3,.15,.53,.23,.68,.23l.23-.46v-.23h-.23v.46h-.46c0-.46-.15-.68-.46-.68-.15,.3-.23,.53-.23,.68h-.46c0-.46-.15-.68-.46-.68-.15,.3-.23,.53-.23,.68-.31,0-.46-.15-.46-.46,0-.23,.23-.46,.68-.68h.46v.46h.46v-.46h.68v.46c.23,0,.46-.23,.69-.68v-.23h-.23v.46h-.46v-.46h-.68v.46h-.46c0-.23-.15-.53-.46-.91v-.23h.46v.46c.38-.3,.76-.46,1.14-.46,0-.3-.15-.46-.46-.46h-.23v.46h-.46v-.23c.15-.34,.68-1.1,1.6-2.28-.15-.27-.23-.57-.23-.91l1.37-1.37c-.15-.3-.23-.53-.23-.68,.91-1.37,1.52-2.05,1.83-2.05l-.23-1.14c.23,0,.68-.46,1.37-1.37-.15-.3-.23-.53-.23-.68l.46,.23h.23l-.46-.68c.91-.76,1.37-1.37,1.37-1.83-.15-.3-.23-.53-.23-.68,.23,0,1.06-.91,2.51-2.74l-.23-.46h.91v-.23h-.68v-.23l.91-1.14c-.15-.3-.23-.53-.23-.68,.15,0,.23-.08,.23-.23l.46,.23h.46v-.46l-.46,.23h-.23v-.23c.91-1.1,1.45-2.17,1.6-3.2,.84-.91,1.37-1.37,1.6-1.37l-.46-.68,2.05-2.51c-.31,0-.46-.15-.46-.46,.91-.91,1.37-1.52,1.37-1.83-.15-.3-.23-.53-.23-.68,1.06-.68,1.6-1.44,1.6-2.28-.15,0-.23-.08-.23-.23,1.22-.95,1.83-1.79,1.83-2.51-.15,0-.23-.08-.23-.23,.65-.34,1.1-.95,1.37-1.83l-.23-.46c1.06-1.37,1.75-2.05,2.05-2.05v-.23l-.46-.68c.23,0,.84-.68,1.83-2.05l-.23-.46c1.29-1.56,2.05-2.85,2.28-3.88h-1.14l-.68,.46-.69-.46c-.84,.15-1.45,.23-1.83,.23-.15,0-.23-.08-.23-.23l-1.14,.23c-.23,0-1.45-.08-3.65-.23l-.46,.23c-.91-.11-1.37-.34-1.37-.68l-.68,.46h-1.14v-.46h-.23v.46h-.46l-.91-.68-1.6,.23c0-.3-.15-.46-.46-.46h-1.83v-.23c.04-.3,.19-.46,.46-.46l.46,.23,.46-.23c.15,0,.23,.08,.23,.23,1.29-.3,2.05-.46,2.28-.46v.23l.46-.23,1.14,.23,1.14-.23c0,.15,.08,.23,.23,.23,.04-.3,.19-.46,.46-.46h.23c.15,0,.23,.08,.23,.23l.46-.23h1.83c.49,0,.87-.08,1.14-.23l1.37,.23h2.74l.68-.46c.15,0,.23,.08,.23,.23l.46-.23c.34,0,.65,.08,.91,.23,1.83-.11,2.74-.34,2.74-.68h-.23c-.31,.15-.53,.23-.68,.23v-.68c.61,0,.91-.23,.91-.68h.23c.11,1.22,.34,1.83,.68,1.83h.46c1.06-1.06,1.75-1.6,2.05-1.6-.3-.38-.46-.68-.46-.91,.15-.3,.23-.53,.23-.69h-.23c-.61,0-.91,.23-.91,.69h-.23v-.69l.46-.68c-.15-.27-.23-.57-.23-.91,.46,0,.68-.46,.68-1.37ZM.68,62.07h.46v.46c-.23,0-.53,.15-.91,.46h-.23v-.23c0-.23,.23-.46,.68-.68Zm2.05-2.74v.46h.23v-.46h-.23Zm.68-.68v.46h.23v-.46h-.23ZM5.02,10.95c.27,.15,.57,.23,.91,.23v.46l-1.14,.23-.46-.23c-.31,.15-.53,.23-.68,.23v-.68l1.37-.23Zm-1.37,46.1v.23h.46v-.23h-.46Zm.23,2.28v.46h.23v-.46h-.23Zm0,1.14v.46h.23v-.46h-.23Zm0,1.14v.46h.23v-.46h-.23Zm.23-7.07v.23c.23,0,.46-.23,.68-.68v-.23c-.23,0-.46,.23-.68,.68Zm.68,2.51l-.23,.46v.23h.23c0-.3,.15-.46,.46-.46v-.23h-.46Zm-.23,3.88v.46h.23v-.46h-.23Zm.46-.46v.46h.23v-.46h-.23Zm0,.91v.68h.23v-.68h-.23Zm.23-6.85v.23c.3,0,.46-.15,.46-.46v-.23c-.31,.04-.46,.19-.46,.46Zm.46-3.19v.23h.46v-.23h-.46Zm.46-40.16h.68v.46h-.68v-.46Zm0,49.29v.46h.23v-.46h-.23Zm0,.91v.46h.23v-.46h-.23Zm.68-11.18v.23h.46v-.23h-.46Zm.46-.68c.04,.3,.19,.46,.46,.46v-.46h-.46Zm0,11.87v.68h.23v-.68h-.23Zm3.42,.23v.46h.23v-.46h-.23Zm1.83-21.22v.23h.46v-.23h-.46Zm2.74,20.99v.46h.23v-.46h-.23Zm.74-12.44h.46v.46h-.46v-.46Zm.46-1.37v.46h.46v-.46h-.46Zm.63-10.61v.46h.23v-.46h-.23Zm.51,11.75v.46h.23c.3,0,.46-.15,.46-.46v-.23c-.31,.15-.53,.23-.68,.23Zm1.14,0v.46h.23c.3,0,.46-.15,.46-.46v-.23c-.3,.15-.53,.23-.68,.23Zm1.31-22.02v.23h.46v-.23h-.46Zm.23,34.23v.23h.46v-.23h-.46Zm.46,.46v.46h.23v-.46h-.23Zm1.37-36.97c.04,.31,.19,.46,.46,.46v-.46h-.46Zm.29,24.08v.46c.49,0,.87,.08,1.14,.23v-.46l-1.14-.23Zm.63,14.03v.23h.46v-.23h-.46Zm1.37-38.11v.46h.23v-.46h-.23Zm.06,24.53v.23h.23c.3,0,.46-.15,.46-.46v-.23h-.23c-.31,.04-.46,.19-.46,.46Zm4.34-.23v.23h1.14v.23c0,.3-.15,.46-.46,.46h-1.6l-1.37,.23c-.61-.3-1.14-.46-1.6-.46l-.23,.46,.46,.23h1.37v1.14h.91v-.23l-.23-.46,.46-.23h1.6c.61,.76,.99,1.14,1.14,1.14h.23v-.46c-.46,0-.68-.15-.68-.46l.91-.68c-.15-.3-.23-.53-.23-.68,.15-.3,.23-.53,.23-.68-.31,0-.46-.23-.46-.68-.76,.61-1.29,.91-1.6,.91Zm-2.28,0c.04,.3,.19,.46,.46,.46l.23-.46v-.23c-.3,.15-.53,.23-.68,.23Zm.23-1.14v.46c.3,0,.46-.15,.46-.46h-.46Zm.63-34.57v.46c.3,0,.46-.15,.46-.46h-.46Zm.68-.46v.23h.46v-.23h-.46Zm1.37,1.83v.23h.46v-.23h-.46Zm.23-1.83v.23h1.6v-.23h-1.6Zm0,19.17v.46h.23v-.46h-.23Zm.91,26.01v.46h.46c0-.3-.15-.46-.46-.46Zm.74-10.16v.46h.23v-.46h-.23Zm1.77-23.39c0,.53-.38,1.22-1.14,2.05,.76,0,1.14,.23,1.14,.68h.23v-.23l-.23-.46c.15-.3,.23-.53,.23-.68l-.23-.46c.15-.3,.23-.53,.23-.68v-.23h-.23Zm-1.14,7.07v.46h.23v-.46h-.23Zm0,1.6v.23c.3,0,.46-.15,.46-.46v-.23c-.3,.04-.46,.19-.46,.46Zm0,14.6v.46h.23v-.46h-.23Zm.23-38.79c.15,.27,.23,.65,.23,1.14h.68c-.3-.49-.46-.95-.46-1.37l-.46,.23Zm.46,4.34v.23l1.14,.23,.46-.23,.46,.23h.23v-.23c-.3,0-.46-.08-.46-.23,.15-.3,.23-.53,.23-.68l-2.05,.68Zm6.16-9.36c.76,.19,1.14,.42,1.14,.68l-1.83,1.6-.91-1.14h-.23l-1.14,1.14-.91-.91c-.53,.15-.84,.23-.91,.23-.61-.23-.91-.46-.91-.68,0-.49,1.9-.8,5.71-.91Zm-5.02,44.5h.91c.3,.04,.46,.19,.46,.46-.76,.3-1.37,.46-1.83,.46l-.23-.46,.68-.46Zm-.23-15.52v.23h.91c-.15-.3-.23-.53-.23-.68h-.23c-.31,.04-.46,.19-.46,.46Zm.23-17.34v.23l.91,.23h.46v-.23c-.5,0-.88-.08-1.14-.23h-.23Zm0,38.11v.23h.46v-.23h-.46Zm.23,1.6c.3,.04,.46,.19,.46,.46h-.46v-.46Zm.91-48.61c.3,.04,.46,.19,.46,.46,0,.3-.15,.46-.46,.46s-.46-.15-.46-.46c.04-.3,.19-.46,.46-.46Zm-.46,18.26l.46,.68c.8-.3,1.41-.46,1.83-.46v-.46l-.46,.23-.91-.23c-.27,.15-.57,.23-.91,.23Zm.23-1.14v.23h.46v-.23h-.46Zm.46,7.07l-.23,.91,.46,.23c.3-.15,.53-.23,.68-.23,0-.23-.3-.53-.91-.91Zm.91,24.42c.3,.04,.46,.19,.46,.46v.23c0,.23-.23,.46-.68,.68l-.46-.23c.19-.76,.42-1.14,.68-1.14Zm2.28-41.76l.23,.46c0,.3-.15,.46-.46,.46h-.46c-.3,0-.46-.15-.46-.46l1.14-.46Zm.23,41.76h.23c.3,.04,.46,.19,.46,.46l-.68,.46c-.31,0-.46-.15-.46-.46,.04-.3,.19-.46,.46-.46Zm0-31.72v.46l.46-.23,.23,.46c0,.46-.31,.68-.91,.68v.23h.23c.3-.15,.53-.23,.68-.23,0,.23,.23,.46,.68,.68,.04-.3,.19-.46,.46-.46,.19,0,.95,.23,2.28,.68l.46-.91-1.14-.23h-1.6l-1.14-1.14h-.68Zm5.02,27.84h.46c.23,0,.46,.23,.68,.68-1.6,1.83-2.59,2.74-2.97,2.74h-.23c-.15,0-.23-.08-.23-.23-.46,.15-.68,.3-.68,.46,.15,.3,.23,.53,.23,.68l-.46,.23h-.46c-.31,0-.46-.15-.46-.46,.23,0,.46-.23,.68-.68v-.23c-.46,0-.68-.15-.68-.46,.3,0,.46-.15,.46-.46-.91,0-1.37-.23-1.37-.68v-.23c.04-.3,.19-.46,.46-.46h.68v.46h.23v-.23c-.15-.27-.23-.57-.23-.91h.68l1.37,1.14,1.83-1.37Zm-4.79-35.83c0,.23,.46,.68,1.37,1.37-.3-.49-.46-.95-.46-1.37h-.91Zm2.28,15.52c0,.65-.31,1.26-.91,1.83l.91,.23,.91-.46,.46,.68v.23c0,.8-.61,2.09-1.83,3.88l.23,.46c-1.37,3.04-2.05,4.94-2.05,5.7,1.6,.61,3.04,.91,4.34,.91,2.89,0,4.34-.68,4.34-2.05-.46-.72-.99-1.86-1.6-3.42,.15-.3,.23-.53,.23-.68l-2.97-6.16c.3,0,.46-.15,.46-.46-.57,0-1.18-.23-1.83-.68h-.68Zm-2.28,23.05h.23v.46h-.23v-.46Zm1.83-49.75c.3,.04,.46,.19,.46,.46l-.46,.23c-.3,0-.46-.15-.46-.46l.46-.23Zm-.23,18.25v.23h.69l.23-.46h-.23c-.31,.15-.53,.23-.69,.23Zm1.83,25.56h.46v.23c0,.3-.15,.46-.46,.46s-.46-.15-.46-.46l.46-.23Zm0,7.07h.23v.46h-.23v-.46Zm1.37-1.37h.68c.3,.04,.46,.19,.46,.46,0,.3-.15,.46-.46,.46h-.46c-.23,0-.46-.23-.68-.68l.46-.23Zm.23-47.24h.23c.3,.04,.46,.19,.46,.46l-.46,.23h-.23c-.31,0-.46-.15-.46-.46l.46-.23Zm.46-2.74h.46c.23,0,.46,.23,.68,.68,0,.23-.23,.46-.68,.68h-.23c-.23,0-.46-.23-.68-.68v-.23c.04-.3,.19-.46,.46-.46Zm-.46,26.7v.23h.46v-.23h-.46Zm.46-5.93v.46c.38,0,.76,.15,1.14,.46l.23-.46v-.23c-.11,0-.57-.08-1.37-.23Zm.46,7.99l-.46,.68h1.14c.3,0,.46-.15,.46-.46l-1.14-.23Zm1.6,19.4l.23,.46c0,.19-.38,.57-1.14,1.14h-.68c-.3,0-.46-.15-.46-.46v-.46c.76,0,1.45-.23,2.05-.68Zm-1.83-4.11v.23h.91v-.23h-.91ZM47.01,3.65h1.6c.23,0,.46,.23,.68,.68,0,.27-.38,.5-1.14,.68-1.06-.15-1.6-.38-1.6-.68v-.23c.04-.3,.19-.46,.46-.46Zm3.19,20.77c-.15-.3-.23-.53-.23-.68-.3,.15-.53,.23-.68,.23-.3-.15-.53-.23-.68-.23-.08,.31-.46,.61-1.14,.91-.27-.15-.57-.23-.91-.23v.46c.15,0,.23-.08,.23-.23,1.6,.46,2.59,.68,2.97,.68h.46l2.28-.23v-.23l-.46-.68v-.46l.91-.23,.68,.91c-.15,.31-.23,.53-.23,.68h.68l.68-.46h.68l.91,.68h1.14c0-.46-.99-.91-2.97-1.37v-.23l.23-.46c-.53-.11-.93-.25-1.2-.4-.27-.15-.4-.32-.4-.51l-.23,.23c-.08,.11-.17,.23-.29,.34-.8,.99-1.62,1.48-2.45,1.48Zm-1.83,30.35h1.14v.46c0,.31-.15,.46-.46,.46h-.68c-.31,0-.46-.15-.46-.46,.04-.3,.19-.46,.46-.46Zm-.23-24.65v.23l1.14,.23v-.46h-1.14Zm0,2.28v.23h.46v-.23h-.46Zm.23,16.66h.46c.3,.04,.46,.19,.46,.46,0,.3-.15,.46-.46,.46s-.46-.15-.46-.46v-.46Zm1.37-35.83h.23c.3,.04,.46,.19,.46,.46,0,.3-.15,.46-.46,.46h-.23c-.31,0-.46-.15-.46-.46,.04-.3,.19-.46,.46-.46Zm.46-9.58h.46c.38,0,1.06,.15,2.05,.46,.49-.3,.95-.46,1.37-.46h.46c.91,.08,1.37,.31,1.37,.68,0,.46-.76,.68-2.28,.68l-.46-.23-.46,.23c-.3-.15-.53-.23-.68-.23l-1.14,.23c-.76-.15-1.14-.53-1.14-1.14l.46-.23Zm.68,27.61v.23c.15,0,.38,.08,.69,.23v-.46h-.69Zm2.74,1.37v.23h.23c.27-.15,.57-.23,.91-.23v-.23h-.46c-.31,.15-.53,.23-.68,.23Zm2.51-22.13h.23c.3,.04,.46,.19,.46,.46v.23l-1.14,.23v-.46c.04-.3,.19-.46,.46-.46Zm.23,38.34v.23h.46v-.23h-.46Zm1.6-39.25c.3,0,.46,.23,.46,.68-.23,.61-.46,.91-.68,.91h-.46l-.23-.91,.91-.68Zm.68-5.71h.23c.3,.04,.46,.19,.46,.46,0,.31-.15,.46-.46,.46h-.23c-.3,0-.46-.15-.46-.46,.04-.3,.19-.46,.46-.46Zm-.23,6.85h.68c.34,0,.65,.08,.91,.23l.46-.23,.46,.23c.3-.15,.53-.23,.68-.23v.68h-.23l-.46-.23-.46,.23c-.3-.15-.53-.23-.68-.23,0,.3-.23,.46-.68,.46-.3-.15-.53-.23-.68-.23v-.68Zm.68,39.25v.23c.15,.3,.23,.53,.23,.68h.23v-.68l-.46-.23Zm1.37-19.62l-.23,1.14,.46,.23c.15-.3,.23-.53,.23-.68-.15-.3-.23-.53-.23-.68h-.23Zm0,20.08v.46h.23v-.46h-.23Zm1.6-34.91h.23c.3,.04,.46,.19,.46,.46,0,.3-.15,.46-.46,.46h-.23c-.31,0-.46-.15-.46-.46,.04-.3,.19-.46,.46-.46Zm-.23,38.79v.23h.46v-.23h-.46Zm.46-4.34c.3,.38,.46,.76,.46,1.14h.23v-.46c-.15-.3-.23-.53-.23-.68h-.46Zm.23-31.49v.23h.46v-.23h-.46Zm1.6-.91c.23,0,.46,.23,.68,.69l-.23,.46c-.27-.15-.57-.23-.91-.23v-.46c.04-.3,.19-.46,.46-.46Zm1.37-2.05c.57,0,.95,.91,1.14,2.74l-.46,.23h-.23c-.19,0-.57-.53-1.14-1.6,.15-.91,.38-1.37,.68-1.37Zm-.23,5.71h.68c.15,0,.53,.53,1.14,1.6-.91,.19-1.37,.42-1.37,.68h.68v.46h-.68c-.34,0-.65-.84-.91-2.51l.46-.23Zm-.23,10.27v.46h.46v-.46h-.46Zm1.37-2.51c0,.27-.23,.65-.68,1.14,.76,0,1.37,.84,1.83,2.51,.3-.15,.53-.23,.68-.23s.23,.08,.23,.23c.61-.15,1.22-.23,1.83-.23,0-.15-.3-.61-.91-1.37l.23-1.14h-.23c-.34,0-.65,.08-.91,.23l-2.05-1.14Zm1.37,32.18v.23h.46v-.23h-.46Zm1.37-38.79l.46,.68v.46c0,.3-.15,.46-.46,.46h-.23c-.3,0-.46-.15-.46-.46,.19-.76,.42-1.14,.68-1.14Zm-.68,31.72v.46h.23v-.46h-.23Zm.46-2.97v.23h.46v-.23h-.46Zm1.14-1.14v.46h.23v-.46h-.23Zm1.6,4.34c0,.23,.23,.46,.68,.68,.3-.15,.53-.23,.68-.23v-.46h-1.37Zm0,2.28v.23h.46v-.23h-.46Zm1.6,4.56v.23l.91,.23c.3-.15,.53-.23,.68-.23,0,.15,.08,.23,.23,.23v-.23c0-.3-.23-.46-.68-.46l-1.14,.23Zm.68-5.71v.23h.46v-.23h-.46Zm.91-.46v.68h.91c-.3-.49-.46-.88-.46-1.14-.31,.04-.46,.19-.46,.46Zm.23-11.41v.46h.46c0-.3-.15-.46-.46-.46Zm.23,12.78c0,.15-.08,.38-.23,.68,.15,.27,.23,.57,.23,.91h1.14c-.27-1.06-.57-1.6-.91-1.6h-.23Zm.46-3.2v.23h.46v-.23h-.46Zm.46,8.22v.46h.23v-.46h-.23Zm.23-7.3l.46,.68v.23c0,.3-.15,.46-.46,.46,.15,.3,.23,.53,.23,.68,.3,0,.53-.61,.68-1.83l-.46-.23h-.46Zm.68-10.27v1.14c.23,0,.53-.3,.91-.91-.34,0-.65-.08-.91-.23Zm1.14,1.14v.23h.46v-.23h-.46Zm2.74,15.75c0,.08,.38,.53,1.14,1.37v.23c0,.3-.15,.46-.46,.46h-.68c-1.67-.23-2.51-.53-2.51-.91,.04-.3,.19-.46,.46-.46l.91,.23,1.14-.91Zm-2.05-14.38v.23h.46v-.23h-.46Zm3.88,10.95h.23v.68l.23,1.14c-1.45,.61-2.28,.91-2.51,.91-.27-.15-.57-.23-.91-.23,0,.15-.08,.23-.23,.23l-.23-.46c.04-.3,.19-.46,.46-.46l-.23-.46v-.46h.46v.68l.68-.46h.23c.15,0,.23,.08,.23,.23,.19,0,.72-.46,1.6-1.37Zm-2.51-1.14h.46v.46h-.46v-.46Zm1.37-1.14c.3,.04,.46,.19,.46,.46l-.46,.23c-.3,0-.46-.15-.46-.46l.46-.23Zm.23-1.6h.46v.46h-.46v-.46Zm.68,1.83h.46c0,.5,.08,.88,.23,1.14l-.46,.23h-.23c-.31,0-.46-.15-.46-.46v-.46c.04-.3,.19-.46,.46-.46Zm.23-3.42h.23c.3,.04,.46,.19,.46,.46l-.46,.23-.23-.46v-.23Zm.91,2.28h.46v.68c0,.3-.15,.46-.46,.46h-.69v-.46c0-.23,.23-.46,.69-.68Zm-.23,6.16l.23,.46c0,.3-.15,.46-.46,.46l-.23-.46c.04-.3,.19-.46,.46-.46Zm4.11-17.23h.91v.74h-.29c-.42,0-.63-.17-.63-.51v-.23Zm2.45-.29c.42,.19,.72,.29,.91,.29l.63-.29c.42,.19,.72,.29,.91,.29l.63-.29c.34,.19,.86,.29,1.54,.29v.23c0,.34-.21,.51-.63,.51l-.63-.23c-.38,.15-.68,.23-.91,.23l-.63-.23c-.34,.15-.74,.23-1.2,.23-.23,0-.34-.08-.34-.23-.65,.34-1.26,.51-1.83,.51,0-.23,.51-.67,1.54-1.31Zm1.65,3.37h.23c.3,.04,.46,.19,.46,.46v.23c0,.31-.15,.46-.46,.46h-.23l-.68-.46c-.31,.15-.53,.23-.68,.23v-.68h.23c.3,.15,.53,.23,.68,.23,.04-.3,.19-.46,.46-.46Zm1.83,0h.23c.3,.04,.46,.19,.46,.46v.23l-1.14,.23v-.46c.04-.3,.19-.46,.46-.46Zm2.68-3.37l.29,.51c0,.34-.21,.51-.63,.51h-.29c-.42,0-.63-.17-.63-.51v-.23c.11,0,.53-.09,1.26-.29Zm-.4,3.59h.23l.46,.23,.46-.23,.46,.23,.46-.23,.46,.23c.3-.15,.53-.23,.68-.23v.68h-.23l-.46-.23-.46,.23-.46-.23-.46,.23-.46-.23c-.3,.15-.53,.23-.68,.23v-.68Zm1.6-3.31v.51h-.57c.04-.34,.23-.51,.57-.51Zm1.54,0h.34v.23c0,.34-.21,.51-.63,.51l-.29-.51,.57-.23Zm3.08,0v.51h-.63c.08-.34,.29-.51,.63-.51Zm3.08,0v.51h-.63c.08-.34,.29-.51,.63-.51Zm.91,.23h.63v.29h-.63v-.29Z"/><path class="c" d="M86.14,44.95c.27,.15,.57,.23,.91,.23v.46l-1.14,.23-.46-.23c-.3,.15-.53,.23-.68,.23v-.68l1.37-.23Zm1.14,.23h.69v.46h-.69v-.46ZM155.74,0l1.14,.91h1.37V.23c.88,.61,1.41,.91,1.6,.91,.3-.15,.53-.23,.68-.23,.04,.3,.19,.46,.46,.46,.15,0,.23-.08,.23-.23l1.14,.23h.46c.34,0,.65-.08,.91-.23,.8,.46,2.02,.99,3.65,1.6,0-.15,.08-.23,.23-.23,0,.27,.61,.72,1.83,1.37,.3-.15,.53-.23,.68-.23l1.14,1.6v.46h-.69v.68c.61,0,.91,.15,.91,.46,0,.23-.23,.46-.68,.68,0-.3-.15-.46-.46-.46h-.46c0,.61-.46,.91-1.37,.91,0,.3,.46,.46,1.37,.46v-.23h.46l.69,.46,1.37-.23c.27,.15,.65,.23,1.14,.23,.04-.3,.19-.46,.46-.46l1.6,.91c.27-.15,.95-.3,2.05-.46v.23l.46-.23,.91,.68c.23,0,.46-.23,.69-.68,.91,.11,1.37,.27,1.37,.46l.46-.23h.23c.15,0,.23,.08,.23,.23l.46-.23h.23c.15,0,.23,.08,.23,.23l.46-.23h.23c.15,0,.23,.08,.23,.23l.46-.23h.23c.15,0,.23,.08,.23,.23,.3-.15,.53-.23,.68-.23,.49,.3,.88,.46,1.14,.46,.04-.3,.19-.46,.46-.46h.23c.15,0,.23,.08,.23,.23l.46-.23h.23c.15,0,.23,.08,.23,.23l.46-.23h.23c.3,.04,.46,.19,.46,.46v.23c-.34,0-.65,.08-.91,.23l-.46-.23-.46,.23-.46-.23-.46,.23-.46-.23c-.3,.15-.53,.23-.69,.23v-.23c-.49,.3-.95,.46-1.37,.46-.3,0-.46-.15-.46-.46l-.46,.23h-.69l-1.14-.23c-.61,.53-.91,.91-.91,1.14h-.69v-.46h-.23v.46h-.69c0-.46-.15-.68-.46-.68h-.23c-.69,.46-1.37,.68-2.05,.68v-.46h-.23v.46h-.68v-.46h-1.14v.46h-.23l-.46-.23c0,.3-.15,.46-.46,.46h-.68l-.46-.23v.46h4.34c1.37,.23,2.05,.91,2.05,2.05v.68c.15,0,.38,.3,.68,.91l-.23,.46c.15,.27,.23,.57,.23,.91,0,.15-.08,.23-.23,.23,.61,.91,.91,1.83,.91,2.74h-.23l.23,.46v.46c0,.15-.08,.23-.23,.23l.23,.46v.46c0,.15-.08,.23-.23,.23l.23,.46c-.15,1.52-.38,2.43-.69,2.74,.3,.04,.46,.19,.46,.46-.3,.15-.53,.23-.69,.23l.69,.91c-.3,.15-.53,.23-.69,.23v.23h3.2v.23c-1.26,2.13-2.17,3.19-2.74,3.19l.46,.68-3.2,2.97-.46-.23c0,.19-.68,.8-2.05,1.83l-.46-.23c-.15,0-.76,.46-1.83,1.37l-.46-.23-1.14,.91c-.3-.15-.53-.23-.68-.23l-.46,.23c-.27-.15-.57-.23-.91-.23,0,.23-.23,.46-.69,.69l-.23-.46h.46v-.23h-.46c0,.23-.31,.46-.91,.69-.27-.15-.57-.23-.91-.23-.23,.61-.46,.91-.69,.91l-.68-.46c0,.3-.15,.46-.46,.46l-.68-.46c0,.3-.15,.46-.46,.46l-.69-.46c0,.3-.15,.46-.46,.46l-.69-.46c0,.3-.23,.46-.68,.46l-.46-.23c-.3,.15-.53,.23-.68,.23,0-.3-.15-.46-.46-.46l-.69,.91-1.6-.23c-.34,0-.65,.08-.91,.23-.76-.19-1.14-.42-1.14-.68l-2.05,.46c0-.3-.15-.46-.46-.46,0,.23-.3,.46-.91,.68-.76-.15-1.14-.3-1.14-.46l-1.14,.68-.23-.46c.15,0,.23-.08,.23-.23h-.23l-.91,.68-.69-.46c-.3,.15-.53,.23-.68,.23l.23-.46h-.23l-.46,.23c-.3-.15-.53-.23-.68-.23l-.46,.23c-.3-.15-.53-.23-.69-.23l-.46,.23c-.3-.15-.53-.23-.69-.23l-.46,.23c-.3-.15-.53-.23-.69-.23l-.46,.23c-.3-.15-.53-.23-.68-.23l-.46,.23c-.3-.15-.53-.23-.68-.23l-.46,.23-.46-.23c-.27,.15-.57,.23-.91,.23v-.23l-.46,.23c-.34,0-.65-.08-.91-.23-.3,.15-.53,.23-.68,.23l-.46-.23c-.27,.15-.57,.23-.91,.23v-.23c-.31,.15-.53,.23-.69,.23l-.46-.23c-.3,.15-.53,.23-.68,.23l-.46-.23c-.3,.15-.53,.23-.68,.23l-.46-.23c-.3,.15-.53,.23-.69,.23l-.46-.23c-.27,.15-.57,.23-.91,.23v-.23c-.61,.15-1.14,.38-1.6,.68l-.46-.23c0,.23-.23,.46-.69,.68h-.23v-.68h-.23c0,.23-.38,.76-1.14,1.6,.3,.04,.46,.19,.46,.46l-.68,.46h-3.65l-1.37,.23c-.27-.15-.65-.23-1.14-.23,0,.76-.15,1.14-.46,1.14,.15,.15,.23,.76,.23,1.83l.69-.46,1.6,.91c.27-.15,.95-.3,2.05-.46v.23l.46-.23,.91,.68c.23,0,.46-.23,.69-.68,.91,.11,1.37,.27,1.37,.46l.46-.23h.23c.15,0,.23,.08,.23,.23l.46-.23h.23c.15,0,.23,.08,.23,.23l.46-.23h.23c.15,0,.23,.08,.23,.23l.46-.23h.23c.15,0,.23,.08,.23,.23,.3-.15,.53-.23,.69-.23,.49,.3,.87,.46,1.14,.46,.04-.3,.19-.46,.46-.46h.23c.15,0,.23,.08,.23,.23l.46-.23h.23c.15,0,.23,.08,.23,.23l.46-.23h.23c.3,.04,.46,.19,.46,.46v.23c-.34,0-.65,.08-.91,.23l-.46-.23-.46,.23-.46-.23-.46,.23-.46-.23c-.3,.15-.53,.23-.69,.23v-.23c-.49,.3-.95,.46-1.37,.46-.3,0-.46-.15-.46-.46l-.46,.23h-.68l-1.14-.23c-.61,.53-.91,.91-.91,1.14h-.68v-.46h-.23v.46h-.69c0-.46-.15-.68-.46-.68h-.23c-.69,.46-1.37,.68-2.05,.68v-.46h-.23v.46h-.68v-.46h-1.14v.46h-.23l-.46-.23v.68h6.39c.23,0,.46,.23,.68,.68-.15,.31-.23,.53-.23,.69l.23,.46c-.15,.3-.23,.53-.23,.68l.23,.46-.68,1.37c.3,.04,.46,.19,.46,.46l-.46,.68c.3,.04,.46,.19,.46,.46l-.46,.68c.3,.04,.46,.19,.46,.46l-.46,.68c.3,.04,.46,.19,.46,.46l-.46,.68c.15,.3,.23,.53,.23,.68-.15,.3-.23,.53-.23,.68,.3,.04,.46,.19,.46,.46-.3,.04-.46,.19-.46,.46v.23c.46,0,.68,.15,.68,.46v.23h-.46v.23l.46,.68c-.3,.04-.46,.19-.46,.46,.15,.27,.23,.57,.23,.91-.34,0-.57,.38-.68,1.14,.15,0,.23,.08,.23,.23l-.46,.23c0-.3-.15-.46-.46-.46,0,.3-.15,.46-.46,.46-.3-.15-.53-.23-.68-.23,0,.3-.15,.46-.46,.46h-1.82c-.34,0-.65,.08-.91,.23-.3-.15-.53-.23-.68-.23l-.46,.23c-.3-.15-.53-.23-.68-.23-.31,.15-.53,.23-.69,.23,0-.15-.08-.23-.23-.23,0,.3-.15,.46-.46,.46h-.46v-.46h-.46v.46h.46c0,.3-.15,.46-.46,.46,0-.23-.3-.53-.91-.91l-.69,.46c0-.3-.15-.46-.46-.46l-.69,.46c0-.3-.15-.46-.46-.46l-.68,.46c0-.3-.15-.46-.46-.46l-.68,.46c0-.3-.15-.46-.46-.46l-.68,.46c0-.3-.15-.46-.46-.46l-.46,.23-.46-.23-.46,.23-.91-.23-.46,.23c-.3-.15-.53-.23-.69-.23l-.46,.23c-.61-.08-.91-.3-.91-.68-.38,.3-.68,.46-.91,.46-.15,0-.23-.08-.23-.23l-1.14,.23h-1.14l-1.37-.23-.46,.23c-.27-.15-.57-.23-.91-.23,0,.15-.08,.23-.23,.23l-.23-.46-.46,.23h-2.51c-.3,0-.46-.15-.46-.46l.68-1.14c-.61,0-.99-1.29-1.14-3.88h-.46c0,1.07-.38,1.6-1.14,1.6-.61-.8-.91-1.48-.91-2.05v-.23c0-.42,.38-.65,1.14-.68v-.91c-.91,0-1.37-.84-1.37-2.51l-.46-1.14c.15-.61,.23-1.14,.23-1.6,0-.27-.15-1.1-.46-2.51,.15-.08,.23-.61,.23-1.6h-.23v-.23l.46-.68v-1.14l-.23-2.28h.23l-.23-.46v-.91l1.14-1.14c-.91,0-1.37-.53-1.37-1.6v-1.14l.46-.68c-.3-.49-.46-.95-.46-1.37v-1.6c0-2.4,.15-3.99,.46-4.79-.15-.3-.23-.53-.23-.68,.27-.15,.57-.23,.91-.23v-.46c-.61,0-.91-.15-.91-.46v-1.37c0-.49,.23-1.03,.68-1.6-.61,0-.91-.15-.91-.46,1.33-.8,2.02-1.33,2.05-1.6v-.23h-.46c0,.61-.38,.91-1.14,.91-.3,0-.46-.23-.46-.68,0-.68,.08-1.14,.23-1.37-.15-1.03-.23-1.86-.23-2.51v-1.6c0-.3,.3-.46,.91-.46v-.46c0-.08-.31-.46-.91-1.14l.46-.68c-.15-1.29-.23-2.28-.23-2.97l1.83-.91-.23-.46v-2.05c-.46-.49-.68-.88-.68-1.14l.46-.91c-.61,0-.91-.23-.91-.68v-.46c0-.76,2.05-1.29,6.16-1.6,.04,.3,.19,.46,.46,.46l1.14-.68c.91,.11,1.37,.27,1.37,.46,.15,0,.23-.08,.23-.23l1.14,.23h.46c.42,0,.88-.15,1.37-.46v.23l.91-.46c.8,.46,1.56,.68,2.28,.68h.23l.68-.46h.46v.68c.61-.3,.91-.53,.91-.68l.46,.23h.46l.46-.23c.04,.3,.19,.46,.46,.46h.68c.34-.34,1.18-.57,2.51-.68l.91,.46,.91-.46,.46,.23c.08,0,.38-.08,.91-.23,.3,.15,.53,.23,.69,.23,.04-.3,.19-.46,.46-.46h.23v.46h.23l.69-.46h.23v.46h.46c.15,0,.23-.08,.23-.23,.3,.15,.53,.23,.68,.23s.23-.08,.23-.23l1.14,.23h.23l1.37-.23c.61,.08,.91,.3,.91,.68h.23c0-.38,.3-.61,.91-.68,.3,.15,.53,.23,.68,.23l.46-.23c.15,0,.23,.08,.23,.23l1.14-.23h.46c.34,0,.65,.08,.91,.23l.46-.23,.46,.23c.08,0,.38-.08,.91-.23l.46,.23,.46-.23,.46,.23c1.29-.3,2.13-.46,2.51-.46l1.14,.23,.46-.23,1.37,.68c.15-.27,.23-.57,.23-.91l1.14,.23h.46c.34,0,.64-.08,.91-.23,.27,.15,.57,.23,.91,.23v-.23l.46,.23h.46V.23h.46v.46h.69l.46-.23v.23l1.14-.46c0,.3,.23,.46,.68,.46,3.73,.15,5.78,.23,6.16,.23l.46-.23c.15,0,.23,.08,.23,.23,1.63-.15,2.62-.3,2.97-.46,.27,.15,.57,.23,.91,.23l-.23-.46v-.23ZM89.8,29.67v.46h.46v-.46h-.46Zm.46,6.85v.46c.3,0,.46-.15,.46-.46h-.46Zm.23,6.85v.46h.23v-.46h-.23Zm.23-23.96v.46h.46v-.46h-.46Zm0,21.68v.23h.46v-.23h-.46Zm0,4.56v.23h.46v-.23h-.46Zm0,7.3v.23h.46v-.23h-.46Zm.23-34.91v.46h.23v-.46h-.23Zm0,29.89v.46h.23v-.46h-.23Zm.91-42.9v.23h.46v-.23h-.46Zm0,2.51h.46v-.46c-.3,.04-.46,.19-.46,.46Zm0,45.41v.23h.46v-.23h-.46Zm.46-45.18c.04,.3,.19,.46,.46,.46v-.46h-.46Zm.91,21.91v.46h.46v-.46h-.46Zm.46-23.05v.46h.23v-.46h-.23Zm0,1.14v.46h.23v-.46h-.23Zm0,44.5v.46c.3,0,.46,.15,.46,.46h.46v-.46c-.23,0-.53-.15-.91-.46Zm.23-8.9v.46h.23v-.46h-.23Zm0,17.12v.46h.23v-.46h-.23Zm0,1.14v.46h.23v-.46h-.23Zm.23-55.45v.23h.46v-.23h-.46Zm.23,23.5v.46h.46v-.46h-.46Zm0,18.03v.46h.46v-.46h-.46Zm0,2.51v.23h.46v-.23h-.46Zm.23,7.07v.46h.91v-.46h-.91Zm0,1.6v.46c.46,.72,.68,1.56,.68,2.51h.23v-.91l-.23-.46c.15-.3,.23-.53,.23-.68-.11-.46-.42-.76-.91-.91Zm2.51-51.12v.46h.23v-.46h-.23Zm.46-6.16v.23h.46v-.23h-.46Zm.91,41.76v.46h.23v-.46h-.23Zm8.21-34.91v.23h.46v-.23h-.46Zm3.42,0v.23h.46v-.23h-.46Zm2.51,34.46v.23h.46v-.23h-.46Zm1.82,.68v.23c.04,.3,.19,.46,.46,.46h.46c0-.23-.23-.46-.69-.68h-.23Zm.46-.68v.23h.46v-.23h-.46Zm1.14-.68c.15,.3,.23,.53,.23,.68,.3,0,.46-.15,.46-.46l-.46-.23h-.23ZM119.69,.23v.46h-.46c.04-.3,.19-.46,.46-.46Zm-.23,5.93c.04,.3,.19,.46,.46,.46,.3-.15,.53-.23,.69-.23v-.23h-1.14Zm.23,56.14v.46h.23v-.46h-.23Zm6.85-41.53c-.46,.38-.69,.68-.69,.91h-.23l-.68-.46c0,.3-.15,.46-.46,.46l-.68-.46c0,.3-.23,.46-.69,.46l-.46-.23c-.3,.15-.53,.23-.68,.23-.3-.15-.53-.23-.69-.23l.46,.68-.46,.69c.3,.04,.46,.19,.46,.46-.3,.04-.46,.19-.46,.46v.23l.46,.68c-.23,0-.46,.3-.69,.91h.46v.46l-.46,.68h2.97l1.14,.23-.23,.46v.23c.34,0,.65-.08,.91-.23,.27,.15,.57,.23,.91,.23v-.23l.46,.23h4.56c.34,0,.65,.08,.91,.23,.27-.15,.57-.23,.91-.23h.68l.46,.23c0-.27,.38-.49,1.14-.68l.91,.46c0-.3,.08-.46,.23-.46l.46,.23h.68c0,.15,.08,.23,.23,.23,.46,0,1.06-.15,1.83-.46,.3,.15,.53,.23,.68,.23,.3-.15,.53-.23,.69-.23v.23l.46-.23h.23c.3,.04,.46,.19,.46,.46l.46-.23h.46v.46h.23v-.46h.23c.34,0,.65,.08,.91,.23,.76,0,1.37-.91,1.83-2.74v-.68c0-.76-.46-1.45-1.37-2.05h-.68v-.23h-.23l-1.14,.68c-.3-.15-.53-.23-.68-.23-.3,.15-.53,.23-.69,.23l-.46-.68v-.23h.46v.46h.46v-.46c-.15,0-.38-.08-.68-.23-.3,.15-.53,.23-.69,.23l-.46-.23c-.3,.15-.53,.23-.68,.23l-.46-.23c-.3,.15-.53,.23-.68,.23l-.46-.23c-.3,.15-.53,.23-.68,.23,0-.3-.15-.46-.46-.46l-.69,.46-.46-.23c-.3,.15-.53,.23-.69,.23-.3-.15-.53-.23-.68-.23,0,.15-.08,.23-.23,.23,0-.3-.23-.46-.69-.46l-.46,.23c-.3-.15-.53-.23-.69-.23l-.46,.23c-.3-.15-.53-.23-.68-.23,0,.3-.15,.46-.46,.46l-.23-.46h.46v-.46h-.46v.46h-.68v-.46l-1.14,.91c-.3,0-.46-.15-.46-.46h.46v-.46l-.69,.46-.68-.46c0,.3-.15,.46-.46,.46l-.68-.46Zm-2.05-14.6v.46c.3-.15,.53-.23,.69-.23v-.23h-.69Zm.91,32.18v.23h.46v-.23h-.46Zm.46-16.43h.46v.23h-.46v-.23Zm.91-15.75v.46c.3,0,.46-.15,.46-.46h-.46Zm1.83,0v.23l.91,.23v-.46h-.91Zm1.14,15.06h.46v.23h-.46v-.23Zm.91-13.24v.46h.46v-.46h-.46Zm.68-1.6l.46,.91,.46-.23h.69l.91,.69c.19,0,.57-.46,1.14-1.37l-.46-.23h-2.74l-.46,.23Zm.46,1.6v.46h.46v-.46h-.46Zm2.28,0v.46h.46v-.46h-.46Zm1.37,36.51h.23c.3,.04,.46,.19,.46,.46v.23c0,.3-.15,.46-.46,.46h-.23l-.68-.46c-.3,.15-.53,.23-.69,.23v-.68h.23c.3,.15,.53,.23,.69,.23,.04-.3,.19-.46,.46-.46Zm.23-36.97c0,.3-.15,.46-.46,.46v.46h.46c0-.3,.15-.46,.46-.46v-.46h-.46Zm1.6,36.97h.23c.3,.04,.46,.19,.46,.46v.23l-1.14,.23v-.46c.04-.3,.19-.46,.46-.46Zm.46-37.42h.23c0-.08,.3-.46,.91-1.14h-.23c-.19,0-.49,.38-.91,1.14Zm1.82,37.65h.23l.46,.23,.46-.23,.46,.23,.46-.23,.46,.23c.3-.15,.53-.23,.69-.23v.68h-.23l-.46-.23-.46,.23-.46-.23-.46,.23-.46-.23c-.3,.15-.53,.23-.69,.23v-.68Zm3.65-22.59h.46v-.46c-.3,.04-.46,.19-.46,.46Zm4.34-13.69v.23h.46v-.23h-.46Zm7.99-1.14c.15,.3,.23,.53,.23,.68-.15,.3-.23,.53-.23,.68l1.37-1.14-.46-.91c-.61,.23-.91,.46-.91,.68Zm.68-1.6c.15,.31,.23,.53,.23,.68h.23c.38-.3,.69-.46,.91-.46v-.23h-1.37Zm2.05,0v.23l.91,.23v-.46h-.91Zm2.28,0v.23h.46v-.23h-.46Zm.69,.68l.23,.46c-.15,.3-.23,.53-.23,.68,.15,.3,.23,.53,.23,.68-.15,0-.23,.08-.23,.23h.23c.49-.3,.95-.46,1.37-.46h.91l.46,.23v-.23l-.69-1.14v-.23l.23-.46-.69-.46h-1.14c-.23,0-.46,.23-.68,.68Zm3.19,31.04v.23h.46v-.23h-.46Zm.46-31.72c0,.34-.08,.65-.23,.91l.46,.23h.23v-1.14h-.46Zm-.23,2.51v.23h.69l.23-.46h-.23c-.3,.15-.53,.23-.69,.23Zm2.05-2.51c0,.65-.3,1.1-.91,1.37,.15,1.07,.38,1.6,.68,1.6h.46l.68-.46c.3,.15,.53,.23,.69,.23v-.46c-.91,0-1.37-.38-1.37-1.14,.3,0,.46-.15,.46-.46v-.68h-.68Zm.91,0v.46h.46c.3,0,.46-.15,.46-.46h-.91Zm2.28,30.58v.23h.46v-.23h-.46Zm21.68-27.38h.23c.3,.04,.46,.19,.46,.46v.23c0,.3-.15,.46-.46,.46h-.23l-.68-.46c-.31,.15-.53,.23-.69,.23v-.68h.23c.3,.15,.53,.23,.68,.23,.04-.3,.19-.46,.46-.46Zm1.83,0h.23c.3,.04,.46,.19,.46,.46v.23l-1.14,.23v-.46c.04-.3,.19-.46,.46-.46Zm2.28,.23h.23l.46,.23,.46-.23,.46,.23,.46-.23,.46,.23c.3-.15,.53-.23,.69-.23v.68h-.23l-.46-.23-.46,.23-.46-.23-.46,.23-.46-.23c-.3,.15-.53,.23-.69,.23v-.68Z"/></g></svg>