<svg id="Layer_1" data-name="Layer 1" xmlns="http://www.w3.org/2000/svg" viewBox="0 0 18 18"><defs><style>.cls-1{fill:none;}.cls-2{fill:#fff;}</style></defs><rect class="cls-1" width="18" height="18"/><path class="cls-2" d="M15.75,3.75a8.92,8.92,0,0,0-2.62-.37A7,7,0,0,0,9,4.5,7,7,0,0,0,4.88,3.38,7,7,0,0,0,.75,4.5v11a.41.41,0,0,0,.38.37c.07,0,.11,0,.18,0A9.13,9.13,0,0,1,4.88,15,6.94,6.94,0,0,1,9,16.13,9,9,0,0,1,13.13,15a7.55,7.55,0,0,1,3.56.79.41.41,0,0,0,.56-.34V4.5A5.15,5.15,0,0,0,15.75,3.75Zm0,10.13a8.48,8.48,0,0,0-2.62-.38A9,9,0,0,0,9,14.63V6a9,9,0,0,1,4.13-1.12,8.78,8.78,0,0,1,2.62.37Z"/><path class="cls-2" d="M13.13,7.88A8.65,8.65,0,0,1,15,8.07V6.93a10.31,10.31,0,0,0-1.87-.18,8.75,8.75,0,0,0-3.38.62V8.62A7,7,0,0,1,13.13,7.88Z"/><path class="cls-2" d="M9.75,9.37v1.24a7,7,0,0,1,3.38-.74,8.65,8.65,0,0,1,1.87.2V8.92a10.31,10.31,0,0,0-1.87-.18A8.74,8.74,0,0,0,9.75,9.37Z"/><path class="cls-2" d="M13.13,10.75a8.57,8.57,0,0,0-3.38.62v1.24a7.08,7.08,0,0,1,3.38-.74,8.65,8.65,0,0,1,1.87.2V10.93A9.49,9.49,0,0,0,13.13,10.75Z"/></svg>